Adelphe-Bold.ufo
<glyph name="exclam" format="2">
  <advance width="230"/>
  <unicode hex="0021"/>
  <outline>
    <contour>
      <point x="98" y="231" type="line"/>
      <point x="127" y="231" type="line"/>
      <point x="184" y="635" type="line" smooth="yes"/>
      <point x="192" y="689"/>
      <point x="160" y="714"/>
      <point x="116" y="714" type="curve" smooth="yes"/>
      <point x="72" y="714"/>
      <point x="40" y="689"/>
      <point x="47" y="635" type="curve" smooth="yes"/>
    </contour>
    <component base="period" xOffset="1"/>
  </outline>
</glyph>
<glyph name="numbersign" format="2">
  <advance width="694"/>
  <unicode hex="0023"/>
  <outline>
    <contour>
      <point x="115" y="416" type="line"/>
      <point x="664" y="416" type="line"/>
      <point x="664" y="508" type="line"/>
      <point x="115" y="508" type="line"/>
    </contour>
    <contour>
      <point x="29" y="152" type="line"/>
      <point x="586" y="152" type="line"/>
      <point x="586" y="244" type="line"/>
      <point x="29" y="244" type="line"/>
    </contour>
    <component base="slash" xOffset="30"/>
    <component base="slash" xOffset="273"/>
  </outline>
</glyph>
<glyph name="dollar" format="2">
  <advance width="576"/>
  <unicode hex="0024"/>
  <outline>
    <contour>
      <point x="259" y="21" type="line"/>
      <point x="259" y="-175" type="line"/>
      <point x="319" y="-175" type="line"/>
      <point x="319" y="21" type="line"/>
    </contour>
    <contour>
      <point x="259" y="857" type="line"/>
      <point x="259" y="691" type="line"/>
      <point x="319" y="691" type="line"/>
      <point x="319" y="857" type="line"/>
    </contour>
    <component base="S"/>
  </outline>
</glyph>
<glyph name="percent" format="2">
  <advance width="651"/>
  <unicode hex="0025"/>
  <outline>
    <contour>
      <point x="78" y="42" type="line"/>
      <point x="153" y="0" type="line"/>
      <point x="567" y="655" type="line"/>
      <point x="493" y="700" type="line"/>
    </contour>
    <component base="degree" yOffset="-30"/>
    <component base="degree" xOffset="350" yOffset="-454"/>
  </outline>
</glyph>
<glyph name="ampersand" format="2">
  <advance width="742"/>
  <unicode hex="0026"/>
  <outline>
    <contour>
      <point x="239" y="-8" type="curve" smooth="yes"/>
      <point x="350" y="-8"/>
      <point x="445" y="53"/>
      <point x="525" y="158" type="curve" smooth="yes"/>
      <point x="618" y="280" type="line" smooth="yes"/>
      <point x="652" y="325"/>
      <point x="672" y="347"/>
      <point x="720" y="369" type="curve"/>
      <point x="720" y="396" type="line"/>
      <point x="517" y="396" type="line"/>
      <point x="517" y="369" type="line"/>
      <point x="571" y="361"/>
      <point x="587" y="325"/>
      <point x="551" y="280" type="curve" smooth="yes"/>
      <point x="463" y="170" type="line" smooth="yes"/>
      <point x="423" y="120"/>
      <point x="372" y="91"/>
      <point x="317" y="91" type="curve" smooth="yes"/>
      <point x="245" y="91"/>
      <point x="173" y="142"/>
      <point x="173" y="226" type="curve" smooth="yes"/>
      <point x="173" y="278"/>
      <point x="201" y="331"/>
      <point x="271" y="363" type="curve" smooth="yes"/>
      <point x="317" y="384" type="line" smooth="yes"/>
      <point x="399" y="421"/>
      <point x="521" y="480"/>
      <point x="521" y="576" type="curve" smooth="yes"/>
      <point x="521" y="647"/>
      <point x="454" y="708"/>
      <point x="354" y="708" type="curve" smooth="yes"/>
      <point x="241" y="708"/>
      <point x="142" y="631"/>
      <point x="142" y="532" type="curve" smooth="yes"/>
      <point x="142" y="484"/>
      <point x="166" y="436"/>
      <point x="200" y="398" type="curve" smooth="yes"/>
      <point x="552" y="0" type="line"/>
      <point x="732" y="0" type="line"/>
      <point x="732" y="26" type="line"/>
      <point x="695" y="34"/>
      <point x="660" y="60"/>
      <point x="601" y="129" type="curve" smooth="yes"/>
      <point x="337" y="438" type="line" smooth="yes"/>
      <point x="303" y="478"/>
      <point x="263" y="527"/>
      <point x="263" y="579" type="curve" smooth="yes"/>
      <point x="263" y="614"/>
      <point x="281" y="661"/>
      <point x="332" y="661" type="curve" smooth="yes"/>
      <point x="374" y="661"/>
      <point x="399" y="628"/>
      <point x="399" y="581" type="curve" smooth="yes"/>
      <point x="399" y="508"/>
      <point x="340" y="443"/>
      <point x="277" y="416" type="curve" smooth="yes"/>
      <point x="235" y="398" type="line" smooth="yes"/>
      <point x="132" y="354"/>
      <point x="35" y="295"/>
      <point x="35" y="175" type="curve" smooth="yes"/>
      <point x="35" y="66"/>
      <point x="117" y="-8"/>
    </contour>
  </outline>
</glyph>
<glyph name="quotesingle" format="2">
  <advance width="191"/>
  <unicode hex="0027"/>
  <outline>
    <contour>
      <point x="30" y="730" type="line"/>
      <point x="16" y="710" type="line"/>
      <point x="81" y="519" type="line"/>
      <point x="108" y="519" type="line"/>
      <point x="171" y="730" type="line"/>
    </contour>
  </outline>
</glyph>
<glyph name="parenleft" format="2">
  <advance width="315"/>
  <unicode hex="0028"/>
  <outline>
    <contour>
      <point x="266" y="-191" type="curve"/>
      <point x="291" y="-173" type="line"/>
      <point x="227" y="-36"/>
      <point x="174" y="117"/>
      <point x="174" y="276" type="curve" smooth="yes"/>
      <point x="174" y="435"/>
      <point x="226" y="588"/>
      <point x="290" y="725" type="curve"/>
      <point x="266" y="743" type="line"/>
      <point x="125" y="620"/>
      <point x="24" y="436"/>
      <point x="24" y="276" type="curve" smooth="yes"/>
      <point x="24" y="116"/>
      <point x="125" y="-68"/>
    </contour>
  </outline>
</glyph>
<glyph name="asterisk" format="2">
  <advance width="384"/>
  <unicode hex="002A"/>
  <outline>
    <contour>
      <point x="195" y="541" type="curve" smooth="yes"/>
      <point x="204" y="541"/>
      <point x="211" y="548"/>
      <point x="211" y="558" type="curve" smooth="yes"/>
      <point x="211" y="567"/>
      <point x="204" y="574"/>
      <point x="195" y="574" type="curve" smooth="yes"/>
      <point x="186" y="574"/>
      <point x="179" y="567"/>
      <point x="179" y="558" type="curve" smooth="yes"/>
      <point x="179" y="548"/>
      <point x="186" y="541"/>
    </contour>
    <component base="bout_asterisk" xScale="-0.8192" xyScale="0.5736" yScale="-0.8192" yxScale="-0.5736" xOffset="752" yOffset="836"/>
    <component base="bout_asterisk" xScale="0.2588" xyScale="0.9659" yScale="0.2588" yxScale="-0.9659" xOffset="655" yOffset="127"/>
    <component base="bout_asterisk" xScale="-0.8192" xyScale="-0.5736" yScale="-0.8192" yxScale="0.5736" xOffset="125" yOffset="1179"/>
    <component base="bout_asterisk" xOffset="-104" yOffset="11"/>
    <component base="bout_asterisk" xScale="0.2588" xyScale="-0.9659" yScale="0.2588" yxScale="0.9659" xOffset="-421" yOffset="704"/>
  </outline>
</glyph>
<glyph name="plus" format="2">
  <advance width="566"/>
  <unicode hex="002B"/>
  <outline>
    <contour>
      <point x="60" y="405" type="line"/>
      <point x="60" y="313" type="line"/>
      <point x="506" y="313" type="line"/>
      <point x="506" y="405" type="line"/>
    </contour>
    <contour>
      <point x="329" y="582" type="line"/>
      <point x="237" y="582" type="line"/>
      <point x="237" y="136" type="line"/>
      <point x="329" y="136" type="line"/>
    </contour>
  </outline>
</glyph>
<glyph name="comma" format="2">
  <advance width="248"/>
  <unicode hex="002C"/>
  <outline>
    <contour>
      <point x="30" y="-143" type="line"/>
      <point x="155" y="-81"/>
      <point x="208" y="-14"/>
      <point x="208" y="47" type="curve" smooth="yes"/>
      <point x="208" y="100"/>
      <point x="170" y="138"/>
      <point x="122" y="138" type="curve" smooth="yes"/>
      <point x="77" y="138"/>
      <point x="40" y="93"/>
      <point x="45" y="53" type="curve"/>
      <point x="89" y="50"/>
      <point x="111" y="32"/>
      <point x="111" y="-3" type="curve" smooth="yes"/>
      <point x="111" y="-39"/>
      <point x="89" y="-73"/>
      <point x="20" y="-125" type="curve"/>
    </contour>
  </outline>
</glyph>
<glyph name="hyphen" format="2">
  <advance width="322"/>
  <unicode hex="002D"/>
  <outline>
    <contour>
      <point x="42" y="236" type="line"/>
      <point x="275" y="236" type="line"/>
      <point x="292" y="298" type="line"/>
      <point x="280" y="321" type="line"/>
      <point x="50" y="321" type="line"/>
      <point x="30" y="260" type="line"/>
    </contour>
  </outline>
</glyph>
<glyph name="period" format="2">
  <advance width="229"/>
  <unicode hex="002E"/>
  <outline>
    <contour>
      <point x="110" y="-13" type="curve" smooth="yes"/>
      <point x="151" y="-13"/>
      <point x="189" y="24"/>
      <point x="189" y="71" type="curve" smooth="yes"/>
      <point x="189" y="108"/>
      <point x="158" y="141"/>
      <point x="119" y="141" type="curve" smooth="yes"/>
      <point x="77" y="141"/>
      <point x="40" y="107"/>
      <point x="40" y="59" type="curve" smooth="yes"/>
      <point x="40" y="16"/>
      <point x="76" y="-13"/>
    </contour>
  </outline>
</glyph>
<glyph name="zero" format="2">
  <advance width="587"/>
  <unicode hex="0030"/>
  <outline>
    <contour>
      <point x="295" y="-5" type="curve" smooth="yes"/>
      <point x="468" y="-5"/>
      <point x="557" y="155"/>
      <point x="557" y="353" type="curve" smooth="yes"/>
      <point x="557" y="550"/>
      <point x="468" y="710"/>
      <point x="295" y="710" type="curve" smooth="yes"/>
      <point x="120" y="710"/>
      <point x="30" y="550"/>
      <point x="30" y="353" type="curve" smooth="yes"/>
      <point x="30" y="155"/>
      <point x="120" y="-5"/>
    </contour>
    <contour>
      <point x="295" y="56" type="curve" smooth="yes"/>
      <point x="208" y="56"/>
      <point x="180" y="205"/>
      <point x="180" y="353" type="curve" smooth="yes"/>
      <point x="180" y="500"/>
      <point x="208" y="649"/>
      <point x="295" y="649" type="curve" smooth="yes"/>
      <point x="380" y="649"/>
      <point x="407" y="500"/>
      <point x="407" y="353" type="curve" smooth="yes"/>
      <point x="407" y="205"/>
      <point x="380" y="56"/>
    </contour>
  </outline>
</glyph>
<glyph name="one" format="2">
  <advance width="380"/>
  <unicode hex="0031"/>
  <outline>
    <contour>
      <point x="65" y="0" type="line"/>
      <point x="330" y="0" type="line"/>
      <point x="330" y="27" type="line"/>
      <point x="287" y="38"/>
      <point x="280" y="65"/>
      <point x="280" y="141" type="curve" smooth="yes"/>
      <point x="280" y="503" type="line" smooth="yes"/>
      <point x="280" y="568"/>
      <point x="281" y="629"/>
      <point x="285" y="694" type="curve"/>
      <point x="265" y="708" type="line"/>
      <point x="195" y="670"/>
      <point x="101" y="619"/>
      <point x="35" y="593" type="curve"/>
      <point x="35" y="566" type="line"/>
      <point x="78" y="566" type="line" smooth="yes"/>
      <point x="113" y="566"/>
      <point x="122" y="546"/>
      <point x="122" y="487" type="curve" smooth="yes"/>
      <point x="122" y="141" type="line" smooth="yes"/>
      <point x="122" y="55"/>
      <point x="119" y="39"/>
      <point x="65" y="27" type="curve"/>
    </contour>
  </outline>
</glyph>
<glyph name="two" format="2">
  <advance width="497"/>
  <unicode hex="0032"/>
  <outline>
    <contour>
      <point x="12" y="0" type="line"/>
      <point x="419" y="0" type="line"/>
      <point x="452" y="189" type="line"/>
      <point x="426" y="196" type="line"/>
      <point x="404" y="157"/>
      <point x="385" y="131"/>
      <point x="334" y="131" type="curve" smooth="yes"/>
      <point x="139" y="131" type="line"/>
      <point x="250" y="243" type="line" smooth="yes"/>
      <point x="350" y="343"/>
      <point x="443" y="436"/>
      <point x="443" y="532" type="curve" smooth="yes"/>
      <point x="443" y="631"/>
      <point x="367" y="708"/>
      <point x="237" y="708" type="curve" smooth="yes"/>
      <point x="115" y="708"/>
      <point x="41" y="615"/>
      <point x="22" y="534" type="curve"/>
      <point x="54" y="522" type="line"/>
      <point x="75" y="573"/>
      <point x="122" y="611"/>
      <point x="180" y="611" type="curve" smooth="yes"/>
      <point x="252" y="611"/>
      <point x="294" y="560"/>
      <point x="294" y="497" type="curve" smooth="yes"/>
      <point x="294" y="433"/>
      <point x="258" y="347"/>
      <point x="159" y="230" type="curve" smooth="yes"/>
      <point x="0" y="42" type="line"/>
    </contour>
  </outline>
</glyph>
<glyph name="three" format="2">
  <advance width="508"/>
  <unicode hex="0033"/>
  <outline>
    <contour>
      <point x="87" y="192" type="curve"/>
      <point x="7" y="81" type="line"/>
      <point x="44" y="28"/>
      <point x="133" y="-14"/>
      <point x="219" y="-14" type="curve" smooth="yes"/>
      <point x="338" y="-14"/>
      <point x="473" y="68"/>
      <point x="473" y="213" type="curve" smooth="yes"/>
      <point x="473" y="313"/>
      <point x="386" y="396"/>
      <point x="262" y="398" type="curve"/>
      <point x="361" y="431"/>
      <point x="431" y="477"/>
      <point x="431" y="562" type="curve" smooth="yes"/>
      <point x="431" y="642"/>
      <point x="349" y="707"/>
      <point x="251" y="707" type="curve" smooth="yes"/>
      <point x="147" y="707"/>
      <point x="80" y="646"/>
      <point x="49" y="569" type="curve"/>
      <point x="79" y="554" type="line"/>
      <point x="106" y="599"/>
      <point x="151" y="619"/>
      <point x="191" y="619" type="curve" smooth="yes"/>
      <point x="246" y="619"/>
      <point x="286" y="583"/>
      <point x="286" y="530" type="curve" smooth="yes"/>
      <point x="286" y="466"/>
      <point x="239" y="414"/>
      <point x="153" y="382" type="curve" smooth="yes"/>
      <point x="115" y="368" type="line"/>
      <point x="123" y="333" type="line"/>
      <point x="155" y="331" type="line" smooth="yes"/>
      <point x="273" y="324"/>
      <point x="343" y="235"/>
      <point x="343" y="147" type="curve" smooth="yes"/>
      <point x="343" y="76"/>
      <point x="310" y="46"/>
      <point x="266" y="46" type="curve" smooth="yes"/>
      <point x="191" y="46"/>
      <point x="117" y="139"/>
    </contour>
  </outline>
</glyph>
<glyph name="four" format="2">
  <advance width="585"/>
  <unicode hex="0034"/>
  <outline>
    <contour>
      <point x="229" y="0" type="line"/>
      <point x="494" y="0" type="line"/>
      <point x="494" y="27" type="line"/>
      <point x="461" y="38"/>
      <point x="443" y="55"/>
      <point x="443" y="141" type="curve" smooth="yes"/>
      <point x="443" y="709" type="line"/>
      <point x="383" y="709" type="line"/>
      <point x="0" y="240" type="line"/>
      <point x="31" y="174" type="line"/>
      <point x="539" y="174" type="line"/>
      <point x="555" y="278" type="line"/>
      <point x="66" y="278" type="line"/>
      <point x="73" y="249" type="line"/>
      <point x="339" y="577" type="line"/>
      <point x="295" y="570" type="line"/>
      <point x="295" y="141" type="line" smooth="yes"/>
      <point x="295" y="55"/>
      <point x="276" y="39"/>
      <point x="229" y="27" type="curve"/>
    </contour>
  </outline>
</glyph>
<glyph name="five" format="2">
  <advance width="530"/>
  <unicode hex="0035"/>
  <outline>
    <contour>
      <point x="480" y="219" type="curve" smooth="yes"/>
      <point x="480" y="320"/>
      <point x="413" y="440"/>
      <point x="160" y="465" type="curve"/>
      <point x="177" y="569" type="line"/>
      <point x="440" y="569" type="line"/>
      <point x="458" y="700" type="line"/>
      <point x="145" y="700" type="line"/>
      <point x="85" y="335" type="line"/>
      <point x="322" y="310"/>
      <point x="378" y="224"/>
      <point x="378" y="150" type="curve" smooth="yes"/>
      <point x="378" y="83"/>
      <point x="332" y="52"/>
      <point x="285" y="52" type="curve" smooth="yes"/>
      <point x="205" y="52"/>
      <point x="126" y="138"/>
      <point x="96" y="192" type="curve"/>
      <point x="16" y="81" type="line"/>
      <point x="53" y="30"/>
      <point x="138" y="-14"/>
      <point x="226" y="-14" type="curve" smooth="yes"/>
      <point x="359" y="-14"/>
      <point x="480" y="80"/>
    </contour>
  </outline>
</glyph>
<glyph name="six" format="2">
  <advance width="608"/>
  <unicode hex="0036"/>
  <outline>
    <contour>
      <point x="316" y="-14" type="curve" smooth="yes"/>
      <point x="468" y="-14"/>
      <point x="568" y="94"/>
      <point x="568" y="234" type="curve" smooth="yes"/>
      <point x="568" y="354"/>
      <point x="483" y="444"/>
      <point x="366" y="444" type="curve" smooth="yes"/>
      <point x="317" y="444"/>
      <point x="264" y="419"/>
      <point x="235" y="393" type="curve"/>
      <point x="248" y="366" type="line"/>
      <point x="263" y="371"/>
      <point x="288" y="377"/>
      <point x="311" y="377" type="curve" smooth="yes"/>
      <point x="391" y="377"/>
      <point x="431" y="277"/>
      <point x="431" y="193" type="curve" smooth="yes"/>
      <point x="431" y="108"/>
      <point x="403" y="37"/>
      <point x="335" y="37" type="curve" smooth="yes"/>
      <point x="252" y="37"/>
      <point x="190" y="144"/>
      <point x="190" y="287" type="curve" smooth="yes"/>
      <point x="190" y="459"/>
      <point x="259" y="570"/>
      <point x="469" y="681" type="curve"/>
      <point x="457" y="714" type="line"/>
      <point x="199" y="666"/>
      <point x="45" y="492"/>
      <point x="45" y="283" type="curve" smooth="yes"/>
      <point x="45" y="107"/>
      <point x="144" y="-14"/>
    </contour>
  </outline>
</glyph>
<glyph name="seven" format="2">
  <advance width="511"/>
  <unicode hex="0037"/>
  <outline>
    <contour>
      <point x="77" y="1" type="line"/>
      <point x="231" y="1" type="line"/>
      <point x="496" y="677" type="line"/>
      <point x="481" y="700" type="line"/>
      <point x="52" y="700" type="line"/>
      <point x="25" y="516" type="line"/>
      <point x="53" y="509" type="line"/>
      <point x="80" y="554"/>
      <point x="108" y="577"/>
      <point x="163" y="577" type="curve" smooth="yes"/>
      <point x="398" y="577" type="line"/>
      <point x="67" y="29" type="line"/>
    </contour>
  </outline>
</glyph>
<glyph name="eight" format="2">
  <advance width="571"/>
  <unicode hex="0038"/>
  <outline>
    <contour>
      <point x="279" y="-14" type="curve" smooth="yes"/>
      <point x="405" y="-14"/>
      <point x="516" y="67"/>
      <point x="516" y="184" type="curve" smooth="yes"/>
      <point x="516" y="241"/>
      <point x="486" y="288"/>
      <point x="417" y="340" type="curve" smooth="yes"/>
      <point x="246" y="470" type="line" smooth="yes"/>
      <point x="206" y="500"/>
      <point x="192" y="540"/>
      <point x="192" y="570" type="curve" smooth="yes"/>
      <point x="192" y="623"/>
      <point x="231" y="659"/>
      <point x="282" y="659" type="curve" smooth="yes"/>
      <point x="346" y="659"/>
      <point x="386" y="612"/>
      <point x="386" y="548" type="curve" smooth="yes"/>
      <point x="386" y="481"/>
      <point x="344" y="421"/>
      <point x="299" y="390" type="curve"/>
      <point x="327" y="362" type="line"/>
      <point x="401" y="388"/>
      <point x="495" y="450"/>
      <point x="495" y="552" type="curve" smooth="yes"/>
      <point x="495" y="644"/>
      <point x="403" y="713"/>
      <point x="295" y="713" type="curve" smooth="yes"/>
      <point x="177" y="713"/>
      <point x="79" y="617"/>
      <point x="79" y="522" type="curve" smooth="yes"/>
      <point x="79" y="452"/>
      <point x="118" y="408"/>
      <point x="169" y="369" type="curve" smooth="yes"/>
      <point x="312" y="259" type="line" smooth="yes"/>
      <point x="362" y="221"/>
      <point x="407" y="175"/>
      <point x="407" y="128" type="curve" smooth="yes"/>
      <point x="407" y="70"/>
      <point x="361" y="41"/>
      <point x="313" y="41" type="curve" smooth="yes"/>
      <point x="235" y="41"/>
      <point x="177" y="103"/>
      <point x="177" y="176" type="curve" smooth="yes"/>
      <point x="177" y="262"/>
      <point x="223" y="313"/>
      <point x="286" y="338" type="curve"/>
      <point x="261" y="370" type="line"/>
      <point x="186" y="346"/>
      <point x="60" y="282"/>
      <point x="60" y="158" type="curve" smooth="yes"/>
      <point x="60" y="48"/>
      <point x="154" y="-14"/>
    </contour>
  </outline>
</glyph>
<glyph name="equal" format="2">
  <advance width="566"/>
  <unicode hex="003D"/>
  <outline>
    <contour>
      <point x="60" y="480" type="line"/>
      <point x="60" y="388" type="line"/>
      <point x="506" y="388" type="line"/>
      <point x="506" y="480" type="line"/>
    </contour>
    <contour>
      <point x="60" y="310" type="line"/>
      <point x="60" y="218" type="line"/>
      <point x="506" y="218" type="line"/>
      <point x="506" y="310" type="line"/>
    </contour>
  </outline>
</glyph>
<glyph name="greater" format="2">
  <advance width="483"/>
  <unicode hex="003E"/>
  <outline>
    <contour>
      <point x="25" y="512" type="line"/>
      <point x="69" y="599" type="line"/>
      <point x="443" y="386" type="line"/>
      <point x="443" y="315" type="line"/>
      <point x="69" y="102" type="line"/>
      <point x="25" y="189" type="line"/>
      <point x="322" y="350" type="line"/>
    </contour>
  </outline>
</glyph>
<glyph name="question" format="2">
  <advance width="440"/>
  <unicode hex="003F"/>
  <outline>
    <contour>
      <point x="166" y="231" type="line"/>
      <point x="193" y="231" type="line"/>
      <point x="201" y="286" type="line" smooth="yes"/>
      <point x="204" y="307"/>
      <point x="211" y="314"/>
      <point x="225" y="321" type="curve" smooth="yes"/>
      <point x="314" y="367" type="line" smooth="yes"/>
      <point x="395" y="409"/>
      <point x="425" y="464"/>
      <point x="425" y="522" type="curve" smooth="yes"/>
      <point x="425" y="635"/>
      <point x="334" y="714"/>
      <point x="227" y="714" type="curve" smooth="yes"/>
      <point x="166" y="714"/>
      <point x="99" y="698"/>
      <point x="10" y="636" type="curve"/>
      <point x="85" y="495" type="line"/>
      <point x="136" y="574"/>
      <point x="198" y="648"/>
      <point x="258" y="648" type="curve" smooth="yes"/>
      <point x="304" y="648"/>
      <point x="330" y="618"/>
      <point x="330" y="581" type="curve" smooth="yes"/>
      <point x="330" y="523"/>
      <point x="284" y="493"/>
      <point x="247" y="471" type="curve" smooth="yes"/>
      <point x="170" y="424" type="line" smooth="yes"/>
      <point x="147" y="410"/>
      <point x="137" y="390"/>
      <point x="141" y="369" type="curve" smooth="yes"/>
    </contour>
    <component base="period" xOffset="63"/>
  </outline>
</glyph>
<glyph name="at" format="2">
  <advance width="774"/>
  <unicode hex="0040"/>
  <outline>
    <contour>
      <point x="366" y="-130" type="curve" smooth="yes"/>
      <point x="453" y="-130"/>
      <point x="542" y="-91"/>
      <point x="620" y="-34" type="curve"/>
      <point x="605" y="-6" type="line"/>
      <point x="538" y="-37"/>
      <point x="473" y="-54"/>
      <point x="414" y="-54" type="curve" smooth="yes"/>
      <point x="247" y="-54"/>
      <point x="130" y="73"/>
      <point x="130" y="237" type="curve" smooth="yes"/>
      <point x="130" y="405"/>
      <point x="262" y="524"/>
      <point x="408" y="524" type="curve" smooth="yes"/>
      <point x="561" y="524"/>
      <point x="654" y="400"/>
      <point x="654" y="260" type="curve" smooth="yes"/>
      <point x="654" y="150"/>
      <point x="597" y="103"/>
      <point x="571" y="103" type="curve" smooth="yes"/>
      <point x="554" y="103"/>
      <point x="548" y="117"/>
      <point x="548" y="139" type="curve" smooth="yes"/>
      <point x="548" y="341" type="line" smooth="yes"/>
      <point x="548" y="405"/>
      <point x="500" y="447"/>
      <point x="428" y="447" type="curve" smooth="yes"/>
      <point x="342" y="447"/>
      <point x="227" y="387"/>
      <point x="227" y="330" type="curve" smooth="yes"/>
      <point x="227" y="311"/>
      <point x="238" y="291"/>
      <point x="260" y="277" type="curve"/>
      <point x="361" y="304" type="line"/>
      <point x="348" y="317"/>
      <point x="337" y="337"/>
      <point x="337" y="355" type="curve" smooth="yes"/>
      <point x="337" y="377"/>
      <point x="352" y="398"/>
      <point x="384" y="398" type="curve" smooth="yes"/>
      <point x="430" y="398"/>
      <point x="429" y="355"/>
      <point x="429" y="304" type="curve" smooth="yes"/>
      <point x="429" y="107" type="line" smooth="yes"/>
      <point x="429" y="65"/>
      <point x="473" y="38"/>
      <point x="518" y="38" type="curve" smooth="yes"/>
      <point x="608" y="38"/>
      <point x="744" y="136"/>
      <point x="744" y="310" type="curve" smooth="yes"/>
      <point x="744" y="481"/>
      <point x="612" y="602"/>
      <point x="449" y="602" type="curve" smooth="yes"/>
      <point x="241" y="602"/>
      <point x="35" y="410"/>
      <point x="35" y="191" type="curve" smooth="yes"/>
      <point x="35" y="2"/>
      <point x="180" y="-130"/>
    </contour>
    <contour>
      <point x="330" y="45" type="curve" smooth="yes"/>
      <point x="387" y="45"/>
      <point x="435" y="78"/>
      <point x="464" y="105" type="curve"/>
      <point x="461" y="145" type="line"/>
      <point x="442" y="125"/>
      <point x="420" y="103"/>
      <point x="395" y="103" type="curve" smooth="yes"/>
      <point x="369" y="103"/>
      <point x="351" y="126"/>
      <point x="351" y="150" type="curve" smooth="yes"/>
      <point x="351" y="182"/>
      <point x="378" y="204"/>
      <point x="417" y="216" type="curve" smooth="yes"/>
      <point x="462" y="230" type="line"/>
      <point x="462" y="266" type="line"/>
      <point x="351" y="235" type="line" smooth="yes"/>
      <point x="290" y="218"/>
      <point x="226" y="190"/>
      <point x="226" y="130" type="curve" smooth="yes"/>
      <point x="226" y="80"/>
      <point x="271" y="45"/>
    </contour>
  </outline>
</glyph>
<glyph name="A" format="2">
  <advance width="645"/>
  <unicode hex="0041"/>
  <anchor x="282" y="0" name="bottom"/>
  <anchor x="316" y="700" name="top"/>
  <outline>
    <contour>
      <point x="-35" y="0" type="line"/>
      <point x="214" y="0" type="line"/>
      <point x="214" y="27" type="line"/>
      <point x="137" y="39"/>
      <point x="108" y="76"/>
      <point x="132" y="140" type="curve" smooth="yes"/>
      <point x="292" y="574" type="line"/>
      <point x="253" y="575" type="line"/>
      <point x="407" y="151" type="line" smooth="yes"/>
      <point x="432" y="81"/>
      <point x="409" y="31"/>
      <point x="355" y="27" type="curve"/>
      <point x="355" y="0" type="line"/>
      <point x="660" y="0" type="line"/>
      <point x="660" y="27" type="line"/>
      <point x="625" y="39"/>
      <point x="599" y="71"/>
      <point x="574" y="137" type="curve" smooth="yes"/>
      <point x="364" y="700" type="line"/>
      <point x="279" y="700" type="line"/>
      <point x="56" y="129" type="line" smooth="yes"/>
      <point x="35" y="76"/>
      <point x="12" y="40"/>
      <point x="-35" y="27" type="curve"/>
    </contour>
    <contour>
      <point x="144" y="215" type="line"/>
      <point x="412" y="215" type="line"/>
      <point x="412" y="268" type="line"/>
      <point x="144" y="268" type="line"/>
    </contour>
  </outline>
</glyph>
<glyph name="B" format="2">
  <advance width="647"/>
  <unicode hex="0042"/>
  <outline>
    <contour>
      <point x="40" y="0" type="line"/>
      <point x="320" y="0" type="line" smooth="yes"/>
      <point x="468" y="0"/>
      <point x="612" y="66"/>
      <point x="612" y="205" type="curve" smooth="yes"/>
      <point x="612" y="302"/>
      <point x="503" y="365"/>
      <point x="409" y="380" type="curve"/>
      <point x="486" y="401"/>
      <point x="566" y="465"/>
      <point x="566" y="533" type="curve" smooth="yes"/>
      <point x="566" y="630"/>
      <point x="459" y="700"/>
      <point x="261" y="700" type="curve" smooth="yes"/>
      <point x="40" y="700" type="line"/>
      <point x="40" y="674" type="line"/>
      <point x="87" y="663"/>
      <point x="88" y="643"/>
      <point x="88" y="557" type="curve" smooth="yes"/>
      <point x="88" y="143" type="line" smooth="yes"/>
      <point x="88" y="57"/>
      <point x="87" y="38"/>
      <point x="40" y="27" type="curve"/>
    </contour>
    <contour>
      <point x="339" y="47" type="curve" smooth="yes"/>
      <point x="285" y="47"/>
      <point x="246" y="68"/>
      <point x="246" y="142" type="curve" smooth="yes"/>
      <point x="246" y="345" type="line"/>
      <point x="268" y="345" type="line" smooth="yes"/>
      <point x="391" y="345"/>
      <point x="455" y="278"/>
      <point x="455" y="188" type="curve" smooth="yes"/>
      <point x="455" y="106"/>
      <point x="402" y="47"/>
    </contour>
    <contour>
      <point x="246" y="398" type="line"/>
      <point x="246" y="647" type="line"/>
      <point x="268" y="647" type="line" smooth="yes"/>
      <point x="379" y="647"/>
      <point x="410" y="580"/>
      <point x="410" y="525" type="curve" smooth="yes"/>
      <point x="410" y="448"/>
      <point x="363" y="398"/>
      <point x="268" y="398" type="curve" smooth="yes"/>
    </contour>
  </outline>
</glyph>
<glyph name="C" format="2">
  <advance width="716"/>
  <unicode hex="0043"/>
  <anchor x="401" y="0" name="bottom"/>
  <outline>
    <contour>
      <point x="424" y="-14" type="curve" smooth="yes"/>
      <point x="508" y="-14"/>
      <point x="621" y="18"/>
      <point x="682" y="47" type="curve"/>
      <point x="686" y="222" type="line"/>
      <point x="663" y="226" type="line"/>
      <point x="600" y="121"/>
      <point x="531" y="43"/>
      <point x="459" y="43" type="curve" smooth="yes"/>
      <point x="329" y="43"/>
      <point x="222" y="217"/>
      <point x="222" y="389" type="curve" smooth="yes"/>
      <point x="222" y="530"/>
      <point x="281" y="658"/>
      <point x="382" y="658" type="curve" smooth="yes"/>
      <point x="467" y="658"/>
      <point x="545" y="591"/>
      <point x="635" y="480" type="curve"/>
      <point x="658" y="488" type="line"/>
      <point x="653" y="664" type="line"/>
      <point x="592" y="693"/>
      <point x="490" y="714"/>
      <point x="406" y="714" type="curve" smooth="yes"/>
      <point x="207" y="714"/>
      <point x="35" y="558"/>
      <point x="35" y="349" type="curve" smooth="yes"/>
      <point x="35" y="140"/>
      <point x="214" y="-14"/>
    </contour>
  </outline>
</glyph>
<glyph name="D" format="2">
  <advance width="780"/>
  <unicode hex="0044"/>
  <outline>
    <contour>
      <point x="40" y="0" type="line"/>
      <point x="351" y="0" type="line" smooth="yes"/>
      <point x="588" y="0"/>
      <point x="745" y="131"/>
      <point x="745" y="367" type="curve" smooth="yes"/>
      <point x="745" y="574"/>
      <point x="585" y="700"/>
      <point x="304" y="700" type="curve" smooth="yes"/>
      <point x="40" y="700" type="line"/>
      <point x="40" y="673" type="line"/>
      <point x="87" y="662"/>
      <point x="108" y="643"/>
      <point x="108" y="557" type="curve" smooth="yes"/>
      <point x="108" y="143" type="line" smooth="yes"/>
      <point x="108" y="57"/>
      <point x="87" y="38"/>
      <point x="40" y="27" type="curve"/>
    </contour>
    <contour>
      <point x="375" y="53" type="curve" smooth="yes"/>
      <point x="305" y="53"/>
      <point x="266" y="79"/>
      <point x="266" y="147" type="curve" smooth="yes"/>
      <point x="266" y="647" type="line"/>
      <point x="313" y="647" type="line" smooth="yes"/>
      <point x="485" y="647"/>
      <point x="583" y="529"/>
      <point x="583" y="344" type="curve" smooth="yes"/>
      <point x="583" y="176"/>
      <point x="501" y="53"/>
    </contour>
  </outline>
</glyph>
<glyph name="E" format="2">
  <advance width="622"/>
  <unicode hex="0045"/>
  <anchor x="329" y="0" name="bottom"/>
  <anchor x="317" y="700" name="top"/>
  <outline>
    <contour>
      <point x="98" y="49" type="line"/>
      <point x="256" y="49" type="line"/>
      <point x="256" y="700" type="line"/>
      <point x="40" y="700" type="line"/>
      <point x="40" y="675" type="line"/>
      <point x="87" y="664"/>
      <point x="98" y="645"/>
      <point x="98" y="559" type="curve" smooth="yes"/>
    </contour>
    <contour>
      <point x="40" y="0" type="line"/>
      <point x="568" y="0" type="line"/>
      <point x="592" y="182" type="line"/>
      <point x="566" y="186" type="line"/>
      <point x="535" y="114"/>
      <point x="462" y="53"/>
      <point x="370" y="53" type="curve" smooth="yes"/>
      <point x="265" y="53"/>
      <point x="256" y="95"/>
      <point x="256" y="141" type="curve"/>
      <point x="98" y="141" type="line"/>
      <point x="98" y="55"/>
      <point x="87" y="36"/>
      <point x="40" y="25" type="curve"/>
    </contour>
    <contour>
      <point x="419" y="227" type="curve"/>
      <point x="446" y="227" type="line"/>
      <point x="446" y="495" type="line"/>
      <point x="419" y="495" type="line"/>
      <point x="411" y="430"/>
      <point x="369" y="388"/>
      <point x="293" y="388" type="curve" smooth="yes"/>
      <point x="221" y="388" type="line"/>
      <point x="221" y="335" type="line"/>
      <point x="293" y="335" type="line" smooth="yes"/>
      <point x="369" y="335"/>
      <point x="411" y="294"/>
    </contour>
    <contour>
      <point x="547" y="503" type="curve"/>
      <point x="573" y="510" type="line"/>
      <point x="545" y="700" type="line"/>
      <point x="191" y="700" type="line"/>
      <point x="191" y="647" type="line"/>
      <point x="345" y="647" type="line" smooth="yes"/>
      <point x="436" y="647"/>
      <point x="499" y="594"/>
    </contour>
  </outline>
</glyph>
<glyph name="F" format="2">
  <advance width="570"/>
  <unicode hex="0046"/>
  <anchor x="208" y="0" name="bottom"/>
  <outline>
    <contour>
      <point x="96" y="49" type="line"/>
      <point x="254" y="49" type="line"/>
      <point x="254" y="700" type="line"/>
      <point x="40" y="700" type="line"/>
      <point x="40" y="675" type="line"/>
      <point x="84" y="668"/>
      <point x="96" y="645"/>
      <point x="96" y="559" type="curve" smooth="yes"/>
    </contour>
    <contour>
      <point x="40" y="0" type="line"/>
      <point x="353" y="0" type="line"/>
      <point x="353" y="27" type="line"/>
      <point x="288" y="39"/>
      <point x="254" y="54"/>
      <point x="254" y="141" type="curve"/>
      <point x="96" y="141" type="line"/>
      <point x="96" y="55"/>
      <point x="87" y="33"/>
      <point x="40" y="27" type="curve"/>
    </contour>
    <contour>
      <point x="406" y="216" type="curve"/>
      <point x="433" y="216" type="line"/>
      <point x="433" y="494" type="line"/>
      <point x="406" y="494" type="line"/>
      <point x="398" y="437"/>
      <point x="366" y="387"/>
      <point x="280" y="387" type="curve" smooth="yes"/>
      <point x="195" y="387" type="line"/>
      <point x="195" y="334" type="line"/>
      <point x="280" y="334" type="line" smooth="yes"/>
      <point x="366" y="334"/>
      <point x="396" y="280"/>
    </contour>
    <contour>
      <point x="534" y="504" type="curve"/>
      <point x="560" y="511" type="line"/>
      <point x="531" y="700" type="line"/>
      <point x="177" y="700" type="line"/>
      <point x="177" y="647" type="line"/>
      <point x="312" y="647" type="line" smooth="yes"/>
      <point x="422" y="647"/>
      <point x="487" y="596"/>
    </contour>
  </outline>
</glyph>
<glyph name="G" format="2">
  <advance width="785"/>
  <unicode hex="0047"/>
  <outline>
    <contour>
      <point x="427" y="-14" type="curve" smooth="yes"/>
      <point x="527" y="-14"/>
      <point x="592" y="10"/>
      <point x="628" y="25" type="curve"/>
      <point x="683" y="-12" type="line"/>
      <point x="708" y="-8" type="line"/>
      <point x="708" y="220" type="line" smooth="yes"/>
      <point x="708" y="305"/>
      <point x="722" y="324"/>
      <point x="755" y="335" type="curve"/>
      <point x="755" y="362" type="line"/>
      <point x="434" y="362" type="line"/>
      <point x="434" y="335" type="line"/>
      <point x="505" y="329"/>
      <point x="550" y="304"/>
      <point x="550" y="219" type="curve" smooth="yes"/>
      <point x="550" y="73" type="line"/>
      <point x="530" y="55"/>
      <point x="498" y="43"/>
      <point x="469" y="43" type="curve" smooth="yes"/>
      <point x="331" y="43"/>
      <point x="222" y="210"/>
      <point x="222" y="384" type="curve" smooth="yes"/>
      <point x="222" y="535"/>
      <point x="281" y="663"/>
      <point x="392" y="663" type="curve" smooth="yes"/>
      <point x="484" y="663"/>
      <point x="570" y="576"/>
      <point x="649" y="478" type="curve"/>
      <point x="672" y="486" type="line"/>
      <point x="663" y="664" type="line"/>
      <point x="602" y="693"/>
      <point x="500" y="714"/>
      <point x="416" y="714" type="curve" smooth="yes"/>
      <point x="203" y="714"/>
      <point x="35" y="550"/>
      <point x="35" y="351" type="curve" smooth="yes"/>
      <point x="35" y="152"/>
      <point x="209" y="-14"/>
    </contour>
  </outline>
</glyph>
<glyph name="H" format="2">
  <advance width="819"/>
  <unicode hex="0048"/>
  <anchor x="414" y="0" name="bottom"/>
  <outline>
    <contour>
      <point x="554" y="51" type="line"/>
      <point x="712" y="51" type="line"/>
      <point x="712" y="623" type="line"/>
      <point x="554" y="623" type="line"/>
    </contour>
    <contour>
      <point x="40" y="0" type="line"/>
      <point x="343" y="0" type="line"/>
      <point x="343" y="27" type="line"/>
      <point x="290" y="34"/>
      <point x="266" y="57"/>
      <point x="266" y="141" type="curve"/>
      <point x="108" y="141" type="line"/>
      <point x="108" y="57"/>
      <point x="87" y="38"/>
      <point x="40" y="27" type="curve"/>
    </contour>
    <contour>
      <point x="108" y="51" type="line"/>
      <point x="266" y="51" type="line"/>
      <point x="266" y="623" type="line"/>
      <point x="108" y="623" type="line"/>
    </contour>
    <contour>
      <point x="486" y="0" type="line"/>
      <point x="779" y="0" type="line"/>
      <point x="779" y="27" type="line"/>
      <point x="736" y="38"/>
      <point x="712" y="57"/>
      <point x="712" y="141" type="curve"/>
      <point x="554" y="141" type="line"/>
      <point x="554" y="57"/>
      <point x="543" y="34"/>
      <point x="486" y="27" type="curve"/>
    </contour>
    <contour>
      <point x="193" y="332" type="line"/>
      <point x="655" y="332" type="line"/>
      <point x="655" y="385" type="line"/>
      <point x="193" y="385" type="line"/>
    </contour>
    <contour>
      <point x="108" y="557" type="curve"/>
      <point x="266" y="557" type="line"/>
      <point x="266" y="643"/>
      <point x="290" y="666"/>
      <point x="343" y="673" type="curve"/>
      <point x="343" y="700" type="line"/>
      <point x="40" y="700" type="line"/>
      <point x="40" y="673" type="line"/>
      <point x="87" y="662"/>
      <point x="108" y="643"/>
    </contour>
    <contour>
      <point x="554" y="557" type="curve"/>
      <point x="712" y="557" type="line"/>
      <point x="712" y="643"/>
      <point x="736" y="662"/>
      <point x="779" y="673" type="curve"/>
      <point x="779" y="700" type="line"/>
      <point x="486" y="700" type="line"/>
      <point x="486" y="673" type="line"/>
      <point x="543" y="666"/>
      <point x="554" y="643"/>
    </contour>
  </outline>
</glyph>
<glyph name="I" format="2">
  <advance width="353"/>
  <unicode hex="0049"/>
  <anchor x="176" y="700" name="top"/>
  <outline>
    <contour>
      <point x="98" y="51" type="line"/>
      <point x="256" y="51" type="line"/>
      <point x="256" y="623" type="line"/>
      <point x="98" y="623" type="line"/>
    </contour>
    <contour>
      <point x="40" y="0" type="line"/>
      <point x="313" y="0" type="line"/>
      <point x="313" y="27" type="line"/>
      <point x="270" y="34"/>
      <point x="256" y="57"/>
      <point x="256" y="143" type="curve"/>
      <point x="98" y="143" type="line"/>
      <point x="98" y="57"/>
      <point x="87" y="34"/>
      <point x="40" y="27" type="curve"/>
    </contour>
    <contour>
      <point x="98" y="557" type="curve"/>
      <point x="256" y="557" type="line"/>
      <point x="256" y="643"/>
      <point x="270" y="666"/>
      <point x="313" y="672" type="curve"/>
      <point x="313" y="700" type="line"/>
      <point x="40" y="700" type="line"/>
      <point x="40" y="672" type="line"/>
      <point x="87" y="666"/>
      <point x="98" y="643"/>
    </contour>
  </outline>
</glyph>
<glyph name="J" format="2">
  <advance width="339"/>
  <unicode hex="004A"/>
  <outline>
    <contour>
      <point x="13" y="-255" type="line"/>
      <point x="116" y="-188"/>
      <point x="242" y="-57"/>
      <point x="242" y="82" type="curve" smooth="yes"/>
      <point x="242" y="623" type="line"/>
      <point x="84" y="623" type="line"/>
      <point x="84" y="76" type="line" smooth="yes"/>
      <point x="84" y="-46"/>
      <point x="81" y="-132"/>
      <point x="0" y="-231" type="curve"/>
    </contour>
    <contour>
      <point x="84" y="557" type="curve"/>
      <point x="242" y="557" type="line"/>
      <point x="242" y="643"/>
      <point x="256" y="666"/>
      <point x="299" y="673" type="curve"/>
      <point x="299" y="700" type="line"/>
      <point x="16" y="700" type="line"/>
      <point x="16" y="673" type="line"/>
      <point x="74" y="667"/>
      <point x="84" y="643"/>
    </contour>
  </outline>
</glyph>
<glyph name="K" format="2">
  <advance width="715"/>
  <unicode hex="004B"/>
  <outline>
    <contour>
      <point x="549" y="0" type="line"/>
      <point x="755" y="0" type="line"/>
      <point x="755" y="26" type="line"/>
      <point x="740" y="31" type="line" smooth="yes"/>
      <point x="710" y="41"/>
      <point x="630" y="142"/>
      <point x="552" y="244" type="curve" smooth="yes"/>
      <point x="410" y="429" type="line"/>
      <point x="332" y="322" type="line"/>
      <point x="535" y="558" type="line" smooth="yes"/>
      <point x="605" y="640"/>
      <point x="661" y="668"/>
      <point x="686" y="671" type="curve"/>
      <point x="686" y="700" type="line"/>
      <point x="444" y="700" type="line"/>
      <point x="444" y="672" type="line"/>
      <point x="496" y="670"/>
      <point x="524" y="636"/>
      <point x="485" y="590" type="curve" smooth="yes"/>
      <point x="283" y="348" type="line"/>
    </contour>
    <contour>
      <point x="40" y="0" type="line"/>
      <point x="353" y="0" type="line"/>
      <point x="353" y="27" type="line"/>
      <point x="285" y="34"/>
      <point x="256" y="55"/>
      <point x="256" y="141" type="curve" smooth="yes"/>
      <point x="256" y="557" type="line" smooth="yes"/>
      <point x="256" y="643"/>
      <point x="270" y="662"/>
      <point x="313" y="673" type="curve"/>
      <point x="313" y="700" type="line"/>
      <point x="40" y="700" type="line"/>
      <point x="40" y="673" type="line"/>
      <point x="87" y="662"/>
      <point x="98" y="643"/>
      <point x="98" y="557" type="curve" smooth="yes"/>
      <point x="98" y="141" type="line" smooth="yes"/>
      <point x="98" y="55"/>
      <point x="87" y="38"/>
      <point x="40" y="27" type="curve"/>
    </contour>
  </outline>
</glyph>
<glyph name="L" format="2">
  <advance width="590"/>
  <unicode hex="004C"/>
  <anchor x="312" y="0" name="bottom"/>
  <outline>
    <contour>
      <point x="40" y="0" type="line"/>
      <point x="556" y="0" type="line"/>
      <point x="580" y="229" type="line"/>
      <point x="554" y="233" type="line"/>
      <point x="517" y="114"/>
      <point x="446" y="53"/>
      <point x="336" y="53" type="curve" smooth="yes"/>
      <point x="273" y="53"/>
      <point x="256" y="85"/>
      <point x="256" y="131" type="curve" smooth="yes"/>
      <point x="256" y="557" type="line" smooth="yes"/>
      <point x="256" y="643"/>
      <point x="280" y="662"/>
      <point x="323" y="673" type="curve"/>
      <point x="323" y="700" type="line"/>
      <point x="40" y="700" type="line"/>
      <point x="40" y="673" type="line"/>
      <point x="87" y="662"/>
      <point x="98" y="643"/>
      <point x="98" y="557" type="curve" smooth="yes"/>
      <point x="98" y="143" type="line" smooth="yes"/>
      <point x="98" y="57"/>
      <point x="87" y="38"/>
      <point x="40" y="27" type="curve"/>
    </contour>
  </outline>
</glyph>
<glyph name="M" format="2">
  <advance width="944"/>
  <unicode hex="004D"/>
  <outline>
    <contour>
      <point x="25" y="0" type="line"/>
      <point x="277" y="0" type="line"/>
      <point x="277" y="27" type="line"/>
      <point x="208" y="33"/>
      <point x="156" y="64"/>
      <point x="164" y="148" type="curve" smooth="yes"/>
      <point x="203" y="572" type="line"/>
      <point x="202" y="572" type="line"/>
      <point x="415" y="53" type="line"/>
      <point x="469" y="53" type="line"/>
      <point x="687" y="617" type="line"/>
      <point x="655" y="700" type="line"/>
      <point x="490" y="251" type="line"/>
      <point x="492" y="251" type="line"/>
      <point x="311" y="700" type="line"/>
      <point x="69" y="700" type="line"/>
      <point x="69" y="674" type="line"/>
      <point x="111" y="668"/>
      <point x="148" y="641"/>
      <point x="141" y="568" type="curve" smooth="yes"/>
      <point x="101" y="154" type="line" smooth="yes"/>
      <point x="93" y="68"/>
      <point x="73" y="47"/>
      <point x="25" y="27" type="curve"/>
    </contour>
    <contour>
      <point x="637" y="0" type="line"/>
      <point x="924" y="0" type="line"/>
      <point x="924" y="27" type="line"/>
      <point x="887" y="36"/>
      <point x="873" y="55"/>
      <point x="863" y="141" type="curve" smooth="yes"/>
      <point x="816" y="557" type="line" smooth="yes"/>
      <point x="807" y="633"/>
      <point x="826" y="662"/>
      <point x="869" y="673" type="curve"/>
      <point x="869" y="700" type="line"/>
      <point x="654" y="700" type="line"/>
      <point x="705" y="141" type="line" smooth="yes"/>
      <point x="713" y="55"/>
      <point x="680" y="37"/>
      <point x="637" y="27" type="curve"/>
    </contour>
  </outline>
</glyph>
<glyph name="N" format="2">
  <advance width="809"/>
  <unicode hex="004E"/>
  <anchor x="426" y="0" name="bottom"/>
  <anchor x="396" y="700" name="top"/>
  <outline>
    <contour>
      <point x="615" y="0" type="line"/>
      <point x="678" y="173" type="line"/>
      <point x="259" y="700" type="line"/>
      <point x="35" y="700" type="line"/>
      <point x="35" y="668" type="line"/>
      <point x="91" y="649"/>
      <point x="132" y="605"/>
      <point x="177" y="549" type="curve" smooth="yes"/>
    </contour>
    <contour>
      <point x="61" y="0" type="line"/>
      <point x="319" y="0" type="line"/>
      <point x="319" y="27" type="line"/>
      <point x="246" y="47"/>
      <point x="202" y="75"/>
      <point x="202" y="148" type="curve" smooth="yes"/>
      <point x="202" y="700" type="line"/>
      <point x="139" y="700" type="line"/>
      <point x="139" y="148" type="line" smooth="yes"/>
      <point x="139" y="75"/>
      <point x="108" y="40"/>
      <point x="61" y="27" type="curve"/>
    </contour>
    <contour>
      <point x="615" y="0" type="line"/>
      <point x="697" y="0" type="line"/>
      <point x="697" y="536" type="line" smooth="yes"/>
      <point x="697" y="622"/>
      <point x="731" y="657"/>
      <point x="774" y="673" type="curve"/>
      <point x="774" y="700" type="line"/>
      <point x="518" y="700" type="line"/>
      <point x="518" y="673" type="line"/>
      <point x="593" y="657"/>
      <point x="634" y="622"/>
      <point x="634" y="536" type="curve" smooth="yes"/>
      <point x="634" y="120" type="line"/>
    </contour>
  </outline>
</glyph>
<glyph name="O" format="2">
  <advance width="786"/>
  <unicode hex="004F"/>
  <anchor x="411" y="0" name="bottom"/>
  <anchor x="385" y="700" name="top"/>
  <outline>
    <contour>
      <point x="393" y="-14" type="curve" smooth="yes"/>
      <point x="592" y="-14"/>
      <point x="751" y="152"/>
      <point x="751" y="351" type="curve" smooth="yes"/>
      <point x="751" y="550"/>
      <point x="592" y="714"/>
      <point x="393" y="714" type="curve" smooth="yes"/>
      <point x="194" y="714"/>
      <point x="35" y="550"/>
      <point x="35" y="351" type="curve" smooth="yes"/>
      <point x="35" y="152"/>
      <point x="194" y="-14"/>
    </contour>
    <contour>
      <point x="437" y="40" type="curve" smooth="yes"/>
      <point x="326" y="40"/>
      <point x="208" y="206"/>
      <point x="208" y="396" type="curve" smooth="yes"/>
      <point x="208" y="526"/>
      <point x="256" y="660"/>
      <point x="352" y="660" type="curve" smooth="yes"/>
      <point x="464" y="660"/>
      <point x="578" y="497"/>
      <point x="578" y="303" type="curve" smooth="yes"/>
      <point x="578" y="174"/>
      <point x="532" y="40"/>
    </contour>
  </outline>
</glyph>
<glyph name="P" format="2">
  <advance width="647"/>
  <unicode hex="0050"/>
  <outline>
    <contour>
      <point x="40" y="0" type="line"/>
      <point x="371" y="0" type="line"/>
      <point x="371" y="27" type="line"/>
      <point x="296" y="36"/>
      <point x="256" y="55"/>
      <point x="256" y="141" type="curve" smooth="yes"/>
      <point x="256" y="647" type="line"/>
      <point x="279" y="647" type="line" smooth="yes"/>
      <point x="407" y="647"/>
      <point x="450" y="564"/>
      <point x="450" y="475" type="curve" smooth="yes"/>
      <point x="450" y="392"/>
      <point x="412" y="315"/>
      <point x="316" y="294" type="curve"/>
      <point x="318" y="266" type="line"/>
      <point x="452" y="266"/>
      <point x="612" y="341"/>
      <point x="612" y="487" type="curve" smooth="yes"/>
      <point x="612" y="611"/>
      <point x="498" y="700"/>
      <point x="283" y="700" type="curve" smooth="yes"/>
      <point x="40" y="700" type="line"/>
      <point x="40" y="673" type="line"/>
      <point x="87" y="662"/>
      <point x="98" y="643"/>
      <point x="98" y="557" type="curve" smooth="yes"/>
      <point x="98" y="141" type="line" smooth="yes"/>
      <point x="98" y="55"/>
      <point x="87" y="38"/>
      <point x="40" y="27" type="curve"/>
    </contour>
  </outline>
</glyph>
<glyph name="R" format="2">
  <advance width="693"/>
  <unicode hex="0052"/>
  <anchor x="391" y="0" name="bottom"/>
  <outline>
    <contour>
      <point x="40" y="0" type="line"/>
      <point x="338" y="0" type="line"/>
      <point x="338" y="27" type="line"/>
      <point x="286" y="36"/>
      <point x="256" y="53"/>
      <point x="256" y="140" type="curve" smooth="yes"/>
      <point x="256" y="311" type="line"/>
      <point x="291" y="311" type="line" smooth="yes"/>
      <point x="315" y="311"/>
      <point x="331" y="295"/>
      <point x="345" y="273" type="curve" smooth="yes"/>
      <point x="524" y="0" type="line"/>
      <point x="728" y="0" type="line"/>
      <point x="728" y="24" type="line"/>
      <point x="710" y="32" type="line" smooth="yes"/>
      <point x="659" y="55"/>
      <point x="491" y="308"/>
      <point x="453" y="345" type="curve"/>
      <point x="526" y="370"/>
      <point x="608" y="438"/>
      <point x="608" y="514" type="curve" smooth="yes"/>
      <point x="608" y="632"/>
      <point x="492" y="700"/>
      <point x="273" y="700" type="curve" smooth="yes"/>
      <point x="40" y="700" type="line"/>
      <point x="40" y="673" type="line"/>
      <point x="87" y="662"/>
      <point x="98" y="643"/>
      <point x="98" y="557" type="curve" smooth="yes"/>
      <point x="98" y="140" type="line" smooth="yes"/>
      <point x="98" y="55"/>
      <point x="87" y="38"/>
      <point x="40" y="27" type="curve"/>
    </contour>
    <contour>
      <point x="256" y="364" type="line"/>
      <point x="256" y="647" type="line"/>
      <point x="269" y="647" type="line" smooth="yes"/>
      <point x="374" y="647"/>
      <point x="446" y="593"/>
      <point x="446" y="508" type="curve" smooth="yes"/>
      <point x="446" y="422"/>
      <point x="377" y="364"/>
      <point x="290" y="364" type="curve" smooth="yes"/>
    </contour>
  </outline>
</glyph>
<glyph name="S" format="2">
  <advance width="576"/>
  <unicode hex="0053"/>
  <anchor x="297" y="-9" name="bottom"/>
  <outline>
    <contour>
      <point x="275" y="-14" type="curve" smooth="yes"/>
      <point x="427" y="-14"/>
      <point x="536" y="72"/>
      <point x="536" y="216" type="curve" smooth="yes"/>
      <point x="536" y="312"/>
      <point x="488" y="364"/>
      <point x="397" y="405" type="curve" smooth="yes"/>
      <point x="264" y="465" type="line" smooth="yes"/>
      <point x="214" y="488"/>
      <point x="181" y="520"/>
      <point x="181" y="567" type="curve" smooth="yes"/>
      <point x="181" y="620"/>
      <point x="223" y="658"/>
      <point x="274" y="658" type="curve" smooth="yes"/>
      <point x="339" y="658"/>
      <point x="393" y="600"/>
      <point x="470" y="479" type="curve"/>
      <point x="494" y="485" type="line"/>
      <point x="488" y="670" type="line"/>
      <point x="444" y="701"/>
      <point x="376" y="713"/>
      <point x="317" y="713" type="curve" smooth="yes"/>
      <point x="160" y="713"/>
      <point x="64" y="627"/>
      <point x="64" y="503" type="curve" smooth="yes"/>
      <point x="64" y="426"/>
      <point x="101" y="357"/>
      <point x="207" y="308" type="curve" smooth="yes"/>
      <point x="335" y="249" type="line" smooth="yes"/>
      <point x="395" y="221"/>
      <point x="423" y="181"/>
      <point x="423" y="137" type="curve" smooth="yes"/>
      <point x="423" y="83"/>
      <point x="382" y="47"/>
      <point x="329" y="47" type="curve" smooth="yes"/>
      <point x="245" y="47"/>
      <point x="160" y="138"/>
      <point x="85" y="264" type="curve"/>
      <point x="60" y="261" type="line"/>
      <point x="63" y="61" type="line"/>
      <point x="106" y="20"/>
      <point x="180" y="-14"/>
    </contour>
  </outline>
</glyph>
<glyph name="T" format="2">
  <advance width="686"/>
  <unicode hex="0054"/>
  <anchor x="347" y="0" name="bottom"/>
  <outline>
    <contour>
      <point x="195" y="0" type="line"/>
      <point x="495" y="0" type="line"/>
      <point x="495" y="27" type="line"/>
      <point x="459" y="34"/>
      <point x="425" y="55"/>
      <point x="425" y="141" type="curve"/>
      <point x="267" y="141" type="line"/>
      <point x="267" y="55"/>
      <point x="236" y="34"/>
      <point x="195" y="27" type="curve"/>
    </contour>
    <contour>
      <point x="267" y="49" type="line"/>
      <point x="425" y="49" type="line"/>
      <point x="425" y="665" type="line"/>
      <point x="267" y="665" type="line"/>
    </contour>
    <component base="mi_barre_T" xOffset="-9"/>
    <component base="mi_barre_T" xScale="-1" xOffset="695"/>
  </outline>
</glyph>
<glyph name="U" format="2">
  <advance width="734"/>
  <unicode hex="0055"/>
  <anchor x="388" y="-14" name="bottom"/>
  <anchor x="389" y="700" name="top"/>
  <outline>
    <contour>
      <point x="371" y="-14" type="curve" smooth="yes"/>
      <point x="518" y="-14"/>
      <point x="642" y="88"/>
      <point x="642" y="246" type="curve" smooth="yes"/>
      <point x="642" y="559" type="line" smooth="yes"/>
      <point x="642" y="635"/>
      <point x="676" y="662"/>
      <point x="719" y="673" type="curve"/>
      <point x="719" y="700" type="line"/>
      <point x="471" y="700" type="line"/>
      <point x="471" y="673" type="line"/>
      <point x="528" y="666"/>
      <point x="575" y="635"/>
      <point x="575" y="559" type="curve" smooth="yes"/>
      <point x="575" y="245" type="line" smooth="yes"/>
      <point x="575" y="131"/>
      <point x="508" y="62"/>
      <point x="411" y="62" type="curve" smooth="yes"/>
      <point x="308" y="62"/>
      <point x="238" y="138"/>
      <point x="238" y="259" type="curve" smooth="yes"/>
      <point x="238" y="625" type="line"/>
      <point x="80" y="625" type="line"/>
      <point x="80" y="250" type="line" smooth="yes"/>
      <point x="80" y="69"/>
      <point x="214" y="-14"/>
    </contour>
    <contour>
      <point x="80" y="559" type="curve"/>
      <point x="238" y="559" type="line"/>
      <point x="238" y="635"/>
      <point x="288" y="665"/>
      <point x="320" y="673" type="curve"/>
      <point x="320" y="700" type="line"/>
      <point x="15" y="700" type="line"/>
      <point x="15" y="673" type="line"/>
      <point x="62" y="662"/>
      <point x="80" y="635"/>
    </contour>
  </outline>
</glyph>
<glyph name="V" format="2">
  <advance width="632"/>
  <unicode hex="0056"/>
  <anchor x="324" y="0" name="bottom"/>
  <outline>
    <contour>
      <point x="287" y="0" type="line"/>
      <point x="352" y="0" type="line"/>
      <point x="575" y="571" type="line" smooth="yes"/>
      <point x="597" y="628"/>
      <point x="642" y="668"/>
      <point x="667" y="671" type="curve"/>
      <point x="667" y="700" type="line"/>
      <point x="423" y="700" type="line"/>
      <point x="423" y="672" type="line"/>
      <point x="505" y="670"/>
      <point x="529" y="624"/>
      <point x="502" y="554" type="curve" smooth="yes"/>
      <point x="336" y="126" type="line"/>
      <point x="384" y="162" type="line"/>
      <point x="235" y="559" type="line" smooth="yes"/>
      <point x="209" y="628"/>
      <point x="225" y="669"/>
      <point x="272" y="671" type="curve"/>
      <point x="272" y="700" type="line"/>
      <point x="-15" y="700" type="line"/>
      <point x="-15" y="673" type="line"/>
      <point x="22" y="660"/>
      <point x="43" y="629"/>
      <point x="69" y="563" type="curve" smooth="yes"/>
    </contour>
  </outline>
</glyph>
<glyph name="W" format="2">
  <advance width="941"/>
  <unicode hex="0057"/>
  <anchor x="478" y="700" name="top"/>
  <outline>
    <contour>
      <point x="614" y="0" type="line"/>
      <point x="679" y="0" type="line"/>
      <point x="889" y="571" type="line" smooth="yes"/>
      <point x="910" y="628"/>
      <point x="956" y="668"/>
      <point x="981" y="671" type="curve"/>
      <point x="981" y="700" type="line"/>
      <point x="725" y="700" type="line"/>
      <point x="725" y="672" type="line"/>
      <point x="811" y="672"/>
      <point x="841" y="624"/>
      <point x="811" y="540" type="curve" smooth="yes"/>
      <point x="663" y="126" type="line"/>
      <point x="717" y="146" type="line"/>
      <point x="571" y="558" type="line" smooth="yes"/>
      <point x="545" y="630"/>
      <point x="553" y="669"/>
      <point x="624" y="671" type="curve"/>
      <point x="624" y="700" type="line"/>
      <point x="337" y="700" type="line"/>
      <point x="337" y="673" type="line"/>
      <point x="364" y="662"/>
      <point x="385" y="630"/>
      <point x="409" y="563" type="curve" smooth="yes"/>
    </contour>
    <component base="boutW" xOffset="-20"/>
  </outline>
</glyph>
<glyph name="X" format="2">
  <advance width="659"/>
  <unicode hex="0058"/>
  <anchor x="314" y="0" name="bottom"/>
  <outline>
    <contour>
      <point x="392" y="0" type="line"/>
      <point x="679" y="0" type="line"/>
      <point x="679" y="28" type="line"/>
      <point x="636" y="42"/>
      <point x="607" y="76"/>
      <point x="566" y="137" type="curve" smooth="yes"/>
      <point x="264" y="590" type="line" smooth="yes"/>
      <point x="241" y="625"/>
      <point x="245" y="668"/>
      <point x="276" y="672" type="curve"/>
      <point x="276" y="700" type="line"/>
      <point x="-9" y="700" type="line"/>
      <point x="-9" y="672" type="line"/>
      <point x="31" y="658"/>
      <point x="56" y="628"/>
      <point x="100" y="563" type="curve" smooth="yes"/>
      <point x="401" y="112" type="line" smooth="yes"/>
      <point x="427" y="74"/>
      <point x="428" y="41"/>
      <point x="392" y="28" type="curve"/>
    </contour>
    <contour>
      <point x="-15" y="0" type="line"/>
      <point x="220" y="0" type="line"/>
      <point x="220" y="28" type="line"/>
      <point x="169" y="33"/>
      <point x="154" y="78"/>
      <point x="192" y="133" type="curve" smooth="yes"/>
      <point x="338" y="343" type="line"/>
      <point x="297" y="395" type="line"/>
      <point x="113" y="129" type="line" smooth="yes"/>
      <point x="67" y="63"/>
      <point x="10" y="32"/>
      <point x="-15" y="28" type="curve"/>
    </contour>
    <contour>
      <point x="328" y="312" type="line"/>
      <point x="508" y="571" type="line" smooth="yes"/>
      <point x="549" y="630"/>
      <point x="606" y="668"/>
      <point x="631" y="672" type="curve"/>
      <point x="631" y="700" type="line"/>
      <point x="411" y="700" type="line"/>
      <point x="411" y="672" type="line"/>
      <point x="467" y="667"/>
      <point x="466" y="621"/>
      <point x="432" y="571" type="curve" smooth="yes"/>
      <point x="290" y="364" type="line"/>
    </contour>
  </outline>
</glyph>
<glyph name="Y" format="2">
  <advance width="593"/>
  <unicode hex="0059"/>
  <anchor x="327" y="700" name="top"/>
  <outline>
    <contour>
      <point x="280" y="207" type="line"/>
      <point x="338" y="207" type="line"/>
      <point x="528" y="571" type="line" smooth="yes"/>
      <point x="563" y="638"/>
      <point x="593" y="668"/>
      <point x="628" y="672" type="curve"/>
      <point x="628" y="700" type="line"/>
      <point x="403" y="700" type="line"/>
      <point x="403" y="672" type="line"/>
      <point x="471" y="670"/>
      <point x="483" y="629"/>
      <point x="455" y="570" type="curve" smooth="yes"/>
      <point x="319" y="286" type="line"/>
      <point x="385" y="300" type="line"/>
      <point x="248" y="571" type="line" smooth="yes"/>
      <point x="218" y="630"/>
      <point x="202" y="671"/>
      <point x="267" y="672" type="curve"/>
      <point x="267" y="700" type="line"/>
      <point x="-15" y="700" type="line"/>
      <point x="-15" y="672" type="line"/>
      <point x="24" y="660"/>
      <point x="48" y="628"/>
      <point x="77" y="576" type="curve" smooth="yes"/>
    </contour>
    <contour>
      <point x="175" y="0" type="line"/>
      <point x="448" y="0" type="line"/>
      <point x="448" y="27" type="line"/>
      <point x="405" y="38"/>
      <point x="391" y="55"/>
      <point x="391" y="141" type="curve"/>
      <point x="233" y="141" type="line"/>
      <point x="233" y="55"/>
      <point x="222" y="38"/>
      <point x="175" y="27" type="curve"/>
    </contour>
    <contour>
      <point x="233" y="49" type="line"/>
      <point x="391" y="49" type="line"/>
      <point x="391" y="332" type="line"/>
      <point x="233" y="332" type="line"/>
    </contour>
  </outline>
</glyph>
<glyph name="bracketleft" format="2">
  <advance width="337"/>
  <unicode hex="005B"/>
  <outline>
    <contour>
      <point x="40" y="700" type="line"/>
      <point x="40" y="-164" type="line"/>
      <point x="188" y="-164" type="line"/>
      <point x="188" y="700" type="line"/>
    </contour>
    <contour>
      <point x="112" y="700" type="line"/>
      <point x="112" y="647" type="line"/>
      <point x="337" y="647" type="line"/>
      <point x="337" y="700" type="line"/>
    </contour>
    <contour>
      <point x="112" y="-111" type="line"/>
      <point x="112" y="-164" type="line"/>
      <point x="337" y="-164" type="line"/>
      <point x="337" y="-111" type="line"/>
    </contour>
  </outline>
</glyph>
<glyph name="underscore" format="2">
  <advance width="414"/>
  <unicode hex="005F"/>
  <outline>
    <contour>
      <point x="30" y="0" type="line"/>
      <point x="384" y="0" type="line"/>
      <point x="384" y="81" type="line"/>
      <point x="30" y="81" type="line"/>
    </contour>
  </outline>
</glyph>
<glyph name="a" format="2">
  <advance width="524"/>
  <unicode hex="0061"/>
  <note>
a
</note>
  <anchor x="272" y="0" name="bottom"/>
  <anchor x="260" y="470" name="top"/>
  <outline>
    <contour>
      <point x="379" y="-14" type="curve" smooth="yes"/>
      <point x="433" y="-14"/>
      <point x="481" y="21"/>
      <point x="519" y="55" type="curve"/>
      <point x="504" y="80" type="line"/>
      <point x="492" y="72"/>
      <point x="478" y="66"/>
      <point x="466" y="66" type="curve" smooth="yes"/>
      <point x="454" y="66"/>
      <point x="444" y="73"/>
      <point x="444" y="93" type="curve" smooth="yes"/>
      <point x="444" y="359" type="line" smooth="yes"/>
      <point x="444" y="441"/>
      <point x="383" y="494"/>
      <point x="298" y="494" type="curve" smooth="yes"/>
      <point x="185" y="494"/>
      <point x="41" y="418"/>
      <point x="41" y="346" type="curve" smooth="yes"/>
      <point x="41" y="323"/>
      <point x="53" y="297"/>
      <point x="80" y="279" type="curve"/>
      <point x="206" y="314" type="line"/>
      <point x="191" y="330"/>
      <point x="177" y="354"/>
      <point x="177" y="375" type="curve" smooth="yes"/>
      <point x="177" y="410"/>
      <point x="201" y="437"/>
      <point x="237" y="437" type="curve" smooth="yes"/>
      <point x="292" y="437"/>
      <point x="296" y="390"/>
      <point x="296" y="314" type="curve" smooth="yes"/>
      <point x="296" y="63" type="line" smooth="yes"/>
      <point x="296" y="11"/>
      <point x="335" y="-14"/>
    </contour>
    <contour>
      <point x="167" y="-14" type="curve" smooth="yes"/>
      <point x="245" y="-14"/>
      <point x="303" y="31"/>
      <point x="339" y="69" type="curve"/>
      <point x="336" y="115" type="line"/>
      <point x="314" y="92"/>
      <point x="284" y="61"/>
      <point x="252" y="61" type="curve" smooth="yes"/>
      <point x="218" y="61"/>
      <point x="195" y="86"/>
      <point x="195" y="118" type="curve" smooth="yes"/>
      <point x="195" y="159"/>
      <point x="227" y="182"/>
      <point x="276" y="197" type="curve" smooth="yes"/>
      <point x="337" y="216" type="line"/>
      <point x="337" y="264" type="line"/>
      <point x="194" y="225" type="line" smooth="yes"/>
      <point x="118" y="204"/>
      <point x="40" y="167"/>
      <point x="40" y="93" type="curve" smooth="yes"/>
      <point x="40" y="29"/>
      <point x="98" y="-14"/>
    </contour>
  </outline>
</glyph>
<glyph name="b" format="2">
  <advance width="552"/>
  <unicode hex="0062"/>
  <note>
b
</note>
  <outline>
    <contour>
      <point x="201" y="-7" type="curve"/>
      <point x="201" y="676" type="line"/>
      <point x="53" y="676" type="line"/>
      <point x="53" y="178" type="line" smooth="yes"/>
      <point x="53" y="111"/>
      <point x="52" y="80"/>
      <point x="41" y="25" type="curve"/>
      <point x="54" y="10" type="line"/>
      <point x="112" y="10"/>
      <point x="164" y="-1"/>
    </contour>
    <component base="empattement_haut" xOffset="27" yOffset="4"/>
    <component base="panse" xOffset="-28"/>
  </outline>
</glyph>
<glyph name="c" format="2">
  <advance width="437"/>
  <unicode hex="0063"/>
  <note>
c
</note>
  <anchor x="237" y="-9" name="bottom"/>
  <outline>
    <contour>
      <point x="238" y="-14" type="curve" smooth="yes"/>
      <point x="318" y="-14"/>
      <point x="375" y="32"/>
      <point x="427" y="95" type="curve"/>
      <point x="406" y="118" type="line"/>
      <point x="369" y="90"/>
      <point x="337" y="77"/>
      <point x="304" y="77" type="curve" smooth="yes"/>
      <point x="214" y="77"/>
      <point x="165" y="175"/>
      <point x="165" y="282" type="curve" smooth="yes"/>
      <point x="165" y="371"/>
      <point x="194" y="441"/>
      <point x="246" y="441" type="curve" smooth="yes"/>
      <point x="296" y="441"/>
      <point x="331" y="363"/>
      <point x="358" y="298" type="curve"/>
      <point x="447" y="411" type="line"/>
      <point x="411" y="453"/>
      <point x="352" y="494"/>
      <point x="272" y="494" type="curve" smooth="yes"/>
      <point x="132" y="494"/>
      <point x="25" y="368"/>
      <point x="25" y="226" type="curve" smooth="yes"/>
      <point x="25" y="91"/>
      <point x="122" y="-14"/>
    </contour>
  </outline>
</glyph>
<glyph name="d" format="2">
  <advance width="557"/>
  <unicode hex="0064"/>
  <note>
d
</note>
  <outline>
    <component base="empattement_decale" xScale="-1" yScale="-1" xOffset="566" yOffset="473"/>
    <contour>
      <point x="345" y="61" type="line"/>
      <point x="493" y="81" type="line"/>
      <point x="493" y="665" type="line"/>
      <point x="345" y="665" type="line"/>
    </contour>
    <component base="empattement_haut" xOffset="319" yOffset="4"/>
    <component base="panse" xScale="-1" yScale="-1" xOffset="580" yOffset="480"/>
  </outline>
</glyph>
<glyph name="e" format="2">
  <advance width="468"/>
  <unicode hex="0065"/>
  <note>
e
</note>
  <anchor x="254" y="0" name="bottom"/>
  <anchor x="258" y="470" name="top"/>
  <outline>
    <contour>
      <point x="244" y="-13" type="curve" smooth="yes"/>
      <point x="327" y="-13"/>
      <point x="394" y="37"/>
      <point x="437" y="96" type="curve"/>
      <point x="415" y="119" type="line"/>
      <point x="383" y="93"/>
      <point x="351" y="77"/>
      <point x="314" y="77" type="curve" smooth="yes"/>
      <point x="235" y="77"/>
      <point x="167" y="148"/>
      <point x="167" y="282" type="curve" smooth="yes"/>
      <point x="167" y="381"/>
      <point x="197" y="441"/>
      <point x="241" y="441" type="curve" smooth="yes"/>
      <point x="288" y="441"/>
      <point x="305" y="361"/>
      <point x="305" y="304" type="curve"/>
      <point x="124" y="304" type="line"/>
      <point x="124" y="259" type="line"/>
      <point x="453" y="259" type="line"/>
      <point x="453" y="362"/>
      <point x="409" y="494"/>
      <point x="271" y="494" type="curve" smooth="yes"/>
      <point x="135" y="494"/>
      <point x="25" y="364"/>
      <point x="25" y="222" type="curve" smooth="yes"/>
      <point x="25" y="83"/>
      <point x="129" y="-13"/>
    </contour>
  </outline>
</glyph>
<glyph name="f" format="2">
  <advance width="356"/>
  <unicode hex="0066"/>
  <note>
f
</note>
  <anchor x="175" y="0" name="bottom"/>
  <outline>
    <component base="empattement_bas_long" xOffset="30" yOffset="250"/>
    <contour>
      <point x="84" y="373" type="curve"/>
      <point x="214" y="420" type="line"/>
      <point x="329" y="420" type="line"/>
      <point x="353" y="461" type="line"/>
      <point x="346" y="480" type="line"/>
      <point x="198" y="480" type="line"/>
      <point x="95" y="479" type="line"/>
      <point x="25" y="450" type="line"/>
      <point x="25" y="430" type="line"/>
      <point x="56" y="426"/>
      <point x="84" y="411"/>
    </contour>
    <component base="f-haut" xOffset="20"/>
    <contour>
      <point x="232" y="468" type="line"/>
      <point x="84" y="468" type="line"/>
      <point x="84" y="24" type="line"/>
      <point x="232" y="24" type="line"/>
    </contour>
  </outline>
</glyph>
<glyph name="g" format="2">
  <advance width="523"/>
  <unicode hex="0067"/>
  <note>
g
</note>
  <outline>
    <contour>
      <point x="206" y="-264" type="curve" smooth="yes"/>
      <point x="355" y="-264"/>
      <point x="502" y="-162"/>
      <point x="502" y="-54" type="curve" smooth="yes"/>
      <point x="502" y="9"/>
      <point x="451" y="62"/>
      <point x="365" y="69" type="curve" smooth="yes"/>
      <point x="191" y="84" type="line" smooth="yes"/>
      <point x="164" y="86"/>
      <point x="150" y="91"/>
      <point x="150" y="109" type="curve" smooth="yes"/>
      <point x="150" y="122"/>
      <point x="157" y="137"/>
      <point x="183" y="158" type="curve"/>
      <point x="137" y="174" type="line"/>
      <point x="86" y="138"/>
      <point x="54" y="92"/>
      <point x="54" y="50" type="curve" smooth="yes"/>
      <point x="54" y="15"/>
      <point x="77" y="-45"/>
      <point x="143" y="-50" type="curve" smooth="yes"/>
      <point x="330" y="-65" type="line" smooth="yes"/>
      <point x="379" y="-69"/>
      <point x="412" y="-85"/>
      <point x="412" y="-117" type="curve" smooth="yes"/>
      <point x="412" y="-154"/>
      <point x="369" y="-177"/>
      <point x="304" y="-177" type="curve" smooth="yes"/>
      <point x="229" y="-177"/>
      <point x="119" y="-146"/>
      <point x="119" y="-84" type="curve" smooth="yes"/>
      <point x="119" y="-63"/>
      <point x="132" y="-50"/>
      <point x="153" y="-36" type="curve"/>
      <point x="140" y="-10" type="line"/>
      <point x="76" y="-42"/>
      <point x="15" y="-76"/>
      <point x="15" y="-137" type="curve" smooth="yes"/>
      <point x="15" y="-207"/>
      <point x="95" y="-264"/>
    </contour>
    <contour>
      <point x="242" y="138" type="curve" smooth="yes"/>
      <point x="361" y="138"/>
      <point x="463" y="225"/>
      <point x="463" y="324" type="curve" smooth="yes"/>
      <point x="463" y="417"/>
      <point x="372" y="494"/>
      <point x="260" y="494" type="curve" smooth="yes"/>
      <point x="141" y="494"/>
      <point x="48" y="407"/>
      <point x="48" y="309" type="curve" smooth="yes"/>
      <point x="48" y="217"/>
      <point x="129" y="138"/>
    </contour>
    <contour>
      <point x="277" y="188" type="curve" smooth="yes"/>
      <point x="232" y="188"/>
      <point x="183" y="264"/>
      <point x="183" y="349" type="curve" smooth="yes"/>
      <point x="183" y="399"/>
      <point x="200" y="446"/>
      <point x="237" y="446" type="curve" smooth="yes"/>
      <point x="285" y="446"/>
      <point x="330" y="370"/>
      <point x="330" y="289" type="curve" smooth="yes"/>
      <point x="330" y="242"/>
      <point x="315" y="188"/>
    </contour>
    <contour>
      <point x="339" y="423" type="line"/>
      <point x="489" y="423" type="line"/>
      <point x="513" y="461" type="line"/>
      <point x="506" y="480" type="line"/>
      <point x="323" y="480" type="line"/>
    </contour>
  </outline>
</glyph>
<glyph name="i" format="2">
  <advance width="290"/>
  <unicode hex="0069"/>
  <note>
i
</note>
  <outline>
    <contour>
      <point x="79" y="27" type="line"/>
      <point x="227" y="27" type="line"/>
      <point x="227" y="345" type="line"/>
      <point x="79" y="345" type="line"/>
    </contour>
    <component base="empattement_bas" xScale="-1" xOffset="289"/>
    <component base="empattement_haut" xOffset="53" yOffset="-246"/>
    <component base="point_ij" xOffset="-10" yOffset="5"/>
  </outline>
</glyph>
<glyph name="j" format="2">
  <advance width="275"/>
  <unicode hex="006A"/>
  <note>
j
</note>
  <outline>
    <contour>
      <point x="-6" y="-247" type="line"/>
      <point x="73" y="-179"/>
      <point x="213" y="-56"/>
      <point x="213" y="42" type="curve" smooth="yes"/>
      <point x="213" y="371" type="line"/>
      <point x="65" y="371" type="line"/>
      <point x="65" y="31" type="line" smooth="yes"/>
      <point x="65" y="-65"/>
      <point x="39" y="-147"/>
      <point x="-25" y="-226" type="curve"/>
    </contour>
    <component base="empattement_haut" xOffset="39" yOffset="-246"/>
    <component base="point_ij" xOffset="-11" yOffset="5"/>
  </outline>
</glyph>
<glyph name="l" format="2">
  <advance width="285"/>
  <unicode hex="006C"/>
  <note>
l
</note>
  <anchor x="135" y="0" name="bottom"/>
  <outline>
    <contour>
      <point x="63" y="39" type="line"/>
      <point x="211" y="39" type="line"/>
      <point x="211" y="645" type="line"/>
      <point x="63" y="645" type="line"/>
    </contour>
    <component base="empattement_bas" xOffset="1" identifier="CC493034"/>
    <component base="empattement_haut" xOffset="37" yOffset="4" identifier="237EAB41"/>
  </outline>
</glyph>
<glyph name="n" format="2">
  <advance width="603"/>
  <unicode hex="006E"/>
  <note>
n
</note>
  <anchor x="315" y="0" name="bottom"/>
  <anchor x="316" y="470" name="top"/>
  <outline>
    <contour>
      <point x="89" y="27" type="line"/>
      <point x="237" y="27" type="line"/>
      <point x="237" y="354" type="line"/>
      <point x="89" y="354" type="line"/>
    </contour>
    <component base="empattement_bas" xOffset="27"/>
    <component base="empattement_decale" xOffset="16" yOffset="10"/>
    <component base="empattement_bas" xScale="-1" xOffset="602"/>
    <component base="epaule" xOffset="12"/>
  </outline>
</glyph>
<glyph name="o" format="2">
  <advance width="552"/>
  <unicode hex="006F"/>
  <note>
o
</note>
  <anchor x="300" y="0" name="bottom"/>
  <anchor x="261" y="470" name="top"/>
  <outline>
    <contour>
      <point x="279" y="-14" type="curve" smooth="yes"/>
      <point x="426" y="-14"/>
      <point x="527" y="113"/>
      <point x="527" y="244" type="curve" smooth="yes"/>
      <point x="527" y="382"/>
      <point x="413" y="494"/>
      <point x="274" y="494" type="curve" smooth="yes"/>
      <point x="125" y="494"/>
      <point x="25" y="369"/>
      <point x="25" y="239" type="curve" smooth="yes"/>
      <point x="25" y="102"/>
      <point x="138" y="-14"/>
    </contour>
    <contour>
      <point x="306" y="40" type="curve" smooth="yes"/>
      <point x="234" y="40"/>
      <point x="170" y="160"/>
      <point x="170" y="295" type="curve" smooth="yes"/>
      <point x="170" y="379"/>
      <point x="192" y="440"/>
      <point x="247" y="440" type="curve" smooth="yes"/>
      <point x="315" y="440"/>
      <point x="382" y="324"/>
      <point x="382" y="197" type="curve" smooth="yes"/>
      <point x="382" y="112"/>
      <point x="359" y="40"/>
    </contour>
  </outline>
</glyph>
<glyph name="p" format="2">
  <advance width="580"/>
  <unicode hex="0070"/>
  <note>
p
</note>
  <outline>
    <component base="empattement_bas_long" xOffset="35"/>
    <contour>
      <point x="89" y="-138" type="line"/>
      <point x="237" y="-138" type="line"/>
      <point x="237" y="393" type="line"/>
      <point x="89" y="393" type="line"/>
    </contour>
    <component base="empattement_decale" xOffset="16" yOffset="10"/>
    <component base="panse"/>
  </outline>
</glyph>
<glyph name="q" format="2">
  <advance width="546"/>
  <unicode hex="0071"/>
  <note>
q
</note>
  <anchor x="334" y="468" name="top"/>
  <outline>
    <component base="empattement_bas_long" xScale="-1" xOffset="548"/>
    <contour>
      <point x="411" y="460" type="line"/>
      <point x="346" y="405" type="line"/>
      <point x="346" y="-191" type="line"/>
      <point x="494" y="-191" type="line"/>
      <point x="494" y="298" type="line" smooth="yes"/>
      <point x="494" y="359"/>
      <point x="499" y="384"/>
      <point x="507" y="419" type="curve"/>
      <point x="494" y="440" type="line"/>
    </contour>
    <component base="panse" xScale="-1" yScale="-1" xOffset="580" yOffset="470"/>
  </outline>
</glyph>
<glyph name="r" format="2">
  <advance width="442"/>
  <unicode hex="0072"/>
  <note>
r
</note>
  <anchor x="169" y="0" name="bottom"/>
  <outline>
    <contour>
      <point x="221" y="297" type="line"/>
      <point x="252" y="346"/>
      <point x="288" y="359"/>
      <point x="320" y="359" type="curve" smooth="yes"/>
      <point x="358" y="359"/>
      <point x="382" y="335"/>
      <point x="402" y="315" type="curve"/>
      <point x="452" y="430" type="line"/>
      <point x="441" y="451"/>
      <point x="407" y="488"/>
      <point x="363" y="488" type="curve" smooth="yes"/>
      <point x="306" y="488"/>
      <point x="238" y="392"/>
      <point x="212" y="329" type="curve"/>
    </contour>
    <component base="empattement_bas_long" xOffset="35" yOffset="250"/>
    <contour>
      <point x="89" y="51" type="line"/>
      <point x="237" y="51" type="line"/>
      <point x="237" y="347" type="line"/>
      <point x="89" y="347" type="line"/>
    </contour>
    <component base="empattement_decale" xOffset="16" yOffset="10"/>
  </outline>
</glyph>
<glyph name="s" format="2">
  <advance width="422"/>
  <unicode hex="0073"/>
  <note>
s
</note>
  <anchor x="225" y="0" name="bottom"/>
  <outline>
    <contour>
      <point x="209" y="-14" type="curve" smooth="yes"/>
      <point x="322" y="-14"/>
      <point x="402" y="60"/>
      <point x="402" y="156" type="curve" smooth="yes"/>
      <point x="402" y="220"/>
      <point x="366" y="262"/>
      <point x="302" y="290" type="curve" smooth="yes"/>
      <point x="210" y="330" type="line" smooth="yes"/>
      <point x="180" y="343"/>
      <point x="146" y="358"/>
      <point x="146" y="393" type="curve" smooth="yes"/>
      <point x="146" y="421"/>
      <point x="167" y="443"/>
      <point x="201" y="443" type="curve" smooth="yes"/>
      <point x="258" y="443"/>
      <point x="301" y="383"/>
      <point x="332" y="330" type="curve"/>
      <point x="390" y="438" type="line"/>
      <point x="349" y="474"/>
      <point x="291" y="495"/>
      <point x="233" y="495" type="curve" smooth="yes"/>
      <point x="128" y="495"/>
      <point x="41" y="427"/>
      <point x="41" y="336" type="curve" smooth="yes"/>
      <point x="41" y="287"/>
      <point x="66" y="236"/>
      <point x="139" y="204" type="curve" smooth="yes"/>
      <point x="233" y="163" type="line" smooth="yes"/>
      <point x="282" y="142"/>
      <point x="307" y="120"/>
      <point x="307" y="88" type="curve" smooth="yes"/>
      <point x="307" y="55"/>
      <point x="280" y="42"/>
      <point x="251" y="42" type="curve" smooth="yes"/>
      <point x="203" y="42"/>
      <point x="140" y="87"/>
      <point x="100" y="178" type="curve"/>
      <point x="15" y="85" type="line"/>
      <point x="57" y="18"/>
      <point x="134" y="-14"/>
    </contour>
  </outline>
</glyph>
<glyph name="t" format="2">
  <advance width="338"/>
  <unicode hex="0074"/>
  <note>
t
</note>
  <anchor x="208" y="0" name="bottom"/>
  <outline>
    <contour>
      <point x="193" y="-14" type="curve" smooth="yes"/>
      <point x="246" y="-14"/>
      <point x="300" y="22"/>
      <point x="335" y="55" type="curve"/>
      <point x="320" y="80" type="line"/>
      <point x="301" y="71"/>
      <point x="280" y="62"/>
      <point x="258" y="62" type="curve" smooth="yes"/>
      <point x="227" y="62"/>
      <point x="217" y="90"/>
      <point x="217" y="130" type="curve" smooth="yes"/>
      <point x="217" y="466" type="line"/>
      <point x="69" y="466" type="line"/>
      <point x="69" y="113" type="line" smooth="yes"/>
      <point x="69" y="20"/>
      <point x="131" y="-14"/>
    </contour>
    <contour>
      <point x="17" y="420" type="line"/>
      <point x="314" y="420" type="line"/>
      <point x="338" y="461" type="line"/>
      <point x="331" y="480" type="line"/>
      <point x="218" y="480" type="line"/>
      <point x="218" y="607" type="line"/>
      <point x="176" y="607" type="line"/>
      <point x="10" y="452" type="line"/>
    </contour>
  </outline>
</glyph>
<glyph name="u" format="2">
  <advance width="583"/>
  <unicode hex="0075"/>
  <note>
u
</note>
  <anchor x="283" y="0" name="bottom"/>
  <anchor x="290" y="470" name="top"/>
  <outline>
    <contour>
      <point x="356" y="102" type="line"/>
      <point x="504" y="102" type="line"/>
      <point x="504" y="418" type="line"/>
      <point x="356" y="418" type="line"/>
    </contour>
    <component base="epaule" xScale="-1" yScale="-1" xOffset="596" yOffset="480"/>
    <component base="empattement_haut" xOffset="42" yOffset="-246"/>
    <component base="empattement_decale" xScale="-1" yScale="-1" xOffset="577" yOffset="470"/>
    <component base="empattement_haut" xOffset="330" yOffset="-246"/>
  </outline>
</glyph>
<glyph name="v" format="2">
  <advance width="512"/>
  <unicode hex="0076"/>
  <note>
v
</note>
  <anchor x="254" y="0" name="bottom"/>
  <outline>
    <contour>
      <point x="213" y="-9" type="line"/>
      <point x="280" y="-9" type="line"/>
      <point x="448" y="383" type="line" smooth="yes"/>
      <point x="469" y="433"/>
      <point x="500" y="448"/>
      <point x="527" y="452" type="curve"/>
      <point x="527" y="480" type="line"/>
      <point x="334" y="480" type="line"/>
      <point x="334" y="452" type="line"/>
      <point x="380" y="451"/>
      <point x="408" y="423"/>
      <point x="388" y="373" type="curve" smooth="yes"/>
      <point x="269" y="77" type="line"/>
      <point x="322" y="105" type="line"/>
      <point x="204" y="371" type="line" smooth="yes"/>
      <point x="188" y="407"/>
      <point x="205" y="452"/>
      <point x="253" y="452" type="curve"/>
      <point x="253" y="480" type="line"/>
      <point x="-30" y="480" type="line"/>
      <point x="-30" y="452" type="line"/>
      <point x="-2" y="448"/>
      <point x="16" y="430"/>
      <point x="40" y="376" type="curve" smooth="yes"/>
    </contour>
  </outline>
</glyph>
<glyph name="w" format="2">
  <advance width="806"/>
  <unicode hex="0077"/>
  <note>
w
</note>
  <anchor x="429" y="470" name="top"/>
  <outline>
    <contour>
      <point x="531" y="-9" type="line"/>
      <point x="590" y="-9" type="line"/>
      <point x="747" y="383" type="line" smooth="yes"/>
      <point x="767" y="432"/>
      <point x="794" y="449"/>
      <point x="821" y="453" type="curve"/>
      <point x="821" y="480" type="line"/>
      <point x="634" y="480" type="line"/>
      <point x="634" y="453" type="line"/>
      <point x="680" y="452"/>
      <point x="704" y="419"/>
      <point x="686" y="369" type="curve" smooth="yes"/>
      <point x="580" y="77" type="line"/>
      <point x="632" y="107" type="line"/>
      <point x="532" y="371" type="line" smooth="yes"/>
      <point x="516" y="414"/>
      <point x="536" y="452"/>
      <point x="573" y="453" type="curve"/>
      <point x="573" y="480" type="line"/>
      <point x="300" y="480" type="line"/>
      <point x="300" y="453" type="line"/>
      <point x="322" y="449"/>
      <point x="340" y="430"/>
      <point x="363" y="376" type="curve" smooth="yes"/>
    </contour>
    <component base="boutw" xOffset="-25"/>
  </outline>
</glyph>
<glyph name="x" format="2">
  <advance width="496"/>
  <unicode hex="0078"/>
  <note>
x
</note>
  <anchor x="216" y="0" name="bottom"/>
  <outline>
    <contour>
      <point x="252" y="0" type="line"/>
      <point x="511" y="0" type="line"/>
      <point x="511" y="27" type="line"/>
      <point x="495" y="32"/>
      <point x="472" y="61"/>
      <point x="435" y="110" type="curve" smooth="yes"/>
      <point x="229" y="387" type="line" smooth="yes"/>
      <point x="203" y="422"/>
      <point x="214" y="448"/>
      <point x="239" y="452" type="curve"/>
      <point x="239" y="480" type="line"/>
      <point x="-14" y="480" type="line"/>
      <point x="-14" y="452" type="line"/>
      <point x="-1" y="451"/>
      <point x="23" y="420"/>
      <point x="48" y="387" type="curve" smooth="yes"/>
      <point x="265" y="95" type="line" smooth="yes"/>
      <point x="290" y="61"/>
      <point x="280" y="32"/>
      <point x="252" y="27" type="curve"/>
    </contour>
    <contour>
      <point x="-20" y="0" type="line"/>
      <point x="167" y="0" type="line"/>
      <point x="167" y="27" type="line"/>
      <point x="135" y="31"/>
      <point x="119" y="67"/>
      <point x="143" y="97" type="curve" smooth="yes"/>
      <point x="262" y="248" type="line"/>
      <point x="208" y="259" type="line"/>
      <point x="109" y="127" type="line" smooth="yes"/>
      <point x="76" y="83"/>
      <point x="12" y="28"/>
      <point x="-20" y="27" type="curve"/>
    </contour>
    <contour>
      <point x="269" y="224" type="line"/>
      <point x="367" y="351" type="line" smooth="yes"/>
      <point x="401" y="395"/>
      <point x="466" y="448"/>
      <point x="493" y="452" type="curve"/>
      <point x="493" y="480" type="line"/>
      <point x="310" y="480" type="line"/>
      <point x="310" y="452" type="line"/>
      <point x="350" y="450"/>
      <point x="359" y="416"/>
      <point x="337" y="387" type="curve" smooth="yes"/>
      <point x="217" y="231" type="line"/>
    </contour>
  </outline>
</glyph>
<glyph name="y" format="2">
  <advance width="525"/>
  <unicode hex="0079"/>
  <note>
y
</note>
  <anchor x="302" y="470" name="top"/>
  <outline>
    <contour>
      <point x="14" y="-244" type="line"/>
      <point x="43" y="-256"/>
      <point x="69" y="-261"/>
      <point x="93" y="-261" type="curve" smooth="yes"/>
      <point x="159" y="-261"/>
      <point x="201" y="-218"/>
      <point x="226" y="-161" type="curve" smooth="yes"/>
      <point x="467" y="383" type="line" smooth="yes"/>
      <point x="489" y="432"/>
      <point x="513" y="449"/>
      <point x="540" y="453" type="curve"/>
      <point x="540" y="480" type="line"/>
      <point x="351" y="480" type="line"/>
      <point x="351" y="453" type="line"/>
      <point x="401" y="452"/>
      <point x="430" y="423"/>
      <point x="407" y="369" type="curve" smooth="yes"/>
      <point x="222" y="-60" type="line" smooth="yes"/>
      <point x="203" y="-104"/>
      <point x="173" y="-132"/>
      <point x="134" y="-132" type="curve" smooth="yes"/>
      <point x="109" y="-132"/>
      <point x="81" y="-121"/>
      <point x="50" y="-95" type="curve"/>
    </contour>
    <contour>
      <point x="246" y="-53" type="line"/>
      <point x="332" y="110" type="line"/>
      <point x="225" y="363" type="line" smooth="yes"/>
      <point x="199" y="424"/>
      <point x="235" y="452"/>
      <point x="273" y="453" type="curve"/>
      <point x="273" y="480" type="line"/>
      <point x="-15" y="480" type="line"/>
      <point x="-15" y="453" type="line"/>
      <point x="13" y="449"/>
      <point x="29" y="430"/>
      <point x="53" y="376" type="curve" smooth="yes"/>
    </contour>
  </outline>
</glyph>
<glyph name="z" format="2">
  <advance width="470"/>
  <unicode hex="007A"/>
  <outline>
    <contour>
      <point x="31" y="-1" type="line"/>
      <point x="396" y="-1" type="line"/>
      <point x="440" y="188" type="line"/>
      <point x="419" y="194" type="line"/>
      <point x="390" y="139"/>
      <point x="346" y="117"/>
      <point x="288" y="117" type="curve" smooth="yes"/>
      <point x="157" y="117" type="line"/>
      <point x="438" y="456" type="line"/>
      <point x="428" y="480" type="line"/>
      <point x="86" y="480" type="line"/>
      <point x="28" y="291" type="line"/>
      <point x="51" y="283" type="line"/>
      <point x="81" y="339"/>
      <point x="124" y="361"/>
      <point x="169" y="361" type="curve" smooth="yes"/>
      <point x="300" y="361" type="line"/>
      <point x="20" y="25" type="line"/>
    </contour>
  </outline>
</glyph>
<glyph name="cent" format="2">
  <advance width="437"/>
  <unicode hex="00A2"/>
  <outline>
    <component base="c" yOffset="112"/>
    <contour>
      <point x="227" y="700" type="line"/>
      <point x="227" y="568" type="line"/>
      <point x="287" y="568" type="line"/>
      <point x="287" y="700" type="line"/>
    </contour>
    <contour>
      <point x="227" y="131" type="line"/>
      <point x="227" y="-1" type="line"/>
      <point x="287" y="-1" type="line"/>
      <point x="287" y="131" type="line"/>
    </contour>
  </outline>
</glyph>
<glyph name="sterling" format="2">
  <advance width="577"/>
  <unicode hex="00A3"/>
  <outline>
    <contour>
      <point x="557" y="635" type="line"/>
      <point x="497" y="698"/>
      <point x="441" y="714"/>
      <point x="391" y="714" type="curve" smooth="yes"/>
      <point x="291" y="714"/>
      <point x="169" y="620"/>
      <point x="151" y="424" type="curve" smooth="yes"/>
      <point x="141" y="317" type="line" smooth="yes"/>
      <point x="131" y="210"/>
      <point x="123" y="138"/>
      <point x="106" y="86" type="curve"/>
      <point x="55" y="83"/>
      <point x="10" y="53"/>
      <point x="10" y="20" type="curve" smooth="yes"/>
      <point x="10" y="-1"/>
      <point x="27" y="-14"/>
      <point x="44" y="-14" type="curve" smooth="yes"/>
      <point x="80" y="-14"/>
      <point x="110" y="26"/>
      <point x="134" y="60" type="curve"/>
      <point x="216" y="42"/>
      <point x="275" y="-14"/>
      <point x="383" y="-14" type="curve" smooth="yes"/>
      <point x="470" y="-14"/>
      <point x="540" y="80"/>
      <point x="540" y="157" type="curve" smooth="yes"/>
      <point x="540" y="199"/>
      <point x="515" y="224"/>
      <point x="485" y="244" type="curve"/>
      <point x="418" y="154" type="line"/>
      <point x="459" y="139"/>
      <point x="478" y="117"/>
      <point x="478" y="100" type="curve" smooth="yes"/>
      <point x="478" y="85"/>
      <point x="465" y="76"/>
      <point x="437" y="76" type="curve" smooth="yes"/>
      <point x="367" y="76"/>
      <point x="313" y="139"/>
      <point x="252" y="139" type="curve" smooth="yes"/>
      <point x="217" y="139"/>
      <point x="179" y="119"/>
      <point x="163" y="107" type="curve"/>
      <point x="203" y="148"/>
      <point x="272" y="219"/>
      <point x="283" y="382" type="curve" smooth="yes"/>
      <point x="290" y="485" type="line" smooth="yes"/>
      <point x="299" y="617"/>
      <point x="309" y="651"/>
      <point x="348" y="651" type="curve" smooth="yes"/>
      <point x="391" y="651"/>
      <point x="436" y="571"/>
      <point x="468" y="513" type="curve"/>
    </contour>
    <contour>
      <point x="74" y="390" type="line"/>
      <point x="57" y="330" type="line"/>
      <point x="433" y="330" type="line"/>
      <point x="450" y="390" type="line"/>
    </contour>
  </outline>
</glyph>
<glyph name="currency" format="2">
  <advance width="463"/>
  <unicode hex="00A4"/>
  <outline>
    <component base="degree" xScale="1.1" yScale="1.1" xOffset="66" yOffset="-290"/>
    <contour>
      <point x="22" y="504" type="line"/>
      <point x="144" y="382" type="line"/>
      <point x="206" y="444" type="line"/>
      <point x="84" y="567" type="line"/>
    </contour>
    <contour>
      <point x="259" y="267" type="line"/>
      <point x="381" y="145" type="line"/>
      <point x="443" y="207" type="line"/>
      <point x="321" y="330" type="line"/>
    </contour>
    <contour>
      <point x="380" y="567" type="line"/>
      <point x="258" y="445" type="line"/>
      <point x="320" y="383" type="line"/>
      <point x="442" y="505" type="line"/>
    </contour>
    <contour>
      <point x="143" y="330" type="line"/>
      <point x="20" y="207" type="line"/>
      <point x="83" y="145" type="line"/>
      <point x="206" y="268" type="line"/>
    </contour>
  </outline>
</glyph>
<glyph name="yen" format="2">
  <advance width="593"/>
  <unicode hex="00A5"/>
  <outline>
    <component base="Y"/>
    <contour>
      <point x="79" y="480" type="line"/>
      <point x="79" y="398" type="line"/>
      <point x="245" y="398" type="line"/>
      <point x="245" y="480" type="line"/>
    </contour>
    <contour>
      <point x="79" y="310" type="line"/>
      <point x="79" y="228" type="line"/>
      <point x="565" y="228" type="line"/>
      <point x="565" y="310" type="line"/>
    </contour>
    <contour>
      <point x="439" y="480" type="line"/>
      <point x="439" y="398" type="line"/>
      <point x="565" y="398" type="line"/>
      <point x="565" y="480" type="line"/>
    </contour>
  </outline>
</glyph>
<glyph name="section" format="2">
  <advance width="519"/>
  <unicode hex="00A7"/>
  <outline>
    <contour>
      <point x="279" y="86" type="line"/>
      <point x="365" y="96"/>
      <point x="469" y="181"/>
      <point x="469" y="276" type="curve" smooth="yes"/>
      <point x="469" y="353"/>
      <point x="427" y="394"/>
      <point x="372" y="433" type="curve" smooth="yes"/>
      <point x="255" y="515" type="line" smooth="yes"/>
      <point x="193" y="558"/>
      <point x="179" y="585"/>
      <point x="179" y="611" type="curve" smooth="yes"/>
      <point x="179" y="643"/>
      <point x="203" y="662"/>
      <point x="234" y="662" type="curve" smooth="yes"/>
      <point x="295" y="662"/>
      <point x="341" y="591"/>
      <point x="365" y="549" type="curve"/>
      <point x="423" y="657" type="line"/>
      <point x="381" y="694"/>
      <point x="323" y="714"/>
      <point x="264" y="714" type="curve" smooth="yes"/>
      <point x="161" y="714"/>
      <point x="74" y="648"/>
      <point x="74" y="554" type="curve" smooth="yes"/>
      <point x="74" y="495"/>
      <point x="111" y="447"/>
      <point x="174" y="403" type="curve" smooth="yes"/>
      <point x="293" y="320" type="line" smooth="yes"/>
      <point x="340" y="287"/>
      <point x="371" y="259"/>
      <point x="371" y="225" type="curve" smooth="yes"/>
      <point x="371" y="187"/>
      <point x="341" y="147"/>
      <point x="267" y="123" type="curve"/>
    </contour>
    <contour>
      <point x="254" y="-220" type="curve" smooth="yes"/>
      <point x="342" y="-220"/>
      <point x="450" y="-161"/>
      <point x="450" y="-49" type="curve" smooth="yes"/>
      <point x="450" y="3"/>
      <point x="420" y="52"/>
      <point x="356" y="99" type="curve" smooth="yes"/>
      <point x="223" y="197" type="line" smooth="yes"/>
      <point x="187" y="224"/>
      <point x="149" y="260"/>
      <point x="149" y="296" type="curve" smooth="yes"/>
      <point x="149" y="332"/>
      <point x="173" y="367"/>
      <point x="241" y="396" type="curve"/>
      <point x="233" y="430" type="line"/>
      <point x="133" y="416"/>
      <point x="50" y="328"/>
      <point x="50" y="234" type="curve" smooth="yes"/>
      <point x="50" y="171"/>
      <point x="94" y="121"/>
      <point x="140" y="87" type="curve" smooth="yes"/>
      <point x="274" y="-12" type="line" smooth="yes"/>
      <point x="317" y="-44"/>
      <point x="359" y="-65"/>
      <point x="359" y="-104" type="curve" smooth="yes"/>
      <point x="359" y="-137"/>
      <point x="336" y="-164"/>
      <point x="294" y="-164" type="curve" smooth="yes"/>
      <point x="235" y="-164"/>
      <point x="172" y="-99"/>
      <point x="143" y="-28" type="curve"/>
      <point x="58" y="-121" type="line"/>
      <point x="101" y="-192"/>
      <point x="187" y="-220"/>
    </contour>
  </outline>
</glyph>
<glyph name="copyright" format="2">
  <advance width="638"/>
  <unicode hex="00A9"/>
  <outline>
    <contour>
      <point x="314" y="263" type="curve" smooth="yes"/>
      <point x="365" y="263"/>
      <point x="403" y="292"/>
      <point x="436" y="329" type="curve"/>
      <point x="422" y="348" type="line"/>
      <point x="398" y="330"/>
      <point x="377" y="322"/>
      <point x="356" y="322" type="curve" smooth="yes"/>
      <point x="298" y="322"/>
      <point x="266" y="385"/>
      <point x="266" y="454" type="curve" smooth="yes"/>
      <point x="266" y="511"/>
      <point x="285" y="549"/>
      <point x="319" y="549" type="curve" smooth="yes"/>
      <point x="351" y="549"/>
      <point x="374" y="506"/>
      <point x="391" y="464" type="curve"/>
      <point x="448" y="537" type="line"/>
      <point x="425" y="564"/>
      <point x="387" y="591"/>
      <point x="335" y="591" type="curve" smooth="yes"/>
      <point x="245" y="591"/>
      <point x="176" y="510"/>
      <point x="176" y="418" type="curve" smooth="yes"/>
      <point x="176" y="331"/>
      <point x="239" y="263"/>
    </contour>
    <contour>
      <point x="319" y="126" type="curve" smooth="yes"/>
      <point x="483" y="126"/>
      <point x="612" y="257"/>
      <point x="612" y="421" type="curve" smooth="yes"/>
      <point x="612" y="584"/>
      <point x="483" y="714"/>
      <point x="319" y="714" type="curve" smooth="yes"/>
      <point x="155" y="714"/>
      <point x="26" y="584"/>
      <point x="26" y="421" type="curve" smooth="yes"/>
      <point x="26" y="257"/>
      <point x="155" y="126"/>
    </contour>
    <contour>
      <point x="319" y="183" type="curve" smooth="yes"/>
      <point x="187" y="183"/>
      <point x="82" y="289"/>
      <point x="82" y="421" type="curve" smooth="yes"/>
      <point x="82" y="552"/>
      <point x="187" y="657"/>
      <point x="319" y="657" type="curve" smooth="yes"/>
      <point x="451" y="657"/>
      <point x="556" y="552"/>
      <point x="556" y="421" type="curve" smooth="yes"/>
      <point x="556" y="289"/>
      <point x="451" y="183"/>
    </contour>
  </outline>
</glyph>
<glyph name="registered" format="2">
  <advance width="638"/>
  <unicode hex="00AE"/>
  <outline>
    <contour>
      <point x="319" y="126" type="curve" smooth="yes"/>
      <point x="483" y="126"/>
      <point x="612" y="257"/>
      <point x="612" y="421" type="curve" smooth="yes"/>
      <point x="612" y="584"/>
      <point x="483" y="714"/>
      <point x="319" y="714" type="curve" smooth="yes"/>
      <point x="155" y="714"/>
      <point x="26" y="584"/>
      <point x="26" y="421" type="curve" smooth="yes"/>
      <point x="26" y="257"/>
      <point x="155" y="126"/>
    </contour>
    <contour>
      <point x="319" y="183" type="curve" smooth="yes"/>
      <point x="187" y="183"/>
      <point x="82" y="289"/>
      <point x="82" y="421" type="curve" smooth="yes"/>
      <point x="82" y="552"/>
      <point x="187" y="657"/>
      <point x="319" y="657" type="curve" smooth="yes"/>
      <point x="451" y="657"/>
      <point x="556" y="552"/>
      <point x="556" y="421" type="curve" smooth="yes"/>
      <point x="556" y="289"/>
      <point x="451" y="183"/>
    </contour>
    <contour>
      <point x="193" y="292" type="line"/>
      <point x="324" y="292" type="line"/>
      <point x="324" y="303" type="line"/>
      <point x="303" y="306"/>
      <point x="295" y="313"/>
      <point x="295" y="348" type="curve" smooth="yes"/>
      <point x="295" y="416" type="line"/>
      <point x="301" y="416" type="line" smooth="yes"/>
      <point x="309" y="416"/>
      <point x="314" y="410"/>
      <point x="320" y="401" type="curve" smooth="yes"/>
      <point x="391" y="292" type="line"/>
      <point x="482" y="292" type="line"/>
      <point x="482" y="302" type="line"/>
      <point x="477" y="305" type="line" smooth="yes"/>
      <point x="458" y="317"/>
      <point x="401" y="405"/>
      <point x="374" y="430" type="curve"/>
      <point x="407" y="436"/>
      <point x="440" y="460"/>
      <point x="440" y="498" type="curve" smooth="yes"/>
      <point x="440" y="545"/>
      <point x="395" y="572"/>
      <point x="323" y="572" type="curve" smooth="yes"/>
      <point x="193" y="572" type="line"/>
      <point x="193" y="561" type="line"/>
      <point x="207" y="557"/>
      <point x="211" y="549"/>
      <point x="211" y="515" type="curve" smooth="yes"/>
      <point x="211" y="348" type="line" smooth="yes"/>
      <point x="211" y="314"/>
      <point x="207" y="307"/>
      <point x="193" y="303" type="curve"/>
    </contour>
    <contour>
      <point x="295" y="438" type="line"/>
      <point x="295" y="551" type="line"/>
      <point x="297" y="551" type="line" smooth="yes"/>
      <point x="334" y="551"/>
      <point x="359" y="529"/>
      <point x="359" y="495" type="curve" smooth="yes"/>
      <point x="359" y="461"/>
      <point x="337" y="438"/>
      <point x="305" y="438" type="curve" smooth="yes"/>
    </contour>
  </outline>
</glyph>
<glyph name="degree" format="2">
  <advance width="301"/>
  <unicode hex="00B0"/>
  <outline>
    <contour>
      <point x="151" y="526" type="curve" smooth="yes"/>
      <point x="119" y="526"/>
      <point x="90" y="554"/>
      <point x="90" y="587" type="curve" smooth="yes"/>
      <point x="90" y="618"/>
      <point x="119" y="646"/>
      <point x="151" y="646" type="curve" smooth="yes"/>
      <point x="183" y="646"/>
      <point x="211" y="618"/>
      <point x="211" y="587" type="curve" smooth="yes"/>
      <point x="211" y="554"/>
      <point x="183" y="526"/>
    </contour>
    <contour>
      <point x="151" y="459" type="curve" smooth="yes"/>
      <point x="220" y="459"/>
      <point x="277" y="517"/>
      <point x="277" y="587" type="curve" smooth="yes"/>
      <point x="277" y="656"/>
      <point x="220" y="713"/>
      <point x="151" y="713" type="curve" smooth="yes"/>
      <point x="81" y="713"/>
      <point x="24" y="656"/>
      <point x="24" y="587" type="curve" smooth="yes"/>
      <point x="24" y="517"/>
      <point x="81" y="459"/>
    </contour>
  </outline>
</glyph>
<glyph name="paragraph" format="2">
  <advance width="723"/>
  <unicode hex="00B6"/>
  <outline>
    <contour>
      <point x="300" y="-250" type="line"/>
      <point x="410" y="-250" type="line"/>
      <point x="410" y="613" type="line"/>
      <point x="495" y="613" type="line"/>
      <point x="495" y="-250" type="line"/>
      <point x="605" y="-250" type="line"/>
      <point x="605" y="537" type="line" smooth="yes"/>
      <point x="605" y="623"/>
      <point x="616" y="642"/>
      <point x="673" y="653" type="curve"/>
      <point x="673" y="700" type="line"/>
      <point x="300" y="700" type="line" smooth="yes"/>
      <point x="149" y="700"/>
      <point x="50" y="597"/>
      <point x="50" y="470" type="curve" smooth="yes"/>
      <point x="50" y="343"/>
      <point x="149" y="238"/>
      <point x="300" y="238" type="curve"/>
    </contour>
  </outline>
</glyph>
<glyph name="AE" format="2">
  <advance width="950"/>
  <unicode hex="00C6"/>
  <outline>
    <contour>
      <point x="-35" y="0" type="line"/>
      <point x="201" y="0" type="line"/>
      <point x="201" y="29" type="line"/>
      <point x="137" y="41"/>
      <point x="120" y="81"/>
      <point x="154" y="140" type="curve" smooth="yes"/>
      <point x="426" y="606" type="line"/>
      <point x="426" y="49" type="line"/>
      <point x="584" y="49" type="line"/>
      <point x="584" y="700" type="line"/>
      <point x="328" y="700" type="line"/>
      <point x="328" y="675" type="line"/>
      <point x="385" y="667"/>
      <point x="388" y="647"/>
      <point x="365" y="609" type="curve" smooth="yes"/>
      <point x="78" y="129" type="line" smooth="yes"/>
      <point x="49" y="81"/>
      <point x="9" y="42"/>
      <point x="-35" y="29" type="curve"/>
    </contour>
    <contour>
      <point x="186" y="215" type="line"/>
      <point x="464" y="215" type="line"/>
      <point x="464" y="268" type="line"/>
      <point x="186" y="268" type="line"/>
    </contour>
    <contour>
      <point x="368" y="0" type="line"/>
      <point x="896" y="0" type="line"/>
      <point x="920" y="182" type="line"/>
      <point x="894" y="186" type="line"/>
      <point x="863" y="114"/>
      <point x="790" y="53"/>
      <point x="698" y="53" type="curve" smooth="yes"/>
      <point x="593" y="53"/>
      <point x="584" y="95"/>
      <point x="584" y="141" type="curve"/>
      <point x="426" y="141" type="line"/>
      <point x="426" y="55"/>
      <point x="415" y="36"/>
      <point x="368" y="25" type="curve"/>
    </contour>
    <contour>
      <point x="747" y="227" type="curve"/>
      <point x="774" y="227" type="line"/>
      <point x="774" y="495" type="line"/>
      <point x="747" y="495" type="line"/>
      <point x="739" y="430"/>
      <point x="697" y="388"/>
      <point x="621" y="388" type="curve" smooth="yes"/>
      <point x="549" y="388" type="line"/>
      <point x="549" y="335" type="line"/>
      <point x="621" y="335" type="line" smooth="yes"/>
      <point x="697" y="335"/>
      <point x="739" y="294"/>
    </contour>
    <contour>
      <point x="875" y="503" type="curve"/>
      <point x="901" y="510" type="line"/>
      <point x="873" y="700" type="line"/>
      <point x="519" y="700" type="line"/>
      <point x="519" y="647" type="line"/>
      <point x="673" y="647" type="line" smooth="yes"/>
      <point x="764" y="647"/>
      <point x="827" y="594"/>
    </contour>
  </outline>
</glyph>
<glyph name="germandbls" format="2">
  <advance width="654"/>
  <unicode hex="00DF"/>
  <outline>
    <contour>
      <point x="445" y="-14" type="curve" smooth="yes"/>
      <point x="551" y="-14"/>
      <point x="634" y="60"/>
      <point x="634" y="161" type="curve" smooth="yes"/>
      <point x="634" y="211"/>
      <point x="614" y="259"/>
      <point x="583" y="284" type="curve" smooth="yes"/>
      <point x="454" y="388" type="line" smooth="yes"/>
      <point x="433" y="405"/>
      <point x="415" y="418"/>
      <point x="415" y="438" type="curve" smooth="yes"/>
      <point x="415" y="497"/>
      <point x="567" y="506"/>
      <point x="567" y="603" type="curve" smooth="yes"/>
      <point x="567" y="666"/>
      <point x="503" y="744"/>
      <point x="368" y="744" type="curve" smooth="yes"/>
      <point x="190" y="744"/>
      <point x="84" y="609"/>
      <point x="84" y="453" type="curve" smooth="yes"/>
      <point x="84" y="454" type="line"/>
      <point x="232" y="454" type="line"/>
      <point x="232" y="519" type="line" smooth="yes"/>
      <point x="232" y="642"/>
      <point x="292" y="693"/>
      <point x="345" y="693" type="curve" smooth="yes"/>
      <point x="388" y="693"/>
      <point x="417" y="658"/>
      <point x="417" y="596" type="curve" smooth="yes"/>
      <point x="417" y="475"/>
      <point x="309" y="436"/>
      <point x="309" y="360" type="curve" smooth="yes"/>
      <point x="309" y="319"/>
      <point x="341" y="288"/>
      <point x="371" y="265" type="curve" smooth="yes"/>
      <point x="473" y="188" type="line" smooth="yes"/>
      <point x="514" y="157"/>
      <point x="538" y="129"/>
      <point x="538" y="93" type="curve" smooth="yes"/>
      <point x="538" y="56"/>
      <point x="514" y="42"/>
      <point x="490" y="42" type="curve" smooth="yes"/>
      <point x="444" y="42"/>
      <point x="408" y="94"/>
      <point x="366" y="178" type="curve"/>
      <point x="280" y="76" type="line"/>
      <point x="322" y="19"/>
      <point x="375" y="-14"/>
    </contour>
    <contour>
      <point x="30" y="0" type="line"/>
      <point x="232" y="0" type="line"/>
      <point x="232" y="137" type="line"/>
      <point x="84" y="137" type="line"/>
      <point x="84" y="58"/>
      <point x="64" y="35"/>
      <point x="30" y="27" type="curve"/>
    </contour>
    <contour>
      <point x="84" y="24" type="line"/>
      <point x="232" y="24" type="line"/>
      <point x="232" y="468" type="line"/>
      <point x="84" y="468" type="line"/>
    </contour>
    <contour>
      <point x="84" y="373" type="curve"/>
      <point x="214" y="420" type="line"/>
      <point x="198" y="480" type="line"/>
      <point x="95" y="479" type="line"/>
      <point x="25" y="450" type="line"/>
      <point x="25" y="430" type="line"/>
      <point x="56" y="426"/>
      <point x="84" y="411"/>
    </contour>
  </outline>
</glyph>
<glyph name="idotless" format="2">
  <advance width="290"/>
  <unicode hex="0131"/>
  <anchor x="143" y="470" name="top"/>
  <outline>
    <contour>
      <point x="79" y="27" type="line"/>
      <point x="227" y="27" type="line"/>
      <point x="227" y="345" type="line"/>
      <point x="79" y="345" type="line"/>
    </contour>
    <component base="empattement_bas" xScale="-1" xOffset="289"/>
    <component base="empattement_haut" xOffset="53" yOffset="-246"/>
  </outline>
</glyph>
<glyph name="OE" format="2">
  <advance width="1060"/>
  <unicode hex="0152"/>
  <outline>
    <contour>
      <point x="397" y="0" type="curve" smooth="yes"/>
      <point x="634" y="0" type="line"/>
      <point x="634" y="700" type="line"/>
      <point x="463" y="700" type="line" smooth="yes"/>
      <point x="217" y="700"/>
      <point x="35" y="540"/>
      <point x="35" y="338" type="curve" smooth="yes"/>
      <point x="35" y="124"/>
      <point x="214" y="0"/>
    </contour>
    <contour>
      <point x="452" y="48" type="curve" smooth="yes"/>
      <point x="320" y="48"/>
      <point x="199" y="179"/>
      <point x="199" y="349" type="curve" smooth="yes"/>
      <point x="199" y="524"/>
      <point x="309" y="647"/>
      <point x="459" y="647" type="curve" smooth="yes"/>
      <point x="536" y="647" type="line"/>
      <point x="536" y="134" type="line" smooth="yes"/>
      <point x="536" y="65"/>
      <point x="509" y="48"/>
    </contour>
    <contour>
      <point x="536" y="49" type="line"/>
      <point x="634" y="49" type="line"/>
      <point x="634" y="700" type="line"/>
      <point x="462" y="700" type="line"/>
      <point x="452" y="647" type="line"/>
      <point x="499" y="646"/>
      <point x="536" y="645"/>
      <point x="536" y="559" type="curve" smooth="yes"/>
    </contour>
    <component base="E" xOffset="438"/>
  </outline>
</glyph>
<glyph name="oe" format="2">
  <advance width="807"/>
  <unicode hex="0153"/>
  <outline>
    <contour>
      <point x="275" y="-14" type="curve" smooth="yes"/>
      <point x="375" y="-14"/>
      <point x="452" y="45"/>
      <point x="491" y="123" type="curve"/>
      <point x="492" y="357" type="line"/>
      <point x="452" y="438"/>
      <point x="368" y="494"/>
      <point x="270" y="494" type="curve" smooth="yes"/>
      <point x="121" y="494"/>
      <point x="25" y="369"/>
      <point x="25" y="239" type="curve" smooth="yes"/>
      <point x="25" y="102"/>
      <point x="134" y="-14"/>
    </contour>
    <contour>
      <point x="301" y="42" type="curve" smooth="yes"/>
      <point x="243" y="42"/>
      <point x="175" y="163"/>
      <point x="175" y="294" type="curve" smooth="yes"/>
      <point x="175" y="376"/>
      <point x="196" y="440"/>
      <point x="244" y="440" type="curve" smooth="yes"/>
      <point x="303" y="440"/>
      <point x="369" y="323"/>
      <point x="369" y="199" type="curve" smooth="yes"/>
      <point x="369" y="117"/>
      <point x="348" y="42"/>
    </contour>
    <component base="e" xOffset="339"/>
  </outline>
</glyph>
<glyph name="longs" format="2">
  <advance width="356"/>
  <unicode hex="017F"/>
  <anchor x="175" y="0" name="bottom"/>
  <outline>
    <component base="empattement_bas_long" xOffset="30" yOffset="250"/>
    <contour>
      <point x="84" y="373" type="curve"/>
      <point x="214" y="420" type="line"/>
      <point x="198" y="480" type="line"/>
      <point x="95" y="479" type="line"/>
      <point x="25" y="450" type="line"/>
      <point x="25" y="430" type="line"/>
      <point x="56" y="426"/>
      <point x="84" y="411"/>
    </contour>
    <component base="f-haut" xOffset="20"/>
    <contour>
      <point x="232" y="468" type="line"/>
      <point x="84" y="468" type="line"/>
      <point x="84" y="24" type="line"/>
      <point x="232" y="24" type="line"/>
    </contour>
  </outline>
</glyph>
<glyph name="acutecomb" format="2">
  <advance width="211"/>
  <unicode hex="0301"/>
  <anchor x="75" y="470" name="_top"/>
  <outline>
    <contour>
      <point x="62" y="534" type="line"/>
      <point x="246" y="715" type="line"/>
      <point x="82" y="715" type="line"/>
      <point x="35" y="549" type="line"/>
    </contour>
  </outline>
</glyph>
<glyph name="circumflexcomb" format="2">
  <advance width="275"/>
  <unicode hex="0302"/>
  <anchor x="136" y="470" name="_top"/>
  <outline>
    <contour>
      <point x="11" y="533" type="line"/>
      <point x="161" y="645" type="line"/>
      <point x="97" y="645" type="line"/>
      <point x="249" y="533" type="line"/>
      <point x="274" y="553" type="line"/>
      <point x="177" y="714" type="line"/>
      <point x="86" y="714" type="line"/>
      <point x="-14" y="553" type="line"/>
    </contour>
  </outline>
</glyph>
<glyph name="tildecomb" format="2">
  <advance width="600"/>
  <unicode hex="0303"/>
  <anchor x="238" y="470" name="_top"/>
  <outline>
    <contour>
      <point x="105" y="577" type="line"/>
      <point x="122" y="603"/>
      <point x="143" y="614"/>
      <point x="164" y="614" type="curve" smooth="yes"/>
      <point x="214" y="614"/>
      <point x="273" y="569"/>
      <point x="319" y="569" type="curve" smooth="yes"/>
      <point x="370" y="569"/>
      <point x="405" y="635"/>
      <point x="423" y="692" type="curve"/>
      <point x="396" y="704" type="line"/>
      <point x="379" y="678"/>
      <point x="358" y="667"/>
      <point x="337" y="667" type="curve" smooth="yes"/>
      <point x="287" y="667"/>
      <point x="228" y="712"/>
      <point x="182" y="712" type="curve" smooth="yes"/>
      <point x="131" y="712"/>
      <point x="96" y="646"/>
      <point x="78" y="589" type="curve"/>
    </contour>
  </outline>
</glyph>
<glyph name="macroncomb" format="2">
  <advance width="364"/>
  <unicode hex="0304"/>
  <anchor x="186" y="470" name="_top"/>
  <outline>
    <contour>
      <point x="45" y="570" type="line"/>
      <point x="319" y="570" type="line"/>
      <point x="319" y="653" type="line"/>
      <point x="45" y="653" type="line"/>
    </contour>
  </outline>
</glyph>
<glyph name="dieresiscomb" format="2">
  <advance width="330"/>
  <unicode hex="0308"/>
  <anchor x="162" y="470" name="_top"/>
  <outline>
    <contour>
      <point x="248" y="550" type="curve" smooth="yes"/>
      <point x="286" y="550"/>
      <point x="321" y="584"/>
      <point x="321" y="629" type="curve" smooth="yes"/>
      <point x="321" y="663"/>
      <point x="292" y="693"/>
      <point x="256" y="693" type="curve" smooth="yes"/>
      <point x="217" y="693"/>
      <point x="183" y="662"/>
      <point x="183" y="617" type="curve" smooth="yes"/>
      <point x="183" y="577"/>
      <point x="216" y="550"/>
    </contour>
    <contour>
      <point x="58" y="550" type="curve" smooth="yes"/>
      <point x="96" y="550"/>
      <point x="131" y="584"/>
      <point x="131" y="629" type="curve" smooth="yes"/>
      <point x="131" y="663"/>
      <point x="102" y="693"/>
      <point x="66" y="693" type="curve" smooth="yes"/>
      <point x="27" y="693"/>
      <point x="-7" y="662"/>
      <point x="-7" y="617" type="curve" smooth="yes"/>
      <point x="-7" y="577"/>
      <point x="26" y="550"/>
    </contour>
  </outline>
</glyph>
<glyph name="commaaccentcomb" format="2">
  <advance width="283"/>
  <unicode hex="0326"/>
  <anchor x="138" y="0" name="_bottom"/>
  <outline>
    <contour>
      <point x="82" y="-264" type="line"/>
      <point x="173" y="-227"/>
      <point x="214" y="-176"/>
      <point x="214" y="-127" type="curve" smooth="yes"/>
      <point x="214" y="-85"/>
      <point x="188" y="-49"/>
      <point x="143" y="-49" type="curve" smooth="yes"/>
      <point x="105" y="-49"/>
      <point x="73" y="-90"/>
      <point x="78" y="-126" type="curve"/>
      <point x="108" y="-128"/>
      <point x="127" y="-144"/>
      <point x="127" y="-171" type="curve" smooth="yes"/>
      <point x="127" y="-196"/>
      <point x="111" y="-219"/>
      <point x="72" y="-242" type="curve"/>
    </contour>
  </outline>
</glyph>
<glyph name="cedillacomb" format="2">
  <advance width="600"/>
  <unicode hex="0327"/>
  <anchor x="275" y="0" name="_bottom"/>
  <outline>
    <contour>
      <point x="231" y="-264" type="curve" smooth="yes"/>
      <point x="306" y="-264"/>
      <point x="367" y="-208"/>
      <point x="367" y="-146" type="curve" smooth="yes"/>
      <point x="367" y="-98"/>
      <point x="329" y="-70"/>
      <point x="278" y="-54" type="curve" smooth="yes"/>
      <point x="246" y="-44" type="line"/>
      <point x="262" y="14" type="line"/>
      <point x="221" y="19" type="line"/>
      <point x="164" y="-89" type="line"/>
      <point x="177" y="-110" type="line"/>
      <point x="215" y="-122" type="line" smooth="yes"/>
      <point x="274" y="-141"/>
      <point x="301" y="-165"/>
      <point x="301" y="-189" type="curve" smooth="yes"/>
      <point x="301" y="-205"/>
      <point x="286" y="-219"/>
      <point x="265" y="-219" type="curve" smooth="yes"/>
      <point x="233" y="-219"/>
      <point x="196" y="-195"/>
      <point x="163" y="-127" type="curve"/>
      <point x="102" y="-193" type="line"/>
      <point x="139" y="-249"/>
      <point x="190" y="-264"/>
    </contour>
  </outline>
</glyph>
<glyph name="emdash" format="2">
  <advance width="950"/>
  <unicode hex="2014"/>
  <outline>
    <contour>
      <point x="0" y="258" type="line"/>
      <point x="950" y="258" type="line"/>
      <point x="950" y="333" type="line"/>
      <point x="0" y="333" type="line"/>
    </contour>
  </outline>
</glyph>
<glyph name="dagger" format="2">
  <advance width="373"/>
  <unicode hex="2020"/>
  <outline>
    <contour>
      <point x="187" y="541" type="curve" smooth="yes"/>
      <point x="196" y="541"/>
      <point x="203" y="548"/>
      <point x="203" y="558" type="curve" smooth="yes"/>
      <point x="203" y="567"/>
      <point x="196" y="574"/>
      <point x="187" y="574" type="curve" smooth="yes"/>
      <point x="178" y="574"/>
      <point x="171" y="567"/>
      <point x="171" y="558" type="curve" smooth="yes"/>
      <point x="171" y="548"/>
      <point x="178" y="541"/>
    </contour>
    <component base="bout_asterisk" xScale="0.1392" xyScale="-0.9903" yScale="-0.1392" yxScale="-0.9903" xOffset="700" yOffset="939"/>
    <component base="bout_asterisk" xOffset="-112" yOffset="11"/>
    <contour>
      <point x="176" y="-44" type="line"/>
      <point x="200" y="-44" type="line"/>
      <point x="270" y="373" type="line"/>
      <point x="193" y="567" type="line"/>
      <point x="178" y="567" type="line"/>
      <point x="106" y="373" type="line"/>
    </contour>
    <component base="bout_asterisk" xScale="-0.1392" xyScale="-0.9903" yScale="-0.1392" yxScale="0.9903" xOffset="-327" yOffset="939"/>
  </outline>
</glyph>
<glyph name="daggerdbl" format="2">
  <advance width="376"/>
  <unicode hex="2021"/>
  <outline>
    <contour>
      <point x="187" y="541" type="curve" smooth="yes"/>
      <point x="196" y="541"/>
      <point x="203" y="548"/>
      <point x="203" y="558" type="curve" smooth="yes"/>
      <point x="203" y="567"/>
      <point x="196" y="574"/>
      <point x="187" y="574" type="curve" smooth="yes"/>
      <point x="178" y="574"/>
      <point x="171" y="567"/>
      <point x="171" y="558" type="curve" smooth="yes"/>
      <point x="171" y="548"/>
      <point x="178" y="541"/>
    </contour>
    <component base="bout_asterisk" xScale="0.1392" xyScale="-0.9903" yScale="-0.1392" yxScale="-0.9903" xOffset="700" yOffset="939"/>
    <component base="bout_asterisk" xOffset="-112" yOffset="11"/>
    <contour>
      <point x="176" y="331" type="line"/>
      <point x="200" y="331" type="line"/>
      <point x="270" y="403" type="line"/>
      <point x="193" y="567" type="line"/>
      <point x="178" y="567" type="line"/>
      <point x="106" y="403" type="line"/>
    </contour>
    <component base="bout_asterisk" xScale="-0.1392" xyScale="-0.9903" yScale="-0.1392" yxScale="0.9903" xOffset="-327" yOffset="939"/>
    <contour>
      <point x="186" y="145" type="curve" smooth="yes"/>
      <point x="177" y="145"/>
      <point x="170" y="138"/>
      <point x="170" y="128" type="curve" smooth="yes"/>
      <point x="170" y="119"/>
      <point x="177" y="112"/>
      <point x="186" y="112" type="curve" smooth="yes"/>
      <point x="195" y="112"/>
      <point x="202" y="119"/>
      <point x="202" y="128" type="curve" smooth="yes"/>
      <point x="202" y="138"/>
      <point x="195" y="145"/>
    </contour>
    <component base="bout_asterisk" xScale="-0.1392" xyScale="0.9903" yScale="0.1392" yxScale="0.9903" xOffset="-324" yOffset="-253"/>
    <component base="bout_asterisk" xScale="-1" yScale="-1" xOffset="488" yOffset="675"/>
    <contour>
      <point x="200" y="337" type="line"/>
      <point x="176" y="337" type="line"/>
      <point x="106" y="283" type="line"/>
      <point x="183" y="119" type="line"/>
      <point x="198" y="119" type="line"/>
      <point x="270" y="283" type="line"/>
    </contour>
    <component base="bout_asterisk" xScale="0.1392" xyScale="0.9903" yScale="0.1392" yxScale="-0.9903" xOffset="703" yOffset="-253"/>
  </outline>
</glyph>
<glyph name="bullet" format="2">
  <advance width="311"/>
  <unicode hex="2022"/>
  <guideline x="148" y="385"/>
  <guideline x="148" y="332"/>
  <outline>
    <contour>
      <point x="156" y="226" type="curve" smooth="yes"/>
      <point x="229" y="226"/>
      <point x="281" y="280"/>
      <point x="281" y="351" type="curve" smooth="yes"/>
      <point x="281" y="419"/>
      <point x="229" y="477"/>
      <point x="156" y="477" type="curve" smooth="yes"/>
      <point x="84" y="477"/>
      <point x="30" y="419"/>
      <point x="30" y="351" type="curve" smooth="yes"/>
      <point x="30" y="280"/>
      <point x="84" y="226"/>
    </contour>
  </outline>
</glyph>
<glyph name="euro" format="2">
  <advance width="643"/>
  <unicode hex="20AC"/>
  <outline>
    <contour>
      <point x="417" y="-14" type="curve" smooth="yes"/>
      <point x="483" y="-14"/>
      <point x="561" y="14"/>
      <point x="610" y="43" type="curve"/>
      <point x="613" y="222" type="line"/>
      <point x="589" y="226" type="line"/>
      <point x="554" y="121"/>
      <point x="505" y="43"/>
      <point x="447" y="43" type="curve" smooth="yes"/>
      <point x="362" y="43"/>
      <point x="267" y="217"/>
      <point x="267" y="389" type="curve" smooth="yes"/>
      <point x="267" y="530"/>
      <point x="309" y="662"/>
      <point x="390" y="662" type="curve" smooth="yes"/>
      <point x="458" y="662"/>
      <point x="516" y="591"/>
      <point x="588" y="480" type="curve"/>
      <point x="610" y="488" type="line"/>
      <point x="606" y="664" type="line"/>
      <point x="558" y="693"/>
      <point x="480" y="714"/>
      <point x="412" y="714" type="curve" smooth="yes"/>
      <point x="250" y="714"/>
      <point x="112" y="558"/>
      <point x="112" y="349" type="curve" smooth="yes"/>
      <point x="112" y="140"/>
      <point x="255" y="-14"/>
    </contour>
    <contour>
      <point x="38" y="456" type="line"/>
      <point x="20" y="396" type="line"/>
      <point x="506" y="396" type="line"/>
      <point x="524" y="456" type="line"/>
    </contour>
    <contour>
      <point x="38" y="318" type="line"/>
      <point x="20" y="258" type="line"/>
      <point x="476" y="258" type="line"/>
      <point x="494" y="318" type="line"/>
    </contour>
  </outline>
</glyph>
<glyph name="trademark" format="2">
  <advance width="907"/>
  <unicode hex="2122"/>
  <outline>
    <contour>
      <point x="115" y="332" type="line"/>
      <point x="286" y="332" type="line"/>
      <point x="286" y="346" type="line"/>
      <point x="277" y="346"/>
      <point x="269" y="365"/>
      <point x="269" y="406" type="curve"/>
      <point x="133" y="406" type="line"/>
      <point x="133" y="356"/>
      <point x="120" y="341"/>
      <point x="115" y="342" type="curve"/>
    </contour>
    <contour>
      <point x="133" y="358" type="line"/>
      <point x="269" y="358" type="line"/>
      <point x="269" y="695" type="line"/>
      <point x="133" y="695" type="line"/>
    </contour>
    <contour>
      <point x="199" y="673" type="line"/>
      <point x="273" y="673" type="line" smooth="yes"/>
      <point x="330" y="673"/>
      <point x="354" y="628"/>
      <point x="367" y="585" type="curve"/>
      <point x="379" y="590" type="line"/>
      <point x="371" y="716" type="line"/>
      <point x="355" y="716" type="line"/>
      <point x="350" y="703"/>
      <point x="338" y="701"/>
      <point x="298" y="701" type="curve" smooth="yes"/>
      <point x="199" y="701" type="line"/>
    </contour>
    <contour>
      <point x="199" y="673" type="line"/>
      <point x="199" y="701" type="line"/>
      <point x="100" y="701" type="line" smooth="yes"/>
      <point x="61" y="701"/>
      <point x="49" y="703"/>
      <point x="44" y="716" type="curve"/>
      <point x="29" y="716" type="line"/>
      <point x="20" y="590" type="line"/>
      <point x="33" y="585" type="line"/>
      <point x="44" y="628"/>
      <point x="70" y="673"/>
      <point x="126" y="673" type="curve" smooth="yes"/>
    </contour>
    <contour>
      <point x="393" y="332" type="line"/>
      <point x="514" y="332" type="line"/>
      <point x="514" y="346" type="line"/>
      <point x="478" y="349"/>
      <point x="458" y="364"/>
      <point x="462" y="418" type="curve" smooth="yes"/>
      <point x="480" y="654" type="line"/>
      <point x="468" y="654" type="line"/>
      <point x="574" y="360" type="line"/>
      <point x="633" y="360" type="line"/>
      <point x="728" y="656" type="line"/>
      <point x="708" y="701" type="line"/>
      <point x="641" y="492" type="line"/>
      <point x="652" y="500" type="line"/>
      <point x="585" y="701" type="line"/>
      <point x="412" y="701" type="line"/>
      <point x="412" y="688" type="line"/>
      <point x="430" y="688"/>
      <point x="446" y="672"/>
      <point x="443" y="630" type="curve" smooth="yes"/>
      <point x="425" y="413" type="line" smooth="yes"/>
      <point x="422" y="374"/>
      <point x="414" y="349"/>
      <point x="393" y="346" type="curve"/>
    </contour>
    <contour>
      <point x="716" y="332" type="line"/>
      <point x="887" y="332" type="line"/>
      <point x="887" y="346" type="line"/>
      <point x="876" y="348"/>
      <point x="870" y="358"/>
      <point x="865" y="406" type="curve" smooth="yes"/>
      <point x="843" y="626" type="line" smooth="yes"/>
      <point x="839" y="664"/>
      <point x="838" y="681"/>
      <point x="852" y="687" type="curve"/>
      <point x="852" y="701" type="line"/>
      <point x="708" y="701" type="line"/>
      <point x="730" y="406" type="line" smooth="yes"/>
      <point x="733" y="364"/>
      <point x="733" y="352"/>
      <point x="716" y="346" type="curve"/>
    </contour>
  </outline>
</glyph>
<glyph name="rightArrow" format="2">
  <advance width="1144"/>
  <unicode hex="2192"/>
  <outline>
    <contour>
      <point x="805" y="-44" type="line"/>
      <point x="1114" y="215" type="line"/>
      <point x="1114" y="273" type="line"/>
      <point x="805" y="532" type="line"/>
      <point x="772" y="498" type="line"/>
      <point x="903" y="226" type="line"/>
      <point x="903" y="264" type="line"/>
      <point x="772" y="-9" type="line"/>
    </contour>
    <contour>
      <point x="138" y="272" type="line"/>
      <point x="138" y="219" type="line"/>
      <point x="900" y="219" type="line"/>
      <point x="900" y="272" type="line"/>
    </contour>
    <component base="eclat-fleche" xScale="1.32" yScale="-1.32" xOffset="111" yOffset="568"/>
    <component base="plume-fleche" xScale="1.32" yScale="1.32" xOffset="108" yOffset="-78"/>
    <component base="plume-fleche" xScale="1.32" yScale="-1.32" xOffset="108" yOffset="572"/>
  </outline>
</glyph>
<glyph name="HandPointingRight" format="2">
  <advance width="1460"/>
  <unicode hex="261E"/>
  <outline>
    <contour>
      <point x="171" y="48" type="line"/>
      <point x="47" y="44" type="line"/>
      <point x="124" y="146" type="line"/>
      <point x="19" y="175" type="line"/>
      <point x="114" y="247" type="line"/>
      <point x="10" y="266" type="line"/>
      <point x="114" y="320" type="line"/>
      <point x="19" y="375" type="line"/>
      <point x="127" y="403" type="line"/>
      <point x="47" y="505" type="line"/>
      <point x="180" y="463" type="line"/>
      <point x="134" y="602" type="line"/>
      <point x="326" y="466" type="line"/>
      <point x="432" y="530"/>
      <point x="578" y="597"/>
      <point x="642" y="617" type="curve"/>
      <point x="721" y="602"/>
      <point x="901" y="551"/>
      <point x="948" y="497" type="curve"/>
      <point x="1269" y="463" type="line" smooth="yes"/>
      <point x="1345" y="455"/>
      <point x="1415" y="445"/>
      <point x="1440" y="383" type="curve"/>
      <point x="1423" y="308"/>
      <point x="1349" y="300"/>
      <point x="1275" y="299" type="curve" smooth="yes"/>
      <point x="1042" y="295" type="line"/>
      <point x="1056" y="275"/>
      <point x="1064" y="247"/>
      <point x="1064" y="225" type="curve" smooth="yes"/>
      <point x="1064" y="187"/>
      <point x="1029" y="136"/>
      <point x="977" y="136" type="curve"/>
      <point x="982" y="123"/>
      <point x="986" y="107"/>
      <point x="986" y="92" type="curve" smooth="yes"/>
      <point x="986" y="32"/>
      <point x="914" y="-17"/>
      <point x="866" y="7" type="curve"/>
      <point x="868" y="-1"/>
      <point x="866" y="-10"/>
      <point x="866" y="-17" type="curve" smooth="yes"/>
      <point x="866" y="-52"/>
      <point x="821" y="-76"/>
      <point x="770" y="-76" type="curve" smooth="yes"/>
      <point x="747" y="-76"/>
      <point x="704" y="-71"/>
      <point x="668" y="-56" type="curve"/>
      <point x="646" y="-55"/>
      <point x="526" y="-30"/>
      <point x="481" y="-6" type="curve" smooth="yes"/>
      <point x="332" y="73" type="line"/>
      <point x="138" y="-76" type="line"/>
    </contour>
    <contour>
      <point x="699" y="-31" type="line"/>
      <point x="813" y="-31" type="line"/>
      <point x="827" y="15" type="line"/>
      <point x="650" y="155" type="line"/>
      <point x="618" y="147" type="line"/>
      <point x="593" y="90" type="line"/>
    </contour>
    <contour>
      <point x="667" y="184" type="line"/>
      <point x="872" y="49" type="line"/>
      <point x="919" y="48" type="line"/>
      <point x="949" y="76" type="line"/>
      <point x="936" y="121" type="line"/>
      <point x="696" y="247" type="line"/>
    </contour>
    <contour>
      <point x="721" y="321" type="line"/>
      <point x="746" y="268" type="line"/>
      <point x="951" y="166" type="line"/>
      <point x="1014" y="191" type="line"/>
      <point x="1021" y="238" type="line"/>
      <point x="993" y="278" type="line"/>
      <point x="943" y="266" type="line"/>
      <point x="852" y="294" type="line"/>
      <point x="770" y="379" type="line"/>
    </contour>
    <contour>
      <point x="633" y="-9" type="line"/>
      <point x="547" y="89" type="line"/>
      <point x="580" y="169" type="line"/>
      <point x="618" y="189" type="line"/>
      <point x="662" y="270" type="line"/>
      <point x="693" y="282" type="line"/>
      <point x="685" y="300" type="line"/>
      <point x="590" y="259" type="line"/>
      <point x="441" y="259" type="line"/>
      <point x="439" y="300" type="line"/>
      <point x="576" y="305" type="line"/>
      <point x="672" y="350" type="line"/>
      <point x="754" y="426" type="line"/>
      <point x="817" y="402" type="line"/>
      <point x="883" y="338" type="line"/>
      <point x="955" y="328" type="line"/>
      <point x="974" y="344" type="line"/>
      <point x="968" y="375" type="line"/>
      <point x="943" y="357" type="line"/>
      <point x="912" y="366" type="line"/>
      <point x="882" y="420" type="line"/>
      <point x="923" y="448" type="line"/>
      <point x="886" y="497" type="line"/>
      <point x="641" y="569" type="line"/>
      <point x="532" y="532"/>
      <point x="436" y="476"/>
      <point x="328" y="404" type="curve"/>
      <point x="307" y="268" type="line"/>
      <point x="345" y="121" type="line"/>
      <point x="511" y="28" type="line"/>
    </contour>
    <contour>
      <point x="980" y="447" type="line"/>
      <point x="1019" y="394" type="line"/>
      <point x="1030" y="338" type="line"/>
      <point x="1360" y="342" type="line"/>
      <point x="1390" y="370" type="line"/>
      <point x="1360" y="408" type="line"/>
    </contour>
    <contour>
      <point x="684" y="185" type="line"/>
      <point x="704" y="229" type="line"/>
      <point x="763" y="199" type="line"/>
      <point x="740" y="152" type="line"/>
    </contour>
    <contour>
      <point x="609" y="94" type="line"/>
      <point x="625" y="130" type="line"/>
      <point x="647" y="136" type="line"/>
      <point x="697" y="101" type="line"/>
      <point x="646" y="45" type="line"/>
    </contour>
    <contour>
      <point x="734" y="317" type="line"/>
      <point x="769" y="358" type="line"/>
      <point x="821" y="313" type="line"/>
      <point x="786" y="261" type="line"/>
      <point x="757" y="280" type="line"/>
    </contour>
  </outline>
</glyph>
<glyph name="A_O" format="2">
  <advance width="1106"/>
  <unicode hex="F1030"/>
  <outline>
    <contour>
      <point x="-35" y="0" type="line"/>
      <point x="214" y="0" type="line"/>
      <point x="214" y="29" type="line"/>
      <point x="137" y="41"/>
      <point x="108" y="76"/>
      <point x="132" y="140" type="curve" smooth="yes"/>
      <point x="292" y="574" type="line"/>
      <point x="253" y="575" type="line"/>
      <point x="376" y="235" type="line"/>
      <point x="534" y="246" type="line"/>
      <point x="364" y="700" type="line"/>
      <point x="279" y="700" type="line"/>
      <point x="56" y="129" type="line" smooth="yes"/>
      <point x="35" y="76"/>
      <point x="12" y="42"/>
      <point x="-35" y="29" type="curve"/>
    </contour>
    <contour>
      <point x="144" y="215" type="line"/>
      <point x="412" y="215" type="line"/>
      <point x="412" y="268" type="line"/>
      <point x="144" y="268" type="line"/>
    </contour>
    <component base="O" xOffset="320"/>
  </outline>
</glyph>
<glyph name="C_H" format="2">
  <advance width="1165"/>
  <unicode hex="F1410"/>
  <outline>
    <contour>
      <point x="413" y="244" type="line"/>
      <point x="440" y="244" type="line"/>
      <point x="453" y="301"/>
      <point x="498" y="332"/>
      <point x="571" y="332" type="curve" smooth="yes"/>
      <point x="951" y="332" type="line"/>
      <point x="951" y="385" type="line"/>
      <point x="571" y="385" type="line" smooth="yes"/>
      <point x="498" y="385"/>
      <point x="453" y="416"/>
      <point x="440" y="473" type="curve"/>
      <point x="413" y="473" type="line"/>
    </contour>
    <component base="C"/>
    <contour>
      <point x="832" y="0" type="line"/>
      <point x="1125" y="0" type="line"/>
      <point x="1125" y="27" type="line"/>
      <point x="1082" y="38"/>
      <point x="1058" y="57"/>
      <point x="1058" y="141" type="curve"/>
      <point x="900" y="141" type="line"/>
      <point x="900" y="57"/>
      <point x="889" y="34"/>
      <point x="832" y="27" type="curve"/>
    </contour>
    <contour>
      <point x="900" y="51" type="line"/>
      <point x="1058" y="51" type="line"/>
      <point x="1058" y="623" type="line"/>
      <point x="900" y="623" type="line"/>
    </contour>
    <contour>
      <point x="900" y="557" type="curve"/>
      <point x="1058" y="557" type="line"/>
      <point x="1058" y="643"/>
      <point x="1082" y="662"/>
      <point x="1125" y="673" type="curve"/>
      <point x="1125" y="700" type="line"/>
      <point x="832" y="700" type="line"/>
      <point x="832" y="673" type="line"/>
      <point x="889" y="666"/>
      <point x="900" y="643"/>
    </contour>
  </outline>
</glyph>
<glyph name="c_h" format="2">
  <advance width="834"/>
  <unicode hex="F1510"/>
  <outline>
    <contour>
      <point x="256" y="439" type="curve"/>
      <point x="256" y="494" type="line"/>
      <point x="138" y="494"/>
      <point x="20" y="369"/>
      <point x="20" y="228" type="curve" smooth="yes"/>
      <point x="20" y="90"/>
      <point x="119" y="-13"/>
      <point x="246" y="-13" type="curve" smooth="yes"/>
      <point x="331" y="-13"/>
      <point x="417" y="51"/>
      <point x="457" y="113" type="curve"/>
      <point x="435" y="135" type="line"/>
      <point x="397" y="101"/>
      <point x="349" y="76"/>
      <point x="304" y="76" type="curve" smooth="yes"/>
      <point x="224" y="76"/>
      <point x="159" y="167"/>
      <point x="159" y="277" type="curve" smooth="yes"/>
      <point x="159" y="357"/>
      <point x="187" y="429"/>
    </contour>
    <contour>
      <point x="321" y="178" type="line"/>
      <point x="357" y="178" type="line"/>
      <point x="469" y="248" type="line"/>
      <point x="469" y="645" type="line"/>
      <point x="321" y="645" type="line"/>
    </contour>
    <component base="empattement_haut" xOffset="295" yOffset="4"/>
    <component base="epaule" xOffset="244" identifier="622D8032"/>
    <component base="empattement_bas_long" xScale="-1" xOffset="826" yOffset="250"/>
  </outline>
</glyph>
<glyph name="c_q" format="2">
  <advance width="434"/>
  <unicode hex="F1540"/>
  <outline>
    <contour>
      <point x="279" y="-191" type="line"/>
      <point x="427" y="-191" type="line"/>
      <point x="427" y="95" type="line"/>
      <point x="279" y="37" type="line"/>
    </contour>
    <component base="empattement_bas_long" xScale="-1" xOffset="481"/>
    <component base="c"/>
  </outline>
</glyph>
<glyph name="D_U_D_E_L_A" format="2">
  <advance width="2532"/>
  <unicode hex="F1630"/>
  <outline>
    <component base="D"/>
    <contour>
      <point x="1007" y="390" type="curve" smooth="yes"/>
      <point x="1110" y="390"/>
      <point x="1196" y="462"/>
      <point x="1196" y="562" type="curve" smooth="yes"/>
      <point x="1196" y="601" type="line" smooth="yes"/>
      <point x="1196" y="655"/>
      <point x="1220" y="673"/>
      <point x="1250" y="681" type="curve"/>
      <point x="1250" y="700" type="line"/>
      <point x="1077" y="700" type="line"/>
      <point x="1077" y="681" type="line"/>
      <point x="1117" y="676"/>
      <point x="1150" y="655"/>
      <point x="1150" y="601" type="curve" smooth="yes"/>
      <point x="1150" y="562" type="line" smooth="yes"/>
      <point x="1150" y="492"/>
      <point x="1103" y="443"/>
      <point x="1035" y="443" type="curve" smooth="yes"/>
      <point x="963" y="443"/>
      <point x="914" y="497"/>
      <point x="914" y="571" type="curve" smooth="yes"/>
      <point x="914" y="648" type="line"/>
      <point x="803" y="648" type="line"/>
      <point x="803" y="565" type="line" smooth="yes"/>
      <point x="803" y="448"/>
      <point x="897" y="390"/>
    </contour>
    <contour>
      <point x="803" y="601" type="curve"/>
      <point x="914" y="601" type="line"/>
      <point x="914" y="655"/>
      <point x="949" y="676"/>
      <point x="971" y="681" type="curve"/>
      <point x="971" y="700" type="line"/>
      <point x="758" y="700" type="line"/>
      <point x="758" y="681" type="line"/>
      <point x="790" y="673"/>
      <point x="803" y="655"/>
    </contour>
    <contour>
      <point x="860" y="34" type="line"/>
      <point x="970" y="34" type="line"/>
      <point x="970" y="336" type="line"/>
      <point x="819" y="336" type="line"/>
      <point x="819" y="319" type="line"/>
      <point x="852" y="311"/>
      <point x="860" y="298"/>
      <point x="860" y="237" type="curve" smooth="yes"/>
    </contour>
    <contour>
      <point x="819" y="0" type="line"/>
      <point x="1189" y="0" type="line"/>
      <point x="1205" y="127" type="line"/>
      <point x="1187" y="130" type="line"/>
      <point x="1166" y="80"/>
      <point x="1114" y="37"/>
      <point x="1050" y="37" type="curve" smooth="yes"/>
      <point x="977" y="37"/>
      <point x="970" y="67"/>
      <point x="970" y="99" type="curve"/>
      <point x="860" y="99" type="line"/>
      <point x="860" y="39"/>
      <point x="852" y="25"/>
      <point x="819" y="18" type="curve"/>
    </contour>
    <contour>
      <point x="1084" y="97" type="curve"/>
      <point x="1103" y="97" type="line"/>
      <point x="1103" y="245" type="line"/>
      <point x="1084" y="245" type="line"/>
      <point x="1079" y="199"/>
      <point x="1049" y="190"/>
      <point x="996" y="190" type="curve" smooth="yes"/>
      <point x="946" y="190" type="line"/>
      <point x="946" y="153" type="line"/>
      <point x="996" y="153" type="line" smooth="yes"/>
      <point x="1049" y="153"/>
      <point x="1079" y="144"/>
    </contour>
    <contour>
      <point x="1174" y="198" type="curve"/>
      <point x="1192" y="203" type="line"/>
      <point x="1173" y="336" type="line"/>
      <point x="925" y="336" type="line"/>
      <point x="925" y="299" type="line"/>
      <point x="1033" y="299" type="line" smooth="yes"/>
      <point x="1096" y="299"/>
      <point x="1140" y="262"/>
    </contour>
    <component base="L" xOffset="1259"/>
    <component base="A" xOffset="1887"/>
  </outline>
</glyph>
<glyph name="d_u_d_e_l_a" format="2">
  <advance width="1936"/>
  <unicode hex="F1730"/>
  <outline>
    <component base="panse" xScale="-1" yScale="-1" xOffset="580" yOffset="230"/>
    <contour>
      <point x="345" y="-189" type="line"/>
      <point x="493" y="-169" type="line"/>
      <point x="493" y="666" type="line"/>
      <point x="345" y="666" type="line"/>
    </contour>
    <component base="empattement_haut" xOffset="319" yOffset="5"/>
    <component base="empattement_decale" xScale="-1" yScale="-1" xOffset="566" yOffset="223"/>
    <component base="u" yScale="0.93" xOffset="559" yOffset="285"/>
    <component base="e" yScale="0.93" xOffset="619" yOffset="-252"/>
    <contour>
      <point x="1211" y="-211" type="line"/>
      <point x="1359" y="-211" type="line"/>
      <point x="1359" y="646" type="line"/>
      <point x="1211" y="646" type="line"/>
    </contour>
    <component base="empattement_haut" xOffset="1185" yOffset="5" identifier="595E72A9"/>
    <component base="empattement_bas" xOffset="1149" yOffset="-250" identifier="5BA230D5"/>
    <component base="a" xOffset="1412"/>
  </outline>
</glyph>
<glyph name="Enb" format="2">
  <advance width="592"/>
  <unicode hex="F1800"/>
  <outline>
    <contour>
      <point x="311" y="-11" type="curve" smooth="yes"/>
      <point x="404" y="-11"/>
      <point x="492" y="16"/>
      <point x="553" y="36" type="curve"/>
      <point x="567" y="218" type="line"/>
      <point x="544" y="224" type="line"/>
      <point x="490" y="124"/>
      <point x="428" y="47"/>
      <point x="352" y="47" type="curve" smooth="yes"/>
      <point x="274" y="47"/>
      <point x="215" y="116"/>
      <point x="215" y="196" type="curve" smooth="yes"/>
      <point x="215" y="263"/>
      <point x="249" y="335"/>
      <point x="315" y="335" type="curve" smooth="yes"/>
      <point x="362" y="335"/>
      <point x="396" y="293"/>
      <point x="412" y="231" type="curve"/>
      <point x="439" y="231" type="line"/>
      <point x="439" y="486" type="line"/>
      <point x="415" y="486" type="line"/>
      <point x="400" y="425"/>
      <point x="367" y="388"/>
      <point x="320" y="388" type="curve" smooth="yes"/>
      <point x="251" y="388"/>
      <point x="207" y="457"/>
      <point x="207" y="519" type="curve" smooth="yes"/>
      <point x="207" y="597"/>
      <point x="263" y="656"/>
      <point x="334" y="656" type="curve" smooth="yes"/>
      <point x="405" y="656"/>
      <point x="459" y="605"/>
      <point x="528" y="500" type="curve"/>
      <point x="550" y="508" type="line"/>
      <point x="548" y="668" type="line"/>
      <point x="488" y="692"/>
      <point x="421" y="712"/>
      <point x="330" y="712" type="curve" smooth="yes"/>
      <point x="189" y="712"/>
      <point x="52" y="648"/>
      <point x="52" y="516" type="curve" smooth="yes"/>
      <point x="52" y="424"/>
      <point x="131" y="359"/>
      <point x="201" y="353" type="curve"/>
      <point x="129" y="346"/>
      <point x="50" y="280"/>
      <point x="50" y="178" type="curve" smooth="yes"/>
      <point x="50" y="57"/>
      <point x="171" y="-11"/>
    </contour>
  </outline>
</glyph>
<glyph name="E_A" format="2">
  <advance width="1192"/>
  <unicode hex="F1810"/>
  <outline>
    <contour>
      <point x="40" y="0" type="line"/>
      <point x="761" y="0" type="line"/>
      <point x="761" y="27" type="line"/>
      <point x="684" y="39"/>
      <point x="655" y="76"/>
      <point x="679" y="140" type="curve" smooth="yes"/>
      <point x="839" y="574" type="line"/>
      <point x="800" y="575" type="line"/>
      <point x="954" y="151" type="line" smooth="yes"/>
      <point x="979" y="81"/>
      <point x="956" y="31"/>
      <point x="902" y="27" type="curve"/>
      <point x="902" y="0" type="line"/>
      <point x="1207" y="0" type="line"/>
      <point x="1207" y="27" type="line"/>
      <point x="1172" y="39"/>
      <point x="1146" y="71"/>
      <point x="1121" y="137" type="curve" smooth="yes"/>
      <point x="911" y="700" type="line"/>
      <point x="826" y="700" type="line"/>
      <point x="603" y="129" type="line" smooth="yes"/>
      <point x="574" y="54"/>
      <point x="502" y="53"/>
      <point x="410" y="53" type="curve" smooth="yes"/>
      <point x="305" y="53"/>
      <point x="256" y="65"/>
      <point x="256" y="141" type="curve"/>
      <point x="98" y="141" type="line"/>
      <point x="98" y="55"/>
      <point x="87" y="36"/>
      <point x="40" y="25" type="curve"/>
    </contour>
    <contour>
      <point x="98" y="49" type="line"/>
      <point x="256" y="49" type="line"/>
      <point x="256" y="700" type="line"/>
      <point x="40" y="700" type="line"/>
      <point x="40" y="675" type="line"/>
      <point x="87" y="664"/>
      <point x="98" y="645"/>
      <point x="98" y="559" type="curve" smooth="yes"/>
    </contour>
    <contour>
      <point x="419" y="227" type="curve"/>
      <point x="446" y="227" type="line"/>
      <point x="446" y="495" type="line"/>
      <point x="419" y="495" type="line"/>
      <point x="411" y="430"/>
      <point x="369" y="388"/>
      <point x="293" y="388" type="curve" smooth="yes"/>
      <point x="221" y="388" type="line"/>
      <point x="221" y="335" type="line"/>
      <point x="293" y="335" type="line" smooth="yes"/>
      <point x="369" y="335"/>
      <point x="411" y="294"/>
    </contour>
    <contour>
      <point x="567" y="503" type="curve"/>
      <point x="593" y="510" type="line"/>
      <point x="565" y="700" type="line"/>
      <point x="211" y="700" type="line"/>
      <point x="211" y="647" type="line"/>
      <point x="365" y="647" type="line" smooth="yes"/>
      <point x="456" y="647"/>
      <point x="519" y="594"/>
    </contour>
    <contour>
      <point x="691" y="215" type="line"/>
      <point x="959" y="215" type="line"/>
      <point x="959" y="268" type="line"/>
      <point x="691" y="268" type="line"/>
    </contour>
  </outline>
</glyph>
<glyph name="E_S_S" format="2">
  <advance width="1911"/>
  <unicode hex="F18E0"/>
  <outline>
    <contour>
      <point x="898" y="-14" type="curve" smooth="yes"/>
      <point x="1029" y="-14"/>
      <point x="1163" y="68"/>
      <point x="1163" y="219" type="curve" smooth="yes"/>
      <point x="1163" y="310"/>
      <point x="1115" y="364"/>
      <point x="1024" y="405" type="curve" smooth="yes"/>
      <point x="891" y="465" type="line" smooth="yes"/>
      <point x="841" y="488"/>
      <point x="808" y="519"/>
      <point x="808" y="567" type="curve" smooth="yes"/>
      <point x="808" y="620"/>
      <point x="849" y="660"/>
      <point x="907" y="660" type="curve" smooth="yes"/>
      <point x="965" y="660"/>
      <point x="1049" y="620"/>
      <point x="1121" y="486" type="curve" smooth="yes"/>
      <point x="1293" y="167" type="line" smooth="yes"/>
      <point x="1369" y="26"/>
      <point x="1481" y="-14"/>
      <point x="1590" y="-14" type="curve" smooth="yes"/>
      <point x="1750" y="-14"/>
      <point x="1871" y="71"/>
      <point x="1871" y="218" type="curve" smooth="yes"/>
      <point x="1871" y="311"/>
      <point x="1823" y="364"/>
      <point x="1732" y="405" type="curve" smooth="yes"/>
      <point x="1599" y="465" type="line" smooth="yes"/>
      <point x="1549" y="488"/>
      <point x="1516" y="520"/>
      <point x="1516" y="567" type="curve" smooth="yes"/>
      <point x="1516" y="620"/>
      <point x="1558" y="658"/>
      <point x="1609" y="658" type="curve" smooth="yes"/>
      <point x="1674" y="658"/>
      <point x="1728" y="600"/>
      <point x="1805" y="479" type="curve"/>
      <point x="1829" y="485" type="line"/>
      <point x="1823" y="670" type="line"/>
      <point x="1779" y="701"/>
      <point x="1711" y="713"/>
      <point x="1652" y="713" type="curve" smooth="yes"/>
      <point x="1495" y="713"/>
      <point x="1399" y="627"/>
      <point x="1399" y="503" type="curve" smooth="yes"/>
      <point x="1399" y="425"/>
      <point x="1436" y="357"/>
      <point x="1542" y="308" type="curve" smooth="yes"/>
      <point x="1670" y="249" type="line" smooth="yes"/>
      <point x="1730" y="221"/>
      <point x="1758" y="182"/>
      <point x="1758" y="137" type="curve" smooth="yes"/>
      <point x="1758" y="83"/>
      <point x="1715" y="47"/>
      <point x="1651" y="47" type="curve" smooth="yes"/>
      <point x="1588" y="47"/>
      <point x="1512" y="83"/>
      <point x="1449" y="198" type="curve" smooth="yes"/>
      <point x="1273" y="520" type="line" smooth="yes"/>
      <point x="1206" y="642"/>
      <point x="1108" y="713"/>
      <point x="957" y="713" type="curve" smooth="yes"/>
      <point x="791" y="713"/>
      <point x="691" y="627"/>
      <point x="691" y="502" type="curve" smooth="yes"/>
      <point x="691" y="426"/>
      <point x="728" y="357"/>
      <point x="834" y="308" type="curve" smooth="yes"/>
      <point x="962" y="249" type="line" smooth="yes"/>
      <point x="1022" y="221"/>
      <point x="1050" y="181"/>
      <point x="1050" y="139" type="curve" smooth="yes"/>
      <point x="1050" y="83"/>
      <point x="1001" y="50"/>
      <point x="939" y="50" type="curve" smooth="yes"/>
      <point x="826" y="50"/>
      <point x="692" y="161"/>
      <point x="659" y="275" type="curve"/>
      <point x="634" y="275" type="line"/>
      <point x="581" y="113"/>
      <point x="462" y="53"/>
      <point x="356" y="53" type="curve" smooth="yes"/>
      <point x="256" y="53"/>
      <point x="256" y="107"/>
      <point x="256" y="141" type="curve" smooth="yes"/>
      <point x="256" y="335" type="line"/>
      <point x="293" y="335" type="line" smooth="yes"/>
      <point x="369" y="335"/>
      <point x="411" y="294"/>
      <point x="419" y="227" type="curve"/>
      <point x="446" y="227" type="line"/>
      <point x="446" y="495" type="line"/>
      <point x="419" y="495" type="line"/>
      <point x="411" y="430"/>
      <point x="369" y="388"/>
      <point x="293" y="388" type="curve" smooth="yes"/>
      <point x="256" y="388" type="line"/>
      <point x="256" y="647" type="line"/>
      <point x="345" y="647" type="line" smooth="yes"/>
      <point x="436" y="647"/>
      <point x="499" y="594"/>
      <point x="547" y="503" type="curve"/>
      <point x="573" y="510" type="line"/>
      <point x="545" y="700" type="line"/>
      <point x="40" y="700" type="line"/>
      <point x="40" y="675" type="line"/>
      <point x="87" y="664"/>
      <point x="98" y="645"/>
      <point x="98" y="559" type="curve" smooth="yes"/>
      <point x="98" y="141" type="line" smooth="yes"/>
      <point x="98" y="55"/>
      <point x="87" y="36"/>
      <point x="40" y="25" type="curve"/>
      <point x="40" y="0" type="line"/>
      <point x="362" y="0" type="line" smooth="yes"/>
      <point x="479" y="0"/>
      <point x="604" y="43"/>
      <point x="639" y="81" type="curve"/>
      <point x="675" y="42"/>
      <point x="784" y="-14"/>
    </contour>
  </outline>
</glyph>
<glyph name="enb" format="2">
  <advance width="434"/>
  <unicode hex="F1900"/>
  <outline>
    <contour>
      <point x="219" y="-14" type="curve" smooth="yes"/>
      <point x="311" y="-14"/>
      <point x="369" y="35"/>
      <point x="418" y="96" type="curve"/>
      <point x="396" y="118" type="line"/>
      <point x="366" y="93"/>
      <point x="327" y="76"/>
      <point x="287" y="76" type="curve" smooth="yes"/>
      <point x="236" y="76"/>
      <point x="190" y="105"/>
      <point x="190" y="145" type="curve" smooth="yes"/>
      <point x="190" y="186"/>
      <point x="234" y="210"/>
      <point x="280" y="210" type="curve" smooth="yes"/>
      <point x="329" y="210" type="line"/>
      <point x="352" y="254" type="line"/>
      <point x="345" y="273" type="line"/>
      <point x="259" y="273" type="line" smooth="yes"/>
      <point x="201" y="273"/>
      <point x="160" y="310"/>
      <point x="160" y="363" type="curve" smooth="yes"/>
      <point x="160" y="408"/>
      <point x="196" y="442"/>
      <point x="237" y="442" type="curve" smooth="yes"/>
      <point x="290" y="442"/>
      <point x="333" y="368"/>
      <point x="355" y="315" type="curve"/>
      <point x="424" y="427" type="line"/>
      <point x="368" y="479"/>
      <point x="308" y="494"/>
      <point x="241" y="494" type="curve" smooth="yes"/>
      <point x="126" y="494"/>
      <point x="35" y="435"/>
      <point x="35" y="351" type="curve" smooth="yes"/>
      <point x="35" y="281"/>
      <point x="97" y="239"/>
      <point x="169" y="237" type="curve"/>
      <point x="95" y="231"/>
      <point x="42" y="174"/>
      <point x="42" y="114" type="curve" smooth="yes"/>
      <point x="42" y="40"/>
      <point x="122" y="-14"/>
    </contour>
  </outline>
</glyph>
<glyph name="e_a" format="2">
  <advance width="892"/>
  <unicode hex="F1910"/>
  <outline>
    <contour>
      <point x="244" y="-13" type="curve" smooth="yes"/>
      <point x="312" y="-13"/>
      <point x="370" y="21"/>
      <point x="412" y="66" type="curve"/>
      <point x="426" y="17"/>
      <point x="476" y="-14"/>
      <point x="535" y="-14" type="curve" smooth="yes"/>
      <point x="613" y="-14"/>
      <point x="671" y="31"/>
      <point x="707" y="69" type="curve"/>
      <point x="704" y="115" type="line"/>
      <point x="682" y="92"/>
      <point x="652" y="61"/>
      <point x="620" y="61" type="curve" smooth="yes"/>
      <point x="586" y="61"/>
      <point x="563" y="86"/>
      <point x="563" y="118" type="curve" smooth="yes"/>
      <point x="563" y="159"/>
      <point x="595" y="182"/>
      <point x="644" y="197" type="curve" smooth="yes"/>
      <point x="705" y="216" type="line"/>
      <point x="705" y="264" type="line"/>
      <point x="562" y="225" type="line" smooth="yes"/>
      <point x="494" y="206"/>
      <point x="424" y="174"/>
      <point x="411" y="115" type="curve"/>
      <point x="380" y="92"/>
      <point x="349" y="77"/>
      <point x="318" y="77" type="curve" smooth="yes"/>
      <point x="241" y="77"/>
      <point x="177" y="133"/>
      <point x="168" y="259" type="curve"/>
      <point x="453" y="259" type="line"/>
      <point x="453" y="362"/>
      <point x="410" y="494"/>
      <point x="269" y="494" type="curve" smooth="yes"/>
      <point x="136" y="494"/>
      <point x="25" y="364"/>
      <point x="25" y="223" type="curve" smooth="yes"/>
      <point x="25" y="83"/>
      <point x="129" y="-13"/>
    </contour>
    <contour>
      <point x="167" y="304" type="line"/>
      <point x="171" y="370"/>
      <point x="196" y="438"/>
      <point x="242" y="438" type="curve" smooth="yes"/>
      <point x="287" y="438"/>
      <point x="305" y="362"/>
      <point x="305" y="304" type="curve"/>
    </contour>
    <contour>
      <point x="470" y="440" type="curve"/>
      <point x="489" y="395" type="line"/>
      <point x="531" y="414"/>
      <point x="573" y="422"/>
      <point x="605" y="422" type="curve" smooth="yes"/>
      <point x="660" y="422"/>
      <point x="664" y="390"/>
      <point x="664" y="314" type="curve" smooth="yes"/>
      <point x="664" y="63" type="line" smooth="yes"/>
      <point x="664" y="11"/>
      <point x="703" y="-14"/>
      <point x="747" y="-14" type="curve" smooth="yes"/>
      <point x="801" y="-14"/>
      <point x="849" y="21"/>
      <point x="887" y="55" type="curve"/>
      <point x="872" y="80" type="line"/>
      <point x="860" y="72"/>
      <point x="846" y="66"/>
      <point x="834" y="66" type="curve" smooth="yes"/>
      <point x="822" y="66"/>
      <point x="812" y="73"/>
      <point x="812" y="93" type="curve" smooth="yes"/>
      <point x="812" y="359" type="line" smooth="yes"/>
      <point x="812" y="441"/>
      <point x="751" y="494"/>
      <point x="666" y="494" type="curve" smooth="yes"/>
      <point x="613" y="494"/>
      <point x="555" y="484"/>
    </contour>
  </outline>
</glyph>
<glyph name="e_s_s" format="2">
  <advance width="1419"/>
  <unicode hex="F19E0"/>
  <outline>
    <contour>
      <point x="678" y="-14" type="curve" smooth="yes"/>
      <point x="791" y="-14"/>
      <point x="871" y="60"/>
      <point x="871" y="156" type="curve" smooth="yes"/>
      <point x="871" y="220"/>
      <point x="835" y="262"/>
      <point x="771" y="290" type="curve" smooth="yes"/>
      <point x="679" y="330" type="line" smooth="yes"/>
      <point x="649" y="343"/>
      <point x="615" y="358"/>
      <point x="615" y="393" type="curve" smooth="yes"/>
      <point x="615" y="421"/>
      <point x="636" y="443"/>
      <point x="670" y="443" type="curve" smooth="yes"/>
      <point x="727" y="443"/>
      <point x="807" y="390"/>
      <point x="911" y="200" type="curve" smooth="yes"/>
      <point x="1012" y="16"/>
      <point x="1131" y="-14"/>
      <point x="1206" y="-14" type="curve" smooth="yes"/>
      <point x="1319" y="-14"/>
      <point x="1399" y="60"/>
      <point x="1399" y="156" type="curve" smooth="yes"/>
      <point x="1399" y="220"/>
      <point x="1363" y="262"/>
      <point x="1299" y="290" type="curve" smooth="yes"/>
      <point x="1207" y="330" type="line" smooth="yes"/>
      <point x="1177" y="343"/>
      <point x="1143" y="358"/>
      <point x="1143" y="393" type="curve" smooth="yes"/>
      <point x="1143" y="421"/>
      <point x="1164" y="443"/>
      <point x="1198" y="443" type="curve" smooth="yes"/>
      <point x="1255" y="443"/>
      <point x="1298" y="383"/>
      <point x="1329" y="330" type="curve"/>
      <point x="1387" y="438" type="line"/>
      <point x="1346" y="474"/>
      <point x="1288" y="495"/>
      <point x="1230" y="495" type="curve" smooth="yes"/>
      <point x="1125" y="495"/>
      <point x="1038" y="427"/>
      <point x="1038" y="336" type="curve" smooth="yes"/>
      <point x="1038" y="287"/>
      <point x="1063" y="236"/>
      <point x="1136" y="204" type="curve" smooth="yes"/>
      <point x="1230" y="163" type="line" smooth="yes"/>
      <point x="1279" y="142"/>
      <point x="1304" y="120"/>
      <point x="1304" y="88" type="curve" smooth="yes"/>
      <point x="1304" y="55"/>
      <point x="1277" y="42"/>
      <point x="1248" y="42" type="curve" smooth="yes"/>
      <point x="1200" y="42"/>
      <point x="1115" y="85"/>
      <point x="996" y="289" type="curve" smooth="yes"/>
      <point x="880" y="488"/>
      <point x="760" y="495"/>
      <point x="702" y="495" type="curve" smooth="yes"/>
      <point x="597" y="495"/>
      <point x="510" y="427"/>
      <point x="510" y="336" type="curve" smooth="yes"/>
      <point x="510" y="287"/>
      <point x="535" y="236"/>
      <point x="608" y="204" type="curve" smooth="yes"/>
      <point x="702" y="163" type="line" smooth="yes"/>
      <point x="751" y="142"/>
      <point x="776" y="120"/>
      <point x="776" y="88" type="curve" smooth="yes"/>
      <point x="776" y="57"/>
      <point x="751" y="41"/>
      <point x="719" y="41" type="curve" smooth="yes"/>
      <point x="653" y="41"/>
      <point x="552" y="125"/>
      <point x="524" y="190" type="curve"/>
      <point x="488" y="193" type="line"/>
      <point x="433" y="119"/>
      <point x="381" y="77"/>
      <point x="316" y="77" type="curve" smooth="yes"/>
      <point x="242" y="77"/>
      <point x="177" y="133"/>
      <point x="168" y="259" type="curve"/>
      <point x="453" y="259" type="line"/>
      <point x="453" y="362"/>
      <point x="409" y="494"/>
      <point x="271" y="494" type="curve" smooth="yes"/>
      <point x="135" y="494"/>
      <point x="25" y="364"/>
      <point x="25" y="221" type="curve" smooth="yes"/>
      <point x="25" y="83"/>
      <point x="128" y="-13"/>
      <point x="248" y="-13" type="curve" smooth="yes"/>
      <point x="344" y="-13"/>
      <point x="425" y="39"/>
      <point x="471" y="88" type="curve"/>
      <point x="529" y="15"/>
      <point x="600" y="-14"/>
    </contour>
    <contour>
      <point x="167" y="304" type="line"/>
      <point x="171" y="370"/>
      <point x="196" y="438"/>
      <point x="241" y="438" type="curve" smooth="yes"/>
      <point x="288" y="438"/>
      <point x="305" y="361"/>
      <point x="305" y="304" type="curve"/>
    </contour>
  </outline>
</glyph>
<glyph name="F_V" format="2">
  <advance width="1109"/>
  <unicode hex="F2050"/>
  <outline>
    <contour>
      <point x="96" y="49" type="line"/>
      <point x="254" y="49" type="line"/>
      <point x="254" y="700" type="line"/>
      <point x="40" y="700" type="line"/>
      <point x="40" y="675" type="line"/>
      <point x="84" y="668"/>
      <point x="96" y="645"/>
      <point x="96" y="559" type="curve" smooth="yes"/>
    </contour>
    <contour>
      <point x="40" y="0" type="line"/>
      <point x="353" y="0" type="line"/>
      <point x="353" y="27" type="line"/>
      <point x="288" y="39"/>
      <point x="254" y="54"/>
      <point x="254" y="141" type="curve"/>
      <point x="96" y="141" type="line"/>
      <point x="96" y="55"/>
      <point x="87" y="33"/>
      <point x="40" y="27" type="curve"/>
    </contour>
    <contour>
      <point x="406" y="216" type="curve"/>
      <point x="433" y="216" type="line"/>
      <point x="433" y="494" type="line"/>
      <point x="406" y="494" type="line"/>
      <point x="398" y="437"/>
      <point x="366" y="387"/>
      <point x="280" y="387" type="curve" smooth="yes"/>
      <point x="195" y="387" type="line"/>
      <point x="195" y="334" type="line"/>
      <point x="280" y="334" type="line" smooth="yes"/>
      <point x="366" y="334"/>
      <point x="396" y="280"/>
    </contour>
    <contour>
      <point x="584" y="504" type="curve"/>
      <point x="610" y="511" type="line"/>
      <point x="581" y="700" type="line"/>
      <point x="177" y="700" type="line"/>
      <point x="177" y="647" type="line"/>
      <point x="412" y="647" type="line" smooth="yes"/>
      <point x="502" y="647"/>
      <point x="537" y="626"/>
    </contour>
    <component base="V" xOffset="477"/>
  </outline>
</glyph>
<glyph name="G_U" format="2">
  <advance width="1204"/>
  <unicode hex="F2210"/>
  <outline>
    <contour>
      <point x="427" y="-14" type="curve" smooth="yes"/>
      <point x="527" y="-14"/>
      <point x="592" y="10"/>
      <point x="654" y="37" type="curve"/>
      <point x="705" y="3"/>
      <point x="771" y="-14"/>
      <point x="841" y="-14" type="curve" smooth="yes"/>
      <point x="988" y="-14"/>
      <point x="1112" y="88"/>
      <point x="1112" y="246" type="curve" smooth="yes"/>
      <point x="1112" y="559" type="line" smooth="yes"/>
      <point x="1112" y="635"/>
      <point x="1146" y="662"/>
      <point x="1189" y="673" type="curve"/>
      <point x="1189" y="700" type="line"/>
      <point x="941" y="700" type="line"/>
      <point x="941" y="673" type="line"/>
      <point x="998" y="666"/>
      <point x="1045" y="635"/>
      <point x="1045" y="559" type="curve" smooth="yes"/>
      <point x="1045" y="245" type="line" smooth="yes"/>
      <point x="1045" y="131"/>
      <point x="978" y="62"/>
      <point x="881" y="62" type="curve" smooth="yes"/>
      <point x="795" y="62"/>
      <point x="704" y="104"/>
      <point x="704" y="199" type="curve" smooth="yes"/>
      <point x="704" y="226" type="line" smooth="yes"/>
      <point x="704" y="309"/>
      <point x="721" y="325"/>
      <point x="751" y="335" type="curve"/>
      <point x="751" y="362" type="line"/>
      <point x="434" y="362" type="line"/>
      <point x="434" y="335" type="line"/>
      <point x="505" y="329"/>
      <point x="560" y="305"/>
      <point x="560" y="220" type="curve" smooth="yes"/>
      <point x="560" y="74" type="line"/>
      <point x="540" y="56"/>
      <point x="498" y="43"/>
      <point x="469" y="43" type="curve" smooth="yes"/>
      <point x="331" y="43"/>
      <point x="222" y="210"/>
      <point x="222" y="384" type="curve" smooth="yes"/>
      <point x="222" y="535"/>
      <point x="281" y="663"/>
      <point x="392" y="663" type="curve" smooth="yes"/>
      <point x="484" y="663"/>
      <point x="570" y="576"/>
      <point x="649" y="478" type="curve"/>
      <point x="672" y="486" type="line"/>
      <point x="663" y="664" type="line"/>
      <point x="602" y="693"/>
      <point x="500" y="714"/>
      <point x="416" y="714" type="curve" smooth="yes"/>
      <point x="203" y="714"/>
      <point x="35" y="550"/>
      <point x="35" y="351" type="curve" smooth="yes"/>
      <point x="35" y="152"/>
      <point x="209" y="-14"/>
    </contour>
  </outline>
</glyph>
<glyph name="g_u" format="2">
  <advance width="1106"/>
  <unicode hex="F2310"/>
  <outline>
    <contour>
      <point x="206" y="-264" type="curve" smooth="yes"/>
      <point x="355" y="-264"/>
      <point x="502" y="-162"/>
      <point x="502" y="-54" type="curve" smooth="yes"/>
      <point x="502" y="9"/>
      <point x="451" y="62"/>
      <point x="365" y="69" type="curve" smooth="yes"/>
      <point x="191" y="84" type="line" smooth="yes"/>
      <point x="164" y="86"/>
      <point x="150" y="91"/>
      <point x="150" y="109" type="curve" smooth="yes"/>
      <point x="150" y="122"/>
      <point x="157" y="137"/>
      <point x="183" y="158" type="curve"/>
      <point x="137" y="174" type="line"/>
      <point x="86" y="138"/>
      <point x="54" y="92"/>
      <point x="54" y="50" type="curve" smooth="yes"/>
      <point x="54" y="15"/>
      <point x="77" y="-45"/>
      <point x="143" y="-50" type="curve" smooth="yes"/>
      <point x="330" y="-65" type="line" smooth="yes"/>
      <point x="379" y="-69"/>
      <point x="412" y="-85"/>
      <point x="412" y="-117" type="curve" smooth="yes"/>
      <point x="412" y="-154"/>
      <point x="369" y="-177"/>
      <point x="304" y="-177" type="curve" smooth="yes"/>
      <point x="229" y="-177"/>
      <point x="119" y="-146"/>
      <point x="119" y="-84" type="curve" smooth="yes"/>
      <point x="119" y="-63"/>
      <point x="132" y="-50"/>
      <point x="153" y="-36" type="curve"/>
      <point x="140" y="-10" type="line"/>
      <point x="76" y="-42"/>
      <point x="15" y="-76"/>
      <point x="15" y="-137" type="curve" smooth="yes"/>
      <point x="15" y="-207"/>
      <point x="95" y="-264"/>
    </contour>
    <contour>
      <point x="242" y="138" type="curve" smooth="yes"/>
      <point x="361" y="138"/>
      <point x="463" y="225"/>
      <point x="463" y="324" type="curve" smooth="yes"/>
      <point x="463" y="417"/>
      <point x="372" y="494"/>
      <point x="260" y="494" type="curve" smooth="yes"/>
      <point x="141" y="494"/>
      <point x="48" y="407"/>
      <point x="48" y="309" type="curve" smooth="yes"/>
      <point x="48" y="217"/>
      <point x="129" y="138"/>
    </contour>
    <contour>
      <point x="277" y="188" type="curve" smooth="yes"/>
      <point x="232" y="188"/>
      <point x="183" y="264"/>
      <point x="183" y="349" type="curve" smooth="yes"/>
      <point x="183" y="399"/>
      <point x="200" y="446"/>
      <point x="237" y="446" type="curve" smooth="yes"/>
      <point x="285" y="446"/>
      <point x="330" y="370"/>
      <point x="330" y="289" type="curve" smooth="yes"/>
      <point x="330" y="242"/>
      <point x="315" y="188"/>
    </contour>
    <contour>
      <point x="339" y="423" type="line"/>
      <point x="517" y="423" type="line" smooth="yes"/>
      <point x="581" y="423"/>
      <point x="591" y="374"/>
      <point x="591" y="325" type="curve"/>
      <point x="739" y="325" type="line"/>
      <point x="739" y="373"/>
      <point x="742" y="448"/>
      <point x="747" y="477" type="curve"/>
      <point x="728" y="494" type="line"/>
      <point x="696" y="482"/>
      <point x="646" y="480"/>
      <point x="572" y="480" type="curve" smooth="yes"/>
      <point x="323" y="480" type="line"/>
    </contour>
    <contour>
      <point x="879" y="102" type="line"/>
      <point x="1027" y="102" type="line"/>
      <point x="1027" y="418" type="line"/>
      <point x="879" y="418" type="line"/>
    </contour>
    <component base="epaule" xScale="-1" yScale="-1" xOffset="1119" yOffset="480"/>
    <component base="empattement_decale" xScale="-1" yScale="-1" xOffset="1100" yOffset="470"/>
    <component base="empattement_haut" xOffset="853" yOffset="-246"/>
  </outline>
</glyph>
<glyph name="L_E" format="2">
  <advance width="1115"/>
  <unicode hex="F3210"/>
  <outline>
    <contour>
      <point x="40" y="0" type="line"/>
      <point x="1061" y="0" type="line"/>
      <point x="1085" y="182" type="line"/>
      <point x="1059" y="186" type="line"/>
      <point x="1028" y="114"/>
      <point x="955" y="53"/>
      <point x="863" y="53" type="curve" smooth="yes"/>
      <point x="758" y="53"/>
      <point x="749" y="95"/>
      <point x="749" y="141" type="curve"/>
      <point x="591" y="151" type="line"/>
      <point x="591" y="79"/>
      <point x="499" y="53"/>
      <point x="419" y="53" type="curve" smooth="yes"/>
      <point x="333" y="53"/>
      <point x="256" y="65"/>
      <point x="256" y="151" type="curve" smooth="yes"/>
      <point x="256" y="557" type="line" smooth="yes"/>
      <point x="256" y="643"/>
      <point x="280" y="662"/>
      <point x="323" y="673" type="curve"/>
      <point x="323" y="700" type="line"/>
      <point x="40" y="700" type="line"/>
      <point x="40" y="673" type="line"/>
      <point x="87" y="662"/>
      <point x="98" y="643"/>
      <point x="98" y="557" type="curve" smooth="yes"/>
      <point x="98" y="143" type="line" smooth="yes"/>
      <point x="98" y="57"/>
      <point x="87" y="38"/>
      <point x="40" y="27" type="curve"/>
    </contour>
    <contour>
      <point x="591" y="49" type="line"/>
      <point x="749" y="49" type="line"/>
      <point x="749" y="700" type="line"/>
      <point x="533" y="700" type="line"/>
      <point x="533" y="675" type="line"/>
      <point x="580" y="664"/>
      <point x="591" y="645"/>
      <point x="591" y="559" type="curve" smooth="yes"/>
    </contour>
    <contour>
      <point x="912" y="227" type="curve"/>
      <point x="939" y="227" type="line"/>
      <point x="939" y="495" type="line"/>
      <point x="912" y="495" type="line"/>
      <point x="904" y="430"/>
      <point x="862" y="388"/>
      <point x="786" y="388" type="curve" smooth="yes"/>
      <point x="714" y="388" type="line"/>
      <point x="714" y="335" type="line"/>
      <point x="786" y="335" type="line" smooth="yes"/>
      <point x="862" y="335"/>
      <point x="904" y="294"/>
    </contour>
    <contour>
      <point x="1040" y="503" type="curve"/>
      <point x="1066" y="510" type="line"/>
      <point x="1038" y="700" type="line"/>
      <point x="684" y="700" type="line"/>
      <point x="684" y="647" type="line"/>
      <point x="838" y="647" type="line" smooth="yes"/>
      <point x="929" y="647"/>
      <point x="992" y="594"/>
    </contour>
  </outline>
</glyph>
<glyph name="L_L" format="2">
  <advance width="1083"/>
  <unicode hex="F3220"/>
  <outline>
    <component base="L" xOffset="493"/>
    <contour>
      <point x="40" y="0" type="line"/>
      <point x="701" y="0" type="line"/>
      <point x="591" y="151" type="line"/>
      <point x="591" y="79"/>
      <point x="499" y="53"/>
      <point x="419" y="53" type="curve" smooth="yes"/>
      <point x="333" y="53"/>
      <point x="256" y="65"/>
      <point x="256" y="151" type="curve" smooth="yes"/>
      <point x="256" y="557" type="line" smooth="yes"/>
      <point x="256" y="643"/>
      <point x="280" y="662"/>
      <point x="323" y="673" type="curve"/>
      <point x="323" y="700" type="line"/>
      <point x="40" y="700" type="line"/>
      <point x="40" y="673" type="line"/>
      <point x="87" y="662"/>
      <point x="98" y="643"/>
      <point x="98" y="557" type="curve" smooth="yes"/>
      <point x="98" y="143" type="line" smooth="yes"/>
      <point x="98" y="57"/>
      <point x="87" y="38"/>
      <point x="40" y="27" type="curve"/>
    </contour>
  </outline>
</glyph>
<glyph name="L_U" format="2">
  <advance width="1250"/>
  <unicode hex="F3250"/>
  <outline>
    <contour>
      <point x="40" y="0" type="line"/>
      <point x="633" y="0" type="line"/>
      <point x="637" y="19" type="line"/>
      <point x="588" y="59"/>
      <point x="565" y="102"/>
      <point x="558" y="126" type="curve"/>
      <point x="536" y="129" type="line"/>
      <point x="508" y="90"/>
      <point x="446" y="53"/>
      <point x="338" y="53" type="curve" smooth="yes"/>
      <point x="273" y="53"/>
      <point x="256" y="85"/>
      <point x="256" y="131" type="curve" smooth="yes"/>
      <point x="256" y="557" type="line" smooth="yes"/>
      <point x="256" y="643"/>
      <point x="280" y="662"/>
      <point x="323" y="673" type="curve"/>
      <point x="323" y="700" type="line"/>
      <point x="40" y="700" type="line"/>
      <point x="40" y="673" type="line"/>
      <point x="87" y="662"/>
      <point x="98" y="643"/>
      <point x="98" y="557" type="curve" smooth="yes"/>
      <point x="98" y="143" type="line" smooth="yes"/>
      <point x="98" y="57"/>
      <point x="87" y="38"/>
      <point x="40" y="27" type="curve"/>
    </contour>
    <component base="U" xOffset="516"/>
  </outline>
</glyph>
<glyph name="l_e" format="2">
  <advance width="506"/>
  <unicode hex="F3311"/>
  <outline>
    <component base="empattement_haut" xOffset="37" identifier="734BB8C3"/>
    <component base="e" xOffset="38"/>
    <contour>
      <point x="63" y="590" type="line"/>
      <point x="63" y="227" type="line"/>
      <point x="211" y="437" type="line"/>
      <point x="211" y="590" type="line"/>
    </contour>
  </outline>
</glyph>
<glyph name="l_l" format="2">
  <advance width="570"/>
  <unicode hex="F3320"/>
  <outline>
    <contour>
      <point x="63" y="39" type="line"/>
      <point x="211" y="39" type="line"/>
      <point x="211" y="645" type="line"/>
      <point x="63" y="645" type="line"/>
    </contour>
    <contour>
      <point x="15" y="0" type="line"/>
      <point x="550" y="0" type="line"/>
      <point x="550" y="27" type="line"/>
      <point x="516" y="35"/>
      <point x="496" y="58"/>
      <point x="496" y="137" type="curve"/>
      <point x="348" y="137" type="line"/>
      <point x="348" y="69"/>
      <point x="326" y="42"/>
      <point x="281" y="42" type="curve" smooth="yes"/>
      <point x="235" y="42"/>
      <point x="211" y="69"/>
      <point x="211" y="137" type="curve"/>
      <point x="63" y="137" type="line"/>
      <point x="63" y="58"/>
      <point x="45" y="35"/>
      <point x="15" y="27" type="curve"/>
    </contour>
    <component base="empattement_haut" xOffset="37" yOffset="4" identifier="A5585974"/>
    <contour>
      <point x="348" y="39" type="line"/>
      <point x="496" y="39" type="line"/>
      <point x="496" y="645" type="line"/>
      <point x="348" y="645" type="line"/>
    </contour>
    <component base="empattement_haut" xOffset="322" yOffset="4" identifier="694F1A40"/>
  </outline>
</glyph>
<glyph name="l_u" format="2">
  <advance width="578"/>
  <unicode hex="F3350"/>
  <outline>
    <contour>
      <point x="63" y="239" type="line"/>
      <point x="211" y="239" type="line"/>
      <point x="211" y="645" type="line"/>
      <point x="63" y="645" type="line"/>
    </contour>
    <component base="epaule" xScale="-1" yScale="-1" xOffset="591" yOffset="470"/>
    <component base="empattement_decale" xScale="-1" yScale="-1" xOffset="572" yOffset="473"/>
    <contour>
      <point x="351" y="102" type="line"/>
      <point x="499" y="102" type="line"/>
      <point x="499" y="418" type="line"/>
      <point x="351" y="418" type="line"/>
    </contour>
    <component base="empattement_haut" xOffset="37" yOffset="4"/>
    <component base="empattement_haut" xOffset="325" yOffset="-256"/>
  </outline>
</glyph>
<glyph name="M_P" format="2">
  <advance width="1226"/>
  <unicode hex="F3410"/>
  <outline>
    <contour>
      <point x="25" y="0" type="line"/>
      <point x="277" y="0" type="line"/>
      <point x="277" y="27" type="line"/>
      <point x="208" y="33"/>
      <point x="156" y="64"/>
      <point x="164" y="148" type="curve" smooth="yes"/>
      <point x="203" y="572" type="line"/>
      <point x="202" y="572" type="line"/>
      <point x="415" y="53" type="line"/>
      <point x="469" y="53" type="line"/>
      <point x="697" y="617" type="line"/>
      <point x="704" y="700" type="line"/>
      <point x="665" y="700" type="line"/>
      <point x="490" y="251" type="line"/>
      <point x="492" y="251" type="line"/>
      <point x="311" y="700" type="line"/>
      <point x="69" y="700" type="line"/>
      <point x="69" y="674" type="line"/>
      <point x="111" y="668"/>
      <point x="148" y="641"/>
      <point x="141" y="568" type="curve" smooth="yes"/>
      <point x="101" y="154" type="line" smooth="yes"/>
      <point x="93" y="68"/>
      <point x="73" y="47"/>
      <point x="25" y="27" type="curve"/>
    </contour>
    <contour>
      <point x="649" y="0" type="line"/>
      <point x="975" y="0" type="line"/>
      <point x="975" y="27" type="line"/>
      <point x="905" y="36"/>
      <point x="870" y="55"/>
      <point x="865" y="141" type="curve" smooth="yes"/>
      <point x="835" y="647" type="line"/>
      <point x="858" y="647" type="line" smooth="yes"/>
      <point x="986" y="647"/>
      <point x="1029" y="564"/>
      <point x="1029" y="475" type="curve" smooth="yes"/>
      <point x="1029" y="392"/>
      <point x="991" y="315"/>
      <point x="900" y="294" type="curve"/>
      <point x="902" y="266" type="line"/>
      <point x="1031" y="266"/>
      <point x="1191" y="341"/>
      <point x="1191" y="487" type="curve" smooth="yes"/>
      <point x="1191" y="611"/>
      <point x="1077" y="700"/>
      <point x="862" y="700" type="curve" smooth="yes"/>
      <point x="677" y="700" type="line"/>
      <point x="707" y="141" type="line" smooth="yes"/>
      <point x="712" y="55"/>
      <point x="696" y="38"/>
      <point x="649" y="27" type="curve"/>
    </contour>
  </outline>
</glyph>
<glyph name="m_p" format="2">
  <advance width="1172"/>
  <unicode hex="F3510"/>
  <outline>
    <component base="n"/>
    <component base="epaule" xOffset="301" identifier="B2EF7D8B"/>
    <component base="empattement_bas_long" xOffset="627"/>
    <contour>
      <point x="681" y="-138" type="line"/>
      <point x="829" y="-138" type="line"/>
      <point x="829" y="353" type="line"/>
      <point x="681" y="353" type="line"/>
    </contour>
    <component base="panse" xOffset="592"/>
  </outline>
</glyph>
<glyph name="N_N" format="2">
  <advance width="1304"/>
  <unicode hex="F3640"/>
  <outline>
    <contour>
      <point x="1110" y="0" type="line"/>
      <point x="1173" y="173" type="line"/>
      <point x="754" y="700" type="line"/>
      <point x="530" y="700" type="line"/>
      <point x="530" y="668" type="line"/>
      <point x="586" y="649"/>
      <point x="627" y="605"/>
      <point x="672" y="549" type="curve" smooth="yes"/>
    </contour>
    <contour>
      <point x="61" y="0" type="line"/>
      <point x="319" y="0" type="line"/>
      <point x="319" y="27" type="line"/>
      <point x="246" y="47"/>
      <point x="202" y="75"/>
      <point x="202" y="148" type="curve" smooth="yes"/>
      <point x="202" y="700" type="line"/>
      <point x="139" y="700" type="line"/>
      <point x="139" y="148" type="line" smooth="yes"/>
      <point x="139" y="75"/>
      <point x="108" y="40"/>
      <point x="61" y="27" type="curve"/>
    </contour>
    <contour>
      <point x="615" y="0" type="line"/>
      <point x="678" y="173" type="line"/>
      <point x="259" y="700" type="line"/>
      <point x="35" y="700" type="line"/>
      <point x="35" y="668" type="line"/>
      <point x="91" y="649"/>
      <point x="132" y="605"/>
      <point x="177" y="549" type="curve" smooth="yes"/>
    </contour>
    <contour>
      <point x="615" y="0" type="line"/>
      <point x="697" y="0" type="line"/>
      <point x="697" y="700" type="line"/>
      <point x="634" y="700" type="line"/>
      <point x="634" y="100" type="line"/>
    </contour>
    <contour>
      <point x="1110" y="0" type="line"/>
      <point x="1192" y="0" type="line"/>
      <point x="1192" y="536" type="line" smooth="yes"/>
      <point x="1192" y="622"/>
      <point x="1226" y="657"/>
      <point x="1269" y="673" type="curve"/>
      <point x="1269" y="700" type="line"/>
      <point x="1013" y="700" type="line"/>
      <point x="1013" y="673" type="line"/>
      <point x="1088" y="657"/>
      <point x="1129" y="622"/>
      <point x="1129" y="536" type="curve" smooth="yes"/>
      <point x="1129" y="100" type="line"/>
    </contour>
  </outline>
</glyph>
<glyph name="n_n" format="2">
  <advance width="1206"/>
  <unicode hex="F3740"/>
  <outline>
    <component base="n"/>
    <component base="n" xOffset="603"/>
    <contour>
      <point x="344" y="0" type="line"/>
      <point x="894" y="0" type="line"/>
      <point x="894" y="27" type="line"/>
      <point x="860" y="35"/>
      <point x="840" y="58"/>
      <point x="840" y="137" type="curve"/>
      <point x="692" y="137" type="line"/>
      <point x="692" y="69"/>
      <point x="662" y="42"/>
      <point x="617" y="42" type="curve" smooth="yes"/>
      <point x="571" y="42"/>
      <point x="540" y="69"/>
      <point x="540" y="137" type="curve"/>
      <point x="392" y="137" type="line"/>
      <point x="392" y="58"/>
      <point x="374" y="35"/>
      <point x="344" y="27" type="curve"/>
    </contour>
  </outline>
</glyph>
<glyph name="O_T" format="2">
  <advance width="796"/>
  <unicode hex="F3840"/>
  <outline>
    <contour>
      <point x="405" y="-14" type="curve" smooth="yes"/>
      <point x="556" y="-14"/>
      <point x="676" y="112"/>
      <point x="676" y="263" type="curve" smooth="yes"/>
      <point x="676" y="414"/>
      <point x="556" y="539"/>
      <point x="405" y="539" type="curve" smooth="yes"/>
      <point x="253" y="539"/>
      <point x="133" y="414"/>
      <point x="133" y="263" type="curve" smooth="yes"/>
      <point x="133" y="112"/>
      <point x="253" y="-14"/>
    </contour>
    <contour>
      <point x="437" y="35" type="curve" smooth="yes"/>
      <point x="355" y="35"/>
      <point x="269" y="157"/>
      <point x="269" y="296" type="curve" smooth="yes"/>
      <point x="269" y="391"/>
      <point x="304" y="490"/>
      <point x="374" y="490" type="curve" smooth="yes"/>
      <point x="457" y="490"/>
      <point x="540" y="370"/>
      <point x="540" y="228" type="curve" smooth="yes"/>
      <point x="540" y="133"/>
      <point x="507" y="35"/>
    </contour>
    <contour>
      <point x="332" y="509" type="line"/>
      <point x="470" y="509" type="line"/>
      <point x="470" y="665" type="line"/>
      <point x="332" y="665" type="line"/>
    </contour>
    <component base="mi_barre_T" xOffset="86"/>
    <component base="mi_barre_T" xScale="-1" xOffset="710"/>
  </outline>
</glyph>
<glyph name="o_f" format="2">
  <advance width="641"/>
  <unicode hex="F3910"/>
  <outline>
    <component base="o"/>
    <contour>
      <point x="493" y="480" type="line"/>
      <point x="509" y="420" type="line"/>
      <point x="624" y="420" type="line"/>
      <point x="648" y="461" type="line"/>
      <point x="641" y="480" type="line"/>
    </contour>
    <component base="f-haut" xOffset="315"/>
    <contour>
      <point x="527" y="468" type="line"/>
      <point x="379" y="468" type="line"/>
      <point x="379" y="247" type="line"/>
      <point x="527" y="244" type="line"/>
    </contour>
  </outline>
</glyph>
<glyph name="o_t" format="2">
  <advance width="880"/>
  <unicode hex="F3940"/>
  <outline>
    <component base="o"/>
    <contour>
      <point x="621" y="113" type="line"/>
      <point x="769" y="130" type="line"/>
      <point x="769" y="466" type="line"/>
      <point x="621" y="466" type="line"/>
    </contour>
    <contour>
      <point x="569" y="420" type="line"/>
      <point x="866" y="420" type="line"/>
      <point x="890" y="461" type="line"/>
      <point x="883" y="480" type="line"/>
      <point x="770" y="480" type="line"/>
      <point x="770" y="607" type="line"/>
      <point x="728" y="607" type="line"/>
      <point x="562" y="452" type="line"/>
    </contour>
    <contour>
      <point x="621" y="120" type="line" smooth="yes"/>
      <point x="621" y="68"/>
      <point x="588" y="44"/>
      <point x="548" y="44" type="curve" smooth="yes"/>
      <point x="514" y="44"/>
      <point x="480" y="55"/>
      <point x="437" y="94" type="curve"/>
      <point x="401" y="46" type="line"/>
      <point x="450" y="7"/>
      <point x="505" y="-14"/>
      <point x="569" y="-14" type="curve" smooth="yes"/>
      <point x="644" y="-14"/>
      <point x="769" y="12"/>
      <point x="769" y="109" type="curve" smooth="yes"/>
      <point x="769" y="345" type="line"/>
      <point x="621" y="345" type="line"/>
    </contour>
  </outline>
</glyph>
<glyph name="o_idieresis" format="2">
  <advance width="844"/>
  <unicode hex="F3970"/>
  <outline>
    <component base="o" identifier="4AAA1D14"/>
    <contour>
      <point x="631" y="120" type="line" smooth="yes"/>
      <point x="631" y="68"/>
      <point x="598" y="44"/>
      <point x="558" y="44" type="curve" smooth="yes"/>
      <point x="524" y="44"/>
      <point x="490" y="55"/>
      <point x="447" y="94" type="curve"/>
      <point x="411" y="46" type="line"/>
      <point x="460" y="7"/>
      <point x="515" y="-14"/>
      <point x="579" y="-14" type="curve" smooth="yes"/>
      <point x="654" y="-14"/>
      <point x="779" y="12"/>
      <point x="779" y="109" type="curve" smooth="yes"/>
      <point x="779" y="345" type="line"/>
      <point x="631" y="345" type="line"/>
    </contour>
    <component base="empattement_haut" xOffset="605" yOffset="-246"/>
    <component base="dieresiscomb" xOffset="533" identifier="B483537C"/>
  </outline>
</glyph>
<glyph name="P_M" format="2">
  <advance width="1172"/>
  <unicode hex="F4010"/>
  <outline>
    <contour>
      <point x="40" y="0" type="line"/>
      <point x="371" y="0" type="line"/>
      <point x="371" y="27" type="line"/>
      <point x="296" y="36"/>
      <point x="256" y="55"/>
      <point x="256" y="141" type="curve" smooth="yes"/>
      <point x="256" y="647" type="line"/>
      <point x="279" y="647" type="line" smooth="yes"/>
      <point x="407" y="647"/>
      <point x="450" y="564"/>
      <point x="450" y="475" type="curve" smooth="yes"/>
      <point x="450" y="392"/>
      <point x="412" y="315"/>
      <point x="316" y="294" type="curve"/>
      <point x="318" y="266" type="line"/>
      <point x="391" y="266"/>
      <point x="472" y="287"/>
      <point x="528" y="336" type="curve"/>
      <point x="643" y="53" type="line"/>
      <point x="697" y="53" type="line"/>
      <point x="915" y="617" type="line"/>
      <point x="883" y="700" type="line"/>
      <point x="719" y="254" type="line"/>
      <point x="615" y="512" type="line" smooth="yes"/>
      <point x="567" y="632"/>
      <point x="477" y="700"/>
      <point x="283" y="700" type="curve" smooth="yes"/>
      <point x="40" y="700" type="line"/>
      <point x="40" y="673" type="line"/>
      <point x="87" y="662"/>
      <point x="98" y="643"/>
      <point x="98" y="557" type="curve" smooth="yes"/>
      <point x="98" y="141" type="line" smooth="yes"/>
      <point x="98" y="55"/>
      <point x="87" y="38"/>
      <point x="40" y="27" type="curve"/>
    </contour>
    <contour>
      <point x="865" y="0" type="line"/>
      <point x="1152" y="0" type="line"/>
      <point x="1152" y="27" type="line"/>
      <point x="1115" y="36"/>
      <point x="1101" y="55"/>
      <point x="1091" y="141" type="curve" smooth="yes"/>
      <point x="1044" y="557" type="line" smooth="yes"/>
      <point x="1035" y="633"/>
      <point x="1054" y="662"/>
      <point x="1097" y="673" type="curve"/>
      <point x="1097" y="700" type="line"/>
      <point x="882" y="700" type="line"/>
      <point x="933" y="141" type="line" smooth="yes"/>
      <point x="941" y="55"/>
      <point x="908" y="37"/>
      <point x="865" y="27" type="curve"/>
    </contour>
  </outline>
</glyph>
<glyph name="R_I" format="2">
  <advance width="1046"/>
  <unicode hex="F4470"/>
  <outline>
    <contour>
      <point x="721" y="-11" type="curve" smooth="yes"/>
      <point x="815" y="-11"/>
      <point x="922" y="0"/>
      <point x="1006" y="0" type="curve"/>
      <point x="1006" y="27" type="line"/>
      <point x="963" y="34"/>
      <point x="949" y="57"/>
      <point x="949" y="143" type="curve" smooth="yes"/>
      <point x="949" y="557" type="line" smooth="yes"/>
      <point x="949" y="643"/>
      <point x="963" y="666"/>
      <point x="1006" y="672" type="curve"/>
      <point x="1006" y="700" type="line"/>
      <point x="733" y="700" type="line"/>
      <point x="733" y="672" type="line"/>
      <point x="780" y="666"/>
      <point x="791" y="643"/>
      <point x="791" y="557" type="curve" smooth="yes"/>
      <point x="791" y="121" type="line" smooth="yes"/>
      <point x="791" y="59"/>
      <point x="772" y="34"/>
      <point x="733" y="34" type="curve" smooth="yes"/>
      <point x="628" y="34"/>
      <point x="550" y="278"/>
      <point x="453" y="345" type="curve"/>
      <point x="526" y="370"/>
      <point x="608" y="438"/>
      <point x="608" y="514" type="curve" smooth="yes"/>
      <point x="608" y="632"/>
      <point x="492" y="700"/>
      <point x="273" y="700" type="curve" smooth="yes"/>
      <point x="40" y="700" type="line"/>
      <point x="40" y="673" type="line"/>
      <point x="87" y="662"/>
      <point x="98" y="643"/>
      <point x="98" y="557" type="curve" smooth="yes"/>
      <point x="98" y="140" type="line" smooth="yes"/>
      <point x="98" y="55"/>
      <point x="87" y="38"/>
      <point x="40" y="27" type="curve"/>
      <point x="40" y="0" type="line"/>
      <point x="338" y="0" type="line"/>
      <point x="338" y="27" type="line"/>
      <point x="286" y="36"/>
      <point x="256" y="53"/>
      <point x="256" y="140" type="curve" smooth="yes"/>
      <point x="256" y="311" type="line"/>
      <point x="291" y="311" type="line" smooth="yes"/>
      <point x="315" y="311"/>
      <point x="331" y="295"/>
      <point x="345" y="273" type="curve" smooth="yes"/>
      <point x="446" y="119" type="line" smooth="yes"/>
      <point x="518" y="10"/>
      <point x="609" y="-11"/>
    </contour>
    <contour>
      <point x="256" y="364" type="line"/>
      <point x="256" y="647" type="line"/>
      <point x="269" y="647" type="line" smooth="yes"/>
      <point x="374" y="647"/>
      <point x="446" y="593"/>
      <point x="446" y="508" type="curve" smooth="yes"/>
      <point x="446" y="422"/>
      <point x="377" y="364"/>
      <point x="290" y="364" type="curve" smooth="yes"/>
    </contour>
  </outline>
</glyph>
